<?xml version="1.0" encoding="UTF-8"?> <!-- Generator: Adobe Illustrator 23.0.3, SVG Export Plug-In . SVG Version: 6.00 Build 0) --> <svg xmlns="http://www.w3.org/2000/svg" xmlns:xlink="http://www.w3.org/1999/xlink" id="orbit" x="0px" y="0px" width="713.4px" height="559.5px" viewBox="0 0 713.4 559.5" style="enable-background:new 0 0 713.4 559.5;" xml:space="preserve"> <style type="text/css"> .st0{fill:#CCCCCC;} .st1{fill:#302144;} .st2{fill:#F9A000;} .st3{fill:#F47C33;} .st4{fill:#EF5966;} .st5{fill:#A53F5B;} .st6{fill:#FFFFFF;} .st7{opacity:0.75;} .st8{fill:#5A2751;} .st9{fill:#B5687E;} .st10{fill:#A6405C;} </style> <g> <path class="st0" d="M309.5,73c-0.3,0-0.6-0.2-0.8-0.4c-0.3-0.5-0.2-1.1,0.3-1.4l89.8-61c0.2-0.1,0.4-0.2,0.6-0.2h23.2 c0.6,0,1,0.4,1,1s-0.4,1-1,1h-22.9l-89.5,60.8C309.9,72.9,309.7,73,309.5,73z"></path> </g> <g> <path class="st1" d="M439.9,5.7c0,0.4,0,0.7-0.1,1.1s-0.1,0.7-0.3,1c-0.1,0.3-0.3,0.7-0.5,0.9s-0.4,0.5-0.7,0.8 c-0.3,0.2-0.5,0.4-0.9,0.5s-0.7,0.2-1.1,0.2s-0.8-0.1-1.1-0.2s-0.6-0.3-0.9-0.5c-0.3-0.2-0.5-0.5-0.7-0.8c-0.2-0.3-0.3-0.6-0.5-0.9 s-0.2-0.7-0.3-1c-0.1-0.4-0.1-0.7-0.1-1.1V4.6c0-0.4,0-0.7,0.1-1.1s0.1-0.7,0.3-1s0.3-0.7,0.5-0.9s0.4-0.6,0.7-0.8 c0.3-0.2,0.5-0.4,0.9-0.5S436,0,436.4,0s0.8,0.1,1.1,0.2c0.3,0.1,0.6,0.3,0.9,0.5c0.3,0.2,0.5,0.5,0.7,0.8s0.3,0.6,0.5,0.9 s0.2,0.7,0.3,1.1s0.1,0.7,0.1,1.1V5.7z M438.6,4.6c0-0.2,0-0.5,0-0.7s-0.1-0.5-0.1-0.8s-0.2-0.5-0.3-0.7s-0.2-0.4-0.4-0.6 s-0.4-0.3-0.6-0.4c-0.2-0.1-0.5-0.2-0.8-0.2c-0.3,0-0.5,0.1-0.8,0.2c-0.2,0.1-0.4,0.2-0.6,0.4s-0.3,0.4-0.4,0.6s-0.2,0.5-0.3,0.7 s-0.1,0.5-0.1,0.8s0,0.5-0.1,0.7v1.1c0,0.2,0,0.5,0.1,0.7s0.1,0.5,0.1,0.8s0.2,0.5,0.3,0.7s0.2,0.4,0.4,0.6s0.4,0.3,0.6,0.4 c0.2,0.1,0.5,0.2,0.8,0.2c0.3,0,0.6-0.1,0.8-0.2s0.4-0.2,0.6-0.4s0.3-0.4,0.4-0.6s0.2-0.5,0.3-0.7s0.1-0.5,0.1-0.8s0-0.5,0-0.7V4.6 z"></path> <path class="st1" d="M446.4,2.6c0.1,0,0.2,0,0.4,0s0.2,0,0.4,0c0.1,0,0.2,0,0.3,0.1c0.1,0,0.2,0,0.2,0.1L447.5,4 c-0.2-0.1-0.5-0.1-0.7-0.1c-0.2,0-0.5,0-0.7,0c-0.6,0-1.1,0.1-1.4,0.4c-0.4,0.3-0.6,0.6-0.8,1.1v4.7h-1.3V2.7h1.2l0.1,1.2 c0.3-0.4,0.7-0.7,1.1-1C445.3,2.7,445.8,2.6,446.4,2.6z"></path> <path class="st1" d="M455.9,6.5c0,0.5-0.1,1-0.2,1.5s-0.3,0.9-0.6,1.2s-0.6,0.6-0.9,0.8c-0.4,0.2-0.8,0.3-1.2,0.3 c-0.5,0-0.9-0.1-1.2-0.3c-0.3-0.2-0.6-0.4-0.9-0.7l-0.1,0.8h-1.2V-0.4h1.3v3.9c0.2-0.3,0.5-0.5,0.9-0.7s0.7-0.2,1.2-0.2 c0.5,0,0.9,0.1,1.3,0.3s0.7,0.4,0.9,0.8s0.4,0.7,0.6,1.2s0.2,1,0.2,1.5V6.5z M454.6,6.4c0-0.4,0-0.7-0.1-1 c-0.1-0.3-0.2-0.6-0.3-0.9s-0.4-0.4-0.6-0.6s-0.6-0.2-0.9-0.2c-0.2,0-0.4,0-0.6,0.1s-0.3,0.1-0.5,0.2c-0.1,0.1-0.3,0.2-0.4,0.4 c-0.1,0.1-0.2,0.3-0.3,0.5V8c0.1,0.2,0.2,0.3,0.3,0.5c0.1,0.1,0.2,0.3,0.4,0.4s0.3,0.2,0.5,0.2s0.4,0.1,0.6,0.1 c0.3,0,0.6-0.1,0.9-0.2c0.2-0.1,0.5-0.3,0.6-0.6c0.2-0.2,0.3-0.5,0.3-0.9c0.1-0.3,0.1-0.7,0.1-1V6.4z"></path> <path class="st1" d="M457.9,2.7h3.8V9h2.4v1.1h-6.2V9h2.5V3.8h-2.5V2.7z M460.3,0.8c0-0.2,0.1-0.4,0.2-0.5s0.3-0.2,0.6-0.2 c0.2,0,0.4,0.1,0.6,0.2c0.1,0.1,0.2,0.3,0.2,0.5c0,0.2-0.1,0.4-0.2,0.5c-0.1,0.1-0.3,0.2-0.6,0.2c-0.3,0-0.4-0.1-0.6-0.2 S460.3,1,460.3,0.8z"></path> <path class="st1" d="M468.9,0.9v1.8h2.8v1h-2.8v4c0,0.3,0,0.5,0.1,0.7c0.1,0.2,0.2,0.3,0.3,0.4c0.1,0.1,0.3,0.2,0.4,0.2 s0.3,0.1,0.5,0.1c0.1,0,0.3,0,0.4,0c0.1,0,0.3,0,0.4-0.1s0.3,0,0.4-0.1s0.2,0,0.3-0.1l0.2,0.9c-0.1,0.1-0.2,0.1-0.4,0.2 s-0.3,0.1-0.5,0.1s-0.4,0.1-0.6,0.1s-0.4,0-0.6,0c-0.3,0-0.6,0-0.9-0.1s-0.5-0.2-0.7-0.4c-0.2-0.2-0.4-0.5-0.5-0.8 s-0.2-0.7-0.2-1.2v-4h-1.9v-1h1.9V0.9H468.9z"></path> <path class="st1" d="M486.9,7.5h-3.3l-0.8,2.6h-1.3l3.2-10h1.1l3.2,10h-1.3L486.9,7.5z M483.9,6.4h2.6l-1.3-4.3L483.9,6.4z"></path> <path class="st1" d="M492.8,3.3c0-0.1,0-0.3,0.1-0.4s0.1-0.2,0.2-0.3s0.2-0.2,0.3-0.2s0.3-0.1,0.4-0.1s0.3,0,0.4,0.1 s0.2,0.1,0.3,0.2s0.1,0.2,0.2,0.3s0.1,0.2,0.1,0.4c0,0.1,0,0.3-0.1,0.4s-0.1,0.2-0.2,0.3s-0.2,0.2-0.3,0.2s-0.3,0.1-0.4,0.1 s-0.3,0-0.4-0.1S493.1,4.1,493,4s-0.1-0.2-0.2-0.3S492.8,3.4,492.8,3.3z M492.8,9.3c0-0.1,0-0.3,0.1-0.4s0.1-0.2,0.2-0.3 s0.2-0.2,0.3-0.2s0.3-0.1,0.4-0.1s0.3,0,0.4,0.1s0.2,0.1,0.3,0.2s0.1,0.2,0.2,0.3s0.1,0.2,0.1,0.4c0,0.1,0,0.3-0.1,0.4 s-0.1,0.2-0.2,0.3s-0.2,0.2-0.3,0.2s-0.3,0.1-0.4,0.1s-0.3,0-0.4-0.1s-0.2-0.1-0.3-0.2s-0.1-0.2-0.2-0.3S492.8,9.4,492.8,9.3z"></path> <path class="st1" d="M512.9,7.1c-0.1,0.5-0.2,0.9-0.4,1.3s-0.4,0.7-0.7,1c-0.3,0.3-0.6,0.5-1,0.6c-0.4,0.2-0.8,0.2-1.3,0.2 c-0.4,0-0.8-0.1-1.1-0.2c-0.3-0.1-0.6-0.3-0.9-0.5c-0.3-0.2-0.5-0.4-0.7-0.7c-0.2-0.3-0.3-0.6-0.5-0.9c-0.1-0.3-0.2-0.7-0.3-1 c-0.1-0.4-0.1-0.7-0.1-1.1V4.5c0-0.4,0-0.7,0.1-1.1c0.1-0.4,0.2-0.7,0.3-1c0.1-0.3,0.3-0.6,0.5-0.9c0.2-0.3,0.4-0.5,0.7-0.7 c0.3-0.2,0.6-0.4,0.9-0.5s0.7-0.2,1.1-0.2c0.5,0,0.9,0.1,1.3,0.2s0.7,0.4,1,0.6s0.5,0.6,0.7,1c0.2,0.4,0.3,0.8,0.3,1.3h-1.3 c0-0.3-0.1-0.6-0.2-0.8s-0.2-0.5-0.4-0.7s-0.4-0.3-0.6-0.5c-0.2-0.1-0.5-0.2-0.9-0.2c-0.3,0-0.6,0-0.8,0.1 c-0.2,0.1-0.4,0.2-0.6,0.4c-0.2,0.2-0.3,0.4-0.4,0.6c-0.1,0.2-0.2,0.5-0.3,0.7s-0.1,0.5-0.1,0.8c0,0.3,0,0.5,0,0.8v1.4 c0,0.2,0,0.5,0,0.8c0,0.3,0.1,0.5,0.1,0.8s0.2,0.5,0.3,0.7s0.2,0.4,0.4,0.6s0.4,0.3,0.6,0.4s0.5,0.1,0.8,0.1c0.3,0,0.6-0.1,0.9-0.2 c0.2-0.1,0.4-0.3,0.6-0.4s0.3-0.4,0.4-0.7s0.2-0.5,0.2-0.8H512.9z"></path> <path class="st1" d="M515.9,3.8c0.3-0.4,0.6-0.7,1-0.9c0.4-0.2,0.8-0.3,1.3-0.3c0.4,0,0.7,0.1,1.1,0.2s0.6,0.3,0.8,0.5 c0.2,0.2,0.4,0.5,0.5,0.9s0.2,0.8,0.2,1.3v4.7h-1.3V5.5c0-0.6-0.1-1.1-0.4-1.4s-0.7-0.4-1.2-0.4c-0.4,0-0.8,0.1-1.1,0.3 s-0.6,0.5-0.8,0.8v5.4h-1.3V-0.4h1.3V3.8z"></path> <path class="st1" d="M527.6,10.1c0-0.1-0.1-0.2-0.1-0.4s-0.1-0.3-0.1-0.4c-0.1,0.1-0.3,0.2-0.4,0.4s-0.3,0.2-0.5,0.3 s-0.4,0.2-0.6,0.2c-0.2,0.1-0.4,0.1-0.7,0.1c-0.4,0-0.7-0.1-1.1-0.2s-0.6-0.3-0.8-0.5s-0.4-0.4-0.5-0.7s-0.2-0.6-0.2-0.9 c0-0.4,0.1-0.8,0.2-1.1s0.4-0.6,0.7-0.8c0.3-0.2,0.7-0.4,1.1-0.5s0.9-0.2,1.4-0.2h1.4V5.1c0-0.2,0-0.4-0.1-0.6s-0.2-0.3-0.3-0.5 s-0.3-0.2-0.6-0.3s-0.5-0.1-0.7-0.1c-0.2,0-0.5,0-0.7,0.1s-0.4,0.1-0.5,0.3s-0.2,0.2-0.3,0.4S524,4.6,524,4.8h-1.3 c0-0.3,0.1-0.5,0.2-0.8s0.3-0.5,0.6-0.7s0.6-0.4,0.9-0.5s0.8-0.2,1.2-0.2c0.4,0,0.8,0.1,1.2,0.2c0.4,0.1,0.7,0.3,0.9,0.5 s0.5,0.5,0.6,0.8s0.2,0.7,0.2,1.1v3.4c0,0.2,0,0.5,0.1,0.8c0,0.3,0.1,0.5,0.2,0.7v0.1H527.6z M525.3,9.2c0.2,0,0.5,0,0.7-0.1 c0.2-0.1,0.4-0.1,0.6-0.3s0.3-0.2,0.5-0.4c0.1-0.1,0.2-0.3,0.3-0.4V6.5h-1.2c-0.7,0-1.3,0.1-1.7,0.3s-0.6,0.6-0.6,1 c0,0.2,0,0.4,0.1,0.5s0.2,0.3,0.3,0.4s0.3,0.2,0.5,0.3C524.9,9.1,525.1,9.2,525.3,9.2z"></path> <path class="st1" d="M535.7,2.6c0.1,0,0.2,0,0.4,0s0.2,0,0.4,0c0.1,0,0.2,0,0.3,0.1c0.1,0,0.2,0,0.2,0.1L536.8,4 c-0.2-0.1-0.5-0.1-0.7-0.1c-0.2,0-0.5,0-0.7,0c-0.6,0-1.1,0.1-1.4,0.4c-0.4,0.3-0.6,0.6-0.8,1.1v4.7h-1.3V2.7h1.2l0.1,1.2 c0.3-0.4,0.7-0.7,1.1-1C534.7,2.7,535.1,2.6,535.7,2.6z"></path> <path class="st1" d="M543.8,10.1c0-0.1-0.1-0.2-0.1-0.4c0-0.1-0.1-0.3-0.1-0.4c-0.1,0.1-0.3,0.2-0.4,0.4c-0.2,0.1-0.3,0.2-0.5,0.3 c-0.2,0.1-0.4,0.2-0.6,0.2s-0.4,0.1-0.7,0.1c-0.4,0-0.7-0.1-1.1-0.2c-0.3-0.1-0.6-0.3-0.8-0.5c-0.2-0.2-0.4-0.4-0.5-0.7 c-0.1-0.3-0.2-0.6-0.2-0.9c0-0.4,0.1-0.8,0.2-1.1c0.2-0.3,0.4-0.6,0.7-0.8s0.7-0.4,1.1-0.5c0.4-0.1,0.9-0.2,1.4-0.2h1.4V5.1 c0-0.2,0-0.4-0.1-0.6s-0.2-0.3-0.3-0.5s-0.3-0.2-0.6-0.3c-0.2-0.1-0.5-0.1-0.7-0.1c-0.3,0-0.5,0-0.7,0.1c-0.2,0.1-0.4,0.1-0.5,0.3 s-0.2,0.2-0.3,0.4c-0.1,0.1-0.1,0.3-0.1,0.4H539c0-0.3,0.1-0.5,0.2-0.8c0.1-0.3,0.3-0.5,0.6-0.7c0.3-0.2,0.6-0.4,0.9-0.5 c0.4-0.1,0.8-0.2,1.2-0.2c0.4,0,0.8,0.1,1.2,0.2s0.7,0.3,0.9,0.5c0.3,0.2,0.5,0.5,0.6,0.8s0.2,0.7,0.2,1.1v3.4c0,0.2,0,0.5,0.1,0.8 s0.1,0.5,0.2,0.7v0.1H543.8z M541.6,9.2c0.2,0,0.5,0,0.7-0.1s0.4-0.1,0.6-0.3c0.2-0.1,0.3-0.2,0.5-0.4s0.2-0.3,0.3-0.4V6.5h-1.2 c-0.7,0-1.3,0.1-1.7,0.3s-0.6,0.6-0.6,1c0,0.2,0,0.4,0.1,0.5c0.1,0.2,0.2,0.3,0.3,0.4s0.3,0.2,0.5,0.3S541.3,9.2,541.6,9.2z"></path> <path class="st1" d="M550.2,9.2c0.2,0,0.4,0,0.7-0.1s0.4-0.2,0.6-0.3c0.2-0.1,0.3-0.3,0.4-0.5S552,8,552,7.8h1.2 c0,0.3-0.1,0.6-0.3,0.9s-0.4,0.6-0.7,0.8c-0.3,0.2-0.6,0.4-1,0.5c-0.4,0.1-0.7,0.2-1.1,0.2c-0.6,0-1.1-0.1-1.5-0.3 c-0.4-0.2-0.8-0.5-1-0.8s-0.5-0.7-0.6-1.2c-0.1-0.4-0.2-0.9-0.2-1.4V6.3c0-0.5,0.1-1,0.2-1.4c0.1-0.4,0.4-0.8,0.6-1.2 s0.6-0.6,1-0.8c0.4-0.2,0.9-0.3,1.5-0.3c0.4,0,0.8,0.1,1.2,0.2s0.7,0.3,1,0.6s0.5,0.5,0.6,0.9s0.2,0.7,0.2,1.1H552 c0-0.2-0.1-0.4-0.1-0.6s-0.2-0.4-0.4-0.5c-0.2-0.2-0.3-0.3-0.6-0.4s-0.5-0.1-0.7-0.1c-0.4,0-0.7,0.1-1,0.2s-0.5,0.4-0.6,0.6 s-0.3,0.5-0.4,0.9s-0.1,0.6-0.1,1v0.3c0,0.3,0,0.6,0.1,1s0.2,0.6,0.3,0.9s0.4,0.5,0.6,0.6S549.8,9.2,550.2,9.2z"></path> <path class="st1" d="M558.2,0.9v1.8h2.8v1h-2.8v4c0,0.3,0,0.5,0.1,0.7c0.1,0.2,0.2,0.3,0.3,0.4c0.1,0.1,0.3,0.2,0.4,0.2 s0.3,0.1,0.5,0.1c0.1,0,0.3,0,0.4,0c0.1,0,0.3,0,0.4-0.1s0.3,0,0.4-0.1s0.2,0,0.3-0.1l0.2,0.9c-0.1,0.1-0.2,0.1-0.4,0.2 s-0.3,0.1-0.5,0.1s-0.4,0.1-0.6,0.1s-0.4,0-0.6,0c-0.3,0-0.6,0-0.9-0.1s-0.5-0.2-0.7-0.4c-0.2-0.2-0.4-0.5-0.5-0.8 s-0.2-0.7-0.2-1.2v-4H555v-1h1.9V0.9H558.2z"></path> <path class="st1" d="M566.6,10.3c-0.5,0-1-0.1-1.4-0.3c-0.4-0.2-0.8-0.4-1.1-0.7s-0.6-0.7-0.7-1.1s-0.3-0.9-0.3-1.4V6.4 c0-0.6,0.1-1.1,0.3-1.6s0.4-0.9,0.8-1.2c0.3-0.3,0.7-0.6,1.1-0.7c0.4-0.2,0.8-0.3,1.2-0.3c0.5,0,1,0.1,1.4,0.3 c0.4,0.2,0.7,0.4,1,0.8s0.5,0.7,0.6,1.2c0.1,0.4,0.2,0.9,0.2,1.4v0.6h-5.3c0,0.3,0.1,0.7,0.2,1c0.1,0.3,0.3,0.6,0.5,0.8 c0.2,0.2,0.4,0.4,0.7,0.5s0.6,0.2,0.9,0.2c0.5,0,0.9-0.1,1.2-0.3s0.6-0.4,0.9-0.7l0.8,0.6c-0.1,0.2-0.3,0.4-0.5,0.5 c-0.2,0.2-0.4,0.3-0.6,0.5s-0.5,0.2-0.8,0.3S567,10.3,566.6,10.3z M566.4,3.6c-0.3,0-0.5,0-0.7,0.1s-0.4,0.2-0.6,0.4 s-0.3,0.4-0.5,0.7c-0.1,0.3-0.2,0.6-0.3,0.9h4V5.7c0-0.2-0.1-0.5-0.1-0.7c-0.1-0.2-0.2-0.5-0.4-0.6s-0.3-0.3-0.6-0.5 C567,3.7,566.8,3.6,566.4,3.6z"></path> <path class="st1" d="M576.3,2.6c0.1,0,0.2,0,0.4,0c0.1,0,0.2,0,0.4,0s0.2,0,0.3,0.1s0.2,0,0.2,0.1L577.4,4 c-0.2-0.1-0.5-0.1-0.7-0.1s-0.5,0-0.7,0c-0.6,0-1.1,0.1-1.4,0.4s-0.6,0.6-0.8,1.1v4.7h-1.3V2.7h1.2l0.1,1.2c0.3-0.4,0.7-0.7,1.1-1 S575.8,2.6,576.3,2.6z"></path> <path class="st1" d="M579.8,2.7h3.8V9h2.4v1.1h-6.2V9h2.5V3.8h-2.5V2.7z M582.1,0.8c0-0.2,0.1-0.4,0.2-0.5s0.3-0.2,0.6-0.2 c0.2,0,0.4,0.1,0.6,0.2c0.1,0.1,0.2,0.3,0.2,0.5c0,0.2-0.1,0.4-0.2,0.5c-0.1,0.1-0.3,0.2-0.6,0.2c-0.3,0-0.4-0.1-0.6-0.2 S582.1,1,582.1,0.8z"></path> <path class="st1" d="M589.2,9.1h4.7v1h-6.3V9.2l4.4-5.4h-4.4v-1h6v0.9L589.2,9.1z"></path> <path class="st1" d="M600.7,10.1c0-0.1-0.1-0.2-0.1-0.4c0-0.1-0.1-0.3-0.1-0.4c-0.1,0.1-0.3,0.2-0.4,0.4c-0.2,0.1-0.3,0.2-0.5,0.3 c-0.2,0.1-0.4,0.2-0.6,0.2s-0.4,0.1-0.7,0.1c-0.4,0-0.7-0.1-1.1-0.2c-0.3-0.1-0.6-0.3-0.8-0.5c-0.2-0.2-0.4-0.4-0.5-0.7 c-0.1-0.3-0.2-0.6-0.2-0.9c0-0.4,0.1-0.8,0.2-1.1c0.2-0.3,0.4-0.6,0.7-0.8s0.7-0.4,1.1-0.5c0.4-0.1,0.9-0.2,1.4-0.2h1.4V5.1 c0-0.2,0-0.4-0.1-0.6S600.1,4.1,600,4s-0.3-0.2-0.6-0.3c-0.2-0.1-0.5-0.1-0.7-0.1c-0.3,0-0.5,0-0.7,0.1c-0.2,0.1-0.4,0.1-0.5,0.3 s-0.2,0.2-0.3,0.4c-0.1,0.1-0.1,0.3-0.1,0.4h-1.3c0-0.3,0.1-0.5,0.2-0.8c0.1-0.3,0.3-0.5,0.6-0.7c0.3-0.2,0.6-0.4,0.9-0.5 c0.4-0.1,0.8-0.2,1.2-0.2c0.4,0,0.8,0.1,1.2,0.2s0.7,0.3,0.9,0.5c0.3,0.2,0.5,0.5,0.6,0.8s0.2,0.7,0.2,1.1v3.4c0,0.2,0,0.5,0.1,0.8 s0.1,0.5,0.2,0.7v0.1H600.7z M598.4,9.2c0.2,0,0.5,0,0.7-0.1s0.4-0.1,0.6-0.3c0.2-0.1,0.3-0.2,0.5-0.4s0.2-0.3,0.3-0.4V6.5h-1.2 c-0.7,0-1.3,0.1-1.7,0.3s-0.6,0.6-0.6,1c0,0.2,0,0.4,0.1,0.5c0.1,0.2,0.2,0.3,0.3,0.4s0.3,0.2,0.5,0.3S598.2,9.2,598.4,9.2z"></path> <path class="st1" d="M606.9,0.9v1.8h2.8v1h-2.8v4c0,0.3,0,0.5,0.1,0.7c0.1,0.2,0.2,0.3,0.3,0.4c0.1,0.1,0.3,0.2,0.4,0.2 s0.3,0.1,0.5,0.1c0.1,0,0.3,0,0.4,0c0.1,0,0.3,0,0.4-0.1s0.3,0,0.4-0.1s0.2,0,0.3-0.1l0.2,0.9c-0.1,0.1-0.2,0.1-0.4,0.2 s-0.3,0.1-0.5,0.1s-0.4,0.1-0.6,0.1s-0.4,0-0.6,0c-0.3,0-0.6,0-0.9-0.1s-0.5-0.2-0.7-0.4c-0.2-0.2-0.4-0.5-0.5-0.8 s-0.2-0.7-0.2-1.2v-4h-1.9v-1h1.9V0.9H606.9z"></path> <path class="st1" d="M612.3,2.7h3.8V9h2.4v1.1h-6.2V9h2.5V3.8h-2.5V2.7z M614.6,0.8c0-0.2,0.1-0.4,0.2-0.5s0.3-0.2,0.6-0.2 c0.3,0,0.4,0.1,0.6,0.2c0.1,0.1,0.2,0.3,0.2,0.5c0,0.2-0.1,0.4-0.2,0.5c-0.1,0.1-0.3,0.2-0.6,0.2c-0.3,0-0.4-0.1-0.6-0.2 S614.6,1,614.6,0.8z"></path> <path class="st1" d="M619.8,6.4c0-0.5,0.1-1,0.2-1.5s0.4-0.9,0.7-1.2c0.3-0.3,0.6-0.6,1.1-0.8s0.9-0.3,1.4-0.3c0.5,0,1,0.1,1.4,0.3 c0.4,0.2,0.8,0.5,1.1,0.8c0.3,0.3,0.5,0.7,0.7,1.2s0.2,1,0.2,1.5v0.2c0,0.5-0.1,1-0.2,1.5s-0.4,0.9-0.7,1.2 c-0.3,0.3-0.6,0.6-1.1,0.8s-0.9,0.3-1.4,0.3c-0.5,0-1-0.1-1.4-0.3c-0.4-0.2-0.8-0.5-1.1-0.8c-0.3-0.3-0.5-0.7-0.7-1.2 s-0.2-1-0.2-1.5V6.4z M621.1,6.5c0,0.4,0,0.7,0.1,1s0.2,0.6,0.4,0.9c0.2,0.3,0.4,0.4,0.7,0.6s0.6,0.2,0.9,0.2 c0.3,0,0.7-0.1,0.9-0.2c0.3-0.1,0.5-0.3,0.7-0.6c0.2-0.3,0.3-0.5,0.4-0.9s0.1-0.7,0.1-1V6.4c0-0.4,0-0.7-0.1-1 c-0.1-0.3-0.2-0.6-0.4-0.9c-0.2-0.3-0.4-0.5-0.7-0.6c-0.3-0.1-0.6-0.2-0.9-0.2s-0.7,0.1-0.9,0.2s-0.5,0.3-0.7,0.6 c-0.2,0.3-0.3,0.5-0.4,0.9s-0.1,0.7-0.1,1V6.5z"></path> <path class="st1" d="M629.4,2.7l0.1,1.1c0.3-0.4,0.6-0.7,1-0.9s0.8-0.3,1.3-0.3c0.4,0,0.7,0.1,1.1,0.2c0.3,0.1,0.6,0.3,0.8,0.5 s0.4,0.5,0.5,0.9c0.1,0.4,0.2,0.8,0.2,1.3v4.7h-1.3V5.5c0-0.3,0-0.6-0.1-0.8s-0.2-0.4-0.3-0.6c-0.1-0.1-0.3-0.2-0.5-0.3 c-0.2-0.1-0.4-0.1-0.7-0.1c-0.4,0-0.8,0.1-1.1,0.3c-0.3,0.2-0.6,0.5-0.8,0.8v5.3h-1.3V2.7H629.4z"></path> <path class="st1" d="M433.6,27.8l0.4-4.3h4.4v1.1h-3.5l-0.2,2.3c0.2-0.1,0.4-0.2,0.6-0.3s0.5-0.1,0.8-0.1c0.4,0,0.7,0.1,1.1,0.2 s0.6,0.3,0.8,0.6s0.4,0.5,0.5,0.9s0.2,0.7,0.2,1.2c0,0.4-0.1,0.8-0.2,1.1s-0.3,0.6-0.5,0.9s-0.5,0.4-0.8,0.6s-0.7,0.2-1.2,0.2 c-0.3,0-0.7,0-1-0.1s-0.6-0.2-0.8-0.4s-0.4-0.4-0.6-0.7s-0.3-0.6-0.3-1h1c0.1,0.5,0.2,0.9,0.5,1.1s0.7,0.4,1.1,0.4 c0.3,0,0.5,0,0.7-0.1s0.4-0.2,0.5-0.4s0.2-0.4,0.3-0.6s0.1-0.5,0.1-0.8c0-0.3,0-0.5-0.1-0.7s-0.2-0.4-0.3-0.6s-0.3-0.3-0.5-0.4 s-0.5-0.1-0.7-0.1c-0.2,0-0.3,0-0.5,0s-0.2,0.1-0.4,0.1s-0.2,0.1-0.3,0.2s-0.2,0.1-0.3,0.2L433.6,27.8z"></path> <path class="st1" d="M444.2,23.6v1h-0.1c-0.4,0-0.7,0-1,0.1s-0.5,0.2-0.7,0.3s-0.4,0.3-0.6,0.5s-0.3,0.4-0.4,0.6s-0.2,0.4-0.2,0.7 s-0.1,0.5-0.1,0.7c0.1-0.1,0.2-0.2,0.4-0.3s0.3-0.2,0.4-0.3s0.3-0.1,0.5-0.2s0.4-0.1,0.6-0.1c0.4,0,0.8,0.1,1.1,0.2 s0.6,0.4,0.8,0.6s0.3,0.6,0.4,0.9s0.1,0.7,0.1,1c0,0.4-0.1,0.8-0.2,1.1s-0.3,0.7-0.5,0.9s-0.5,0.5-0.8,0.6s-0.7,0.2-1.1,0.2 c-0.3,0-0.6,0-0.8-0.1s-0.5-0.2-0.7-0.4s-0.4-0.3-0.5-0.5s-0.3-0.4-0.4-0.7s-0.2-0.5-0.2-0.8S440,29.2,440,29v-0.5 c0-0.4,0-0.8,0.1-1.2s0.1-0.8,0.2-1.1s0.3-0.7,0.5-1s0.5-0.6,0.8-0.8s0.7-0.4,1.1-0.5S443.5,23.6,444.2,23.6L444.2,23.6z M442.8,27.4c-0.2,0-0.4,0-0.5,0.1s-0.3,0.1-0.5,0.2s-0.3,0.2-0.4,0.4s-0.2,0.3-0.3,0.5V29c0,0.4,0,0.7,0.1,1s0.2,0.5,0.4,0.7 s0.3,0.4,0.5,0.5s0.4,0.2,0.6,0.2c0.3,0,0.5,0,0.7-0.1s0.4-0.2,0.5-0.4s0.2-0.4,0.3-0.6s0.1-0.5,0.1-0.8c0-0.2,0-0.5-0.1-0.7 s-0.2-0.4-0.3-0.6s-0.3-0.3-0.5-0.4S443,27.4,442.8,27.4z"></path> <path class="st1" d="M454,32.1v-8.5h2c0.6,0,1.1,0.1,1.6,0.3s0.9,0.5,1.2,0.8s0.6,0.8,0.7,1.2s0.3,1,0.3,1.6v0.6 c0,0.6-0.1,1.1-0.3,1.6s-0.4,0.9-0.7,1.2s-0.7,0.6-1.2,0.8s-1,0.3-1.6,0.3H454z M455.1,24.5v6.8h0.9c0.5,0,0.9-0.1,1.2-0.2 s0.6-0.4,0.8-0.6s0.4-0.6,0.5-1s0.2-0.8,0.2-1.2v-0.6c0-0.4-0.1-0.8-0.2-1.2s-0.3-0.7-0.5-1s-0.5-0.5-0.8-0.6s-0.7-0.2-1.2-0.2 H455.1z"></path> <path class="st1" d="M465.2,32.1c0-0.1-0.1-0.2-0.1-0.3s0-0.3-0.1-0.4c-0.1,0.1-0.2,0.2-0.4,0.3s-0.3,0.2-0.4,0.3s-0.3,0.1-0.5,0.2 s-0.4,0.1-0.6,0.1c-0.3,0-0.6,0-0.9-0.1s-0.5-0.2-0.7-0.4s-0.3-0.4-0.4-0.6s-0.2-0.5-0.2-0.7c0-0.3,0.1-0.7,0.2-0.9 s0.3-0.5,0.6-0.7s0.6-0.3,0.9-0.4s0.8-0.1,1.2-0.1h1.2v-0.5c0-0.2,0-0.4-0.1-0.5s-0.2-0.3-0.3-0.4s-0.3-0.2-0.5-0.2 s-0.4-0.1-0.6-0.1c-0.2,0-0.4,0-0.6,0.1s-0.3,0.1-0.4,0.2s-0.2,0.2-0.3,0.3s-0.1,0.3-0.1,0.4h-1.1c0-0.2,0.1-0.5,0.2-0.7 s0.3-0.4,0.5-0.6s0.5-0.3,0.8-0.4s0.7-0.2,1.1-0.2c0.4,0,0.7,0,1,0.1s0.6,0.2,0.8,0.4s0.4,0.4,0.5,0.7s0.2,0.6,0.2,0.9v2.9 c0,0.2,0,0.4,0.1,0.7s0.1,0.4,0.2,0.6v0.1H465.2z M463.3,31.3c0.2,0,0.4,0,0.6-0.1s0.3-0.1,0.5-0.2s0.3-0.2,0.4-0.3 s0.2-0.2,0.3-0.4V29h-1c-0.6,0-1.1,0.1-1.5,0.3s-0.5,0.5-0.5,0.9c0,0.2,0,0.3,0.1,0.4s0.1,0.2,0.2,0.3s0.2,0.2,0.4,0.2 S463.1,31.3,463.3,31.3z"></path> <path class="st1" d="M470.4,29.9l0.3,0.8l1.9-4.9h1.2l-3.2,7.3c-0.1,0.2-0.2,0.3-0.3,0.5s-0.3,0.4-0.4,0.5s-0.4,0.3-0.6,0.4 s-0.5,0.2-0.8,0.2c-0.1,0-0.1,0-0.2,0s-0.1,0-0.2,0s-0.1,0-0.2,0s-0.1,0-0.1,0l0.2-0.9c0,0,0.1,0,0.1,0s0.1,0,0.1,0s0.1,0,0.1,0 s0.1,0,0.1,0c0.1,0,0.3,0,0.4-0.1s0.2-0.2,0.3-0.3s0.2-0.2,0.2-0.4s0.1-0.2,0.2-0.3l0.4-0.8l-2.7-6h1.2L470.4,29.9z"></path> <path class="st1" d="M479.2,30.4c0-0.1,0-0.2-0.1-0.3s-0.1-0.2-0.3-0.3s-0.3-0.2-0.5-0.2s-0.4-0.1-0.7-0.2c-0.4-0.1-0.7-0.2-1-0.3 s-0.6-0.2-0.8-0.4s-0.4-0.3-0.5-0.5s-0.2-0.4-0.2-0.7c0-0.3,0.1-0.5,0.2-0.7s0.3-0.4,0.5-0.6s0.5-0.3,0.8-0.4s0.6-0.1,1-0.1 c0.4,0,0.7,0.1,1.1,0.2s0.6,0.2,0.8,0.4s0.4,0.4,0.5,0.6s0.2,0.5,0.2,0.8h-1.1c0-0.1,0-0.3-0.1-0.4s-0.2-0.2-0.3-0.3 s-0.3-0.2-0.5-0.2s-0.4-0.1-0.6-0.1c-0.2,0-0.4,0-0.6,0.1s-0.3,0.1-0.4,0.2s-0.2,0.2-0.3,0.3s-0.1,0.2-0.1,0.4c0,0.1,0,0.2,0.1,0.3 s0.1,0.2,0.2,0.3s0.3,0.1,0.5,0.2s0.4,0.1,0.7,0.2c0.4,0.1,0.7,0.2,1,0.3s0.6,0.2,0.8,0.4s0.4,0.3,0.5,0.5s0.2,0.4,0.2,0.7 c0,0.3-0.1,0.5-0.2,0.8s-0.3,0.4-0.5,0.6s-0.5,0.3-0.8,0.4s-0.7,0.1-1,0.1c-0.4,0-0.8-0.1-1.1-0.2s-0.6-0.3-0.9-0.5 s-0.4-0.4-0.5-0.7s-0.2-0.5-0.2-0.8h1.1c0,0.2,0.1,0.4,0.2,0.6s0.2,0.3,0.4,0.4s0.3,0.2,0.5,0.2s0.4,0.1,0.6,0.1 c0.5,0,0.8-0.1,1.1-0.3S479.2,30.7,479.2,30.4z"></path> <path class="st1" d="M490,28.7c0-0.6,0-1.1,0.1-1.6s0.2-0.9,0.4-1.4s0.3-0.8,0.5-1.2s0.4-0.7,0.6-0.9s0.4-0.5,0.6-0.7 s0.4-0.3,0.6-0.5l0.2,0.7c-0.2,0.2-0.5,0.4-0.7,0.8s-0.5,0.7-0.6,1.2s-0.3,1-0.5,1.6s-0.2,1.2-0.2,2v0.1c0,0.7,0.1,1.4,0.2,2 s0.3,1.1,0.5,1.6s0.4,0.8,0.6,1.2s0.5,0.6,0.7,0.8l-0.2,0.7c-0.2-0.1-0.4-0.3-0.6-0.4s-0.4-0.4-0.6-0.7s-0.4-0.6-0.6-0.9 s-0.4-0.7-0.5-1.1s-0.3-0.9-0.4-1.4S490,29.3,490,28.7L490,28.7z"></path> <path class="st1" d="M500.3,29.3h1.2v0.9h-1.2v2h-1.1v-2h-3.9v-0.6l3.8-5.9h1.2V29.3z M496.5,29.3h2.7V25l-0.2,0.3L496.5,29.3z"></path> <path class="st1" d="M506.3,32.1h-1.1V25l-2.2,0.8v-1l3.2-1.2h0.1V32.1z"></path> <path class="st1" d="M522.3,28.4c0,0.3,0,0.6-0.1,0.9s-0.1,0.6-0.2,0.9s-0.2,0.6-0.4,0.8s-0.3,0.5-0.6,0.7s-0.5,0.3-0.8,0.4 s-0.6,0.2-1,0.2s-0.7-0.1-1-0.2s-0.5-0.3-0.8-0.4s-0.4-0.4-0.6-0.7s-0.3-0.5-0.4-0.8s-0.2-0.6-0.2-0.9s-0.1-0.6-0.1-0.9v-1 c0-0.3,0-0.6,0.1-0.9s0.1-0.6,0.2-0.9s0.2-0.6,0.4-0.8s0.3-0.5,0.6-0.7s0.5-0.3,0.8-0.4s0.6-0.2,1-0.2s0.7,0.1,1,0.2 s0.5,0.3,0.8,0.4s0.4,0.4,0.6,0.7s0.3,0.5,0.4,0.8s0.2,0.6,0.2,0.9s0.1,0.6,0.1,0.9V28.4z M521.2,27.4c0-0.2,0-0.4,0-0.6 s-0.1-0.4-0.1-0.7s-0.1-0.4-0.2-0.6s-0.2-0.4-0.4-0.5s-0.3-0.3-0.5-0.4s-0.4-0.1-0.7-0.1c-0.2,0-0.5,0-0.7,0.1s-0.4,0.2-0.5,0.4 s-0.3,0.3-0.4,0.5s-0.2,0.4-0.2,0.6s-0.1,0.4-0.1,0.7s0,0.4,0,0.6v1c0,0.2,0,0.4,0,0.6s0.1,0.4,0.1,0.7s0.1,0.4,0.2,0.6 s0.2,0.4,0.4,0.5s0.3,0.3,0.5,0.4s0.4,0.1,0.7,0.1s0.5,0,0.7-0.1s0.4-0.2,0.5-0.4s0.3-0.3,0.3-0.5s0.2-0.4,0.2-0.6s0.1-0.4,0.1-0.7 s0-0.4,0-0.6V27.4z"></path> <path class="st1" d="M527.9,25.7c0.1,0,0.2,0,0.3,0s0.2,0,0.3,0s0.2,0,0.3,0s0.2,0,0.2,0.1l-0.1,1.1c-0.2,0-0.4-0.1-0.6-0.1 s-0.4,0-0.6,0c-0.5,0-0.9,0.1-1.2,0.3s-0.5,0.6-0.7,1v4.1h-1.1v-6.3h1l0.1,1c0.3-0.3,0.6-0.6,0.9-0.8S527.4,25.7,527.9,25.7z"></path> <path class="st1" d="M536,29c0,0.5-0.1,0.9-0.2,1.3s-0.3,0.7-0.5,1s-0.5,0.5-0.8,0.7s-0.7,0.2-1.1,0.2c-0.4,0-0.8-0.1-1.1-0.2 s-0.6-0.4-0.8-0.6l-0.1,0.7h-1v-9h1.1v3.3c0.2-0.3,0.5-0.5,0.8-0.6s0.6-0.2,1-0.2c0.4,0,0.8,0.1,1.1,0.2s0.6,0.4,0.8,0.7 s0.4,0.6,0.5,1s0.2,0.8,0.2,1.3V29z M535,28.9c0-0.3,0-0.6-0.1-0.9s-0.2-0.5-0.3-0.7s-0.3-0.4-0.5-0.5s-0.5-0.2-0.8-0.2 c-0.2,0-0.4,0-0.5,0.1s-0.3,0.1-0.4,0.2s-0.2,0.2-0.3,0.3s-0.2,0.2-0.2,0.4v2.8c0.1,0.1,0.2,0.3,0.2,0.4s0.2,0.2,0.3,0.3 s0.3,0.2,0.4,0.2s0.3,0.1,0.5,0.1c0.3,0,0.6-0.1,0.8-0.2s0.4-0.3,0.5-0.5s0.2-0.5,0.3-0.7s0.1-0.6,0.1-0.9V28.9z"></path> <path class="st1" d="M537.8,25.8h3.2v5.4h2.1v0.9h-5.3v-0.9h2.2v-4.5h-2.2V25.8z M539.8,24.1c0-0.2,0.1-0.3,0.2-0.5 s0.3-0.2,0.5-0.2c0.2,0,0.4,0.1,0.5,0.2s0.2,0.3,0.2,0.5c0,0.2-0.1,0.3-0.2,0.4s-0.3,0.2-0.5,0.2c-0.2,0-0.4-0.1-0.5-0.2 S539.8,24.3,539.8,24.1z"></path> <path class="st1" d="M547.2,24.3v1.5h2.4v0.8h-2.4v3.4c0,0.2,0,0.4,0.1,0.6s0.1,0.3,0.3,0.4s0.2,0.2,0.4,0.2s0.3,0.1,0.5,0.1 c0.1,0,0.2,0,0.4,0s0.2,0,0.4,0s0.2,0,0.3-0.1s0.2,0,0.3-0.1l0.2,0.8c-0.1,0.1-0.2,0.1-0.3,0.1s-0.3,0.1-0.4,0.1s-0.3,0.1-0.5,0.1 s-0.3,0-0.5,0c-0.3,0-0.5,0-0.8-0.1s-0.5-0.2-0.6-0.4s-0.3-0.4-0.4-0.7s-0.2-0.6-0.2-1v-3.4h-1.7v-0.8h1.7v-1.5H547.2z"></path> <path class="st1" d="M555.8,30.4c0-0.1,0-0.2-0.1-0.3s-0.1-0.2-0.3-0.3s-0.3-0.2-0.5-0.2s-0.4-0.1-0.7-0.2c-0.4-0.1-0.7-0.2-1-0.3 s-0.6-0.2-0.8-0.4s-0.4-0.3-0.5-0.5s-0.2-0.4-0.2-0.7c0-0.3,0.1-0.5,0.2-0.7s0.3-0.4,0.5-0.6s0.5-0.3,0.8-0.4s0.6-0.1,1-0.1 c0.4,0,0.7,0.1,1.1,0.2s0.6,0.2,0.8,0.4s0.4,0.4,0.5,0.6s0.2,0.5,0.2,0.8h-1.1c0-0.1,0-0.3-0.1-0.4s-0.2-0.2-0.3-0.3 s-0.3-0.2-0.5-0.2s-0.4-0.1-0.6-0.1c-0.2,0-0.4,0-0.6,0.1s-0.3,0.1-0.4,0.2s-0.2,0.2-0.3,0.3s-0.1,0.2-0.1,0.4c0,0.1,0,0.2,0.1,0.3 s0.1,0.2,0.2,0.3s0.3,0.1,0.5,0.2s0.4,0.1,0.7,0.2c0.4,0.1,0.7,0.2,1,0.3s0.6,0.2,0.8,0.4s0.4,0.3,0.5,0.5s0.2,0.4,0.2,0.7 c0,0.3-0.1,0.5-0.2,0.8s-0.3,0.4-0.5,0.6s-0.5,0.3-0.8,0.4s-0.7,0.1-1,0.1c-0.4,0-0.8-0.1-1.1-0.2s-0.6-0.3-0.9-0.5 s-0.4-0.4-0.5-0.7s-0.2-0.5-0.2-0.8h1.1c0,0.2,0.1,0.4,0.2,0.6s0.2,0.3,0.4,0.4s0.3,0.2,0.5,0.2s0.4,0.1,0.6,0.1 c0.5,0,0.8-0.1,1.1-0.3S555.8,30.7,555.8,30.4z"></path> <path class="st1" d="M562.5,28.7c0,0.6,0,1.1-0.1,1.6s-0.2,0.9-0.4,1.4s-0.3,0.8-0.5,1.1s-0.4,0.7-0.6,0.9s-0.4,0.5-0.6,0.7 s-0.4,0.3-0.6,0.4l-0.2-0.7c0.2-0.2,0.5-0.4,0.7-0.8s0.5-0.7,0.6-1.2s0.3-1,0.5-1.6s0.2-1.3,0.2-2v-0.1c0-0.7-0.1-1.4-0.2-2 s-0.3-1.1-0.5-1.6s-0.4-0.8-0.7-1.2s-0.5-0.6-0.7-0.8l0.2-0.7c0.2,0.1,0.4,0.3,0.6,0.5s0.4,0.4,0.6,0.7s0.4,0.6,0.6,0.9 s0.4,0.7,0.5,1.2s0.3,0.9,0.4,1.4S562.5,28.1,562.5,28.7L562.5,28.7z"></path> </g> <g> <path class="st0" d="M295.5,196c-0.3,0-0.6-0.1-0.8-0.4c-0.3-0.4-0.3-1.1,0.2-1.4l120.8-93c0.2-0.1,0.4-0.2,0.6-0.2h23.2 c0.6,0,1,0.4,1,1s-0.4,1-1,1h-22.9l-120.5,92.8C295.9,195.9,295.7,196,295.5,196z"></path> </g> <g> <path class="st1" d="M456.9,96.7c0,0.4,0,0.7-0.1,1.1s-0.1,0.7-0.3,1c-0.1,0.3-0.3,0.7-0.5,0.9s-0.4,0.5-0.7,0.8 c-0.3,0.2-0.5,0.4-0.9,0.5s-0.7,0.2-1.1,0.2s-0.8-0.1-1.1-0.2s-0.6-0.3-0.9-0.5c-0.3-0.2-0.5-0.5-0.7-0.8c-0.2-0.3-0.3-0.6-0.5-0.9 s-0.2-0.7-0.3-1c-0.1-0.4-0.1-0.7-0.1-1.1v-1.1c0-0.4,0-0.7,0.1-1.1s0.1-0.7,0.3-1s0.3-0.7,0.5-0.9s0.4-0.6,0.7-0.8 c0.3-0.2,0.5-0.4,0.9-0.5s0.7-0.2,1.1-0.2s0.8,0.1,1.1,0.2c0.3,0.1,0.6,0.3,0.9,0.5c0.3,0.2,0.5,0.5,0.7,0.8s0.3,0.6,0.5,0.9 s0.2,0.7,0.3,1.1s0.1,0.7,0.1,1.1V96.7z M455.6,95.6c0-0.2,0-0.5,0-0.7s-0.1-0.5-0.1-0.8s-0.2-0.5-0.3-0.7s-0.2-0.4-0.4-0.6 s-0.4-0.3-0.6-0.4c-0.2-0.1-0.5-0.2-0.8-0.2c-0.3,0-0.5,0.1-0.8,0.2c-0.2,0.1-0.4,0.2-0.6,0.4s-0.3,0.4-0.4,0.6s-0.2,0.5-0.3,0.7 s-0.1,0.5-0.1,0.8s0,0.5-0.1,0.7v1.1c0,0.2,0,0.5,0.1,0.7s0.1,0.5,0.1,0.8s0.2,0.5,0.3,0.7s0.2,0.4,0.4,0.6s0.4,0.3,0.6,0.4 c0.2,0.1,0.5,0.2,0.8,0.2c0.3,0,0.6-0.1,0.8-0.2s0.4-0.2,0.6-0.4s0.3-0.4,0.4-0.6s0.2-0.5,0.3-0.7s0.1-0.5,0.1-0.8s0-0.5,0-0.7 V95.6z"></path> <path class="st1" d="M463.4,93.6c0.1,0,0.2,0,0.4,0s0.2,0,0.4,0c0.1,0,0.2,0,0.3,0.1c0.1,0,0.2,0,0.2,0.1l-0.2,1.2 c-0.2-0.1-0.5-0.1-0.7-0.1c-0.2,0-0.5,0-0.7,0c-0.6,0-1.1,0.1-1.4,0.4c-0.4,0.3-0.6,0.6-0.8,1.1v4.7h-1.3v-7.4h1.2l0.1,1.2 c0.3-0.4,0.7-0.7,1.1-1C462.3,93.7,462.8,93.6,463.4,93.6z"></path> <path class="st1" d="M472.9,97.5c0,0.5-0.1,1-0.2,1.5s-0.3,0.9-0.6,1.2s-0.6,0.6-0.9,0.8c-0.4,0.2-0.8,0.3-1.2,0.3 c-0.5,0-0.9-0.1-1.2-0.3c-0.3-0.2-0.6-0.4-0.9-0.7l-0.1,0.8h-1.2V90.6h1.3v3.9c0.2-0.3,0.5-0.5,0.9-0.7s0.7-0.2,1.2-0.2 c0.5,0,0.9,0.1,1.3,0.3s0.7,0.4,0.9,0.8s0.4,0.7,0.6,1.2s0.2,1,0.2,1.5V97.5z M471.6,97.4c0-0.4,0-0.7-0.1-1 c-0.1-0.3-0.2-0.6-0.3-0.9s-0.4-0.4-0.6-0.6s-0.6-0.2-0.9-0.2c-0.2,0-0.4,0-0.6,0.1s-0.3,0.1-0.5,0.2c-0.1,0.1-0.3,0.2-0.4,0.4 c-0.1,0.1-0.2,0.3-0.3,0.5V99c0.1,0.2,0.2,0.3,0.3,0.5c0.1,0.1,0.2,0.3,0.4,0.4s0.3,0.2,0.5,0.2s0.4,0.1,0.6,0.1 c0.3,0,0.6-0.1,0.9-0.2c0.2-0.1,0.5-0.3,0.6-0.6c0.2-0.2,0.3-0.5,0.3-0.9c0.1-0.3,0.1-0.7,0.1-1V97.4z"></path> <path class="st1" d="M474.9,93.7h3.8v6.3h2.4v1.1h-6.2V100h2.5v-5.2h-2.5V93.7z M477.3,91.8c0-0.2,0.1-0.4,0.2-0.5s0.3-0.2,0.6-0.2 c0.2,0,0.4,0.1,0.6,0.2c0.1,0.1,0.2,0.3,0.2,0.5c0,0.2-0.1,0.4-0.2,0.5c-0.1,0.1-0.3,0.2-0.6,0.2c-0.3,0-0.4-0.1-0.6-0.2 S477.3,92,477.3,91.8z"></path> <path class="st1" d="M485.9,91.9v1.8h2.8v1h-2.8v4c0,0.3,0,0.5,0.1,0.7c0.1,0.2,0.2,0.3,0.3,0.4c0.1,0.1,0.3,0.2,0.4,0.2 s0.3,0.1,0.5,0.1c0.1,0,0.3,0,0.4,0c0.1,0,0.3,0,0.4-0.1s0.3,0,0.4-0.1s0.2,0,0.3-0.1l0.2,0.9c-0.1,0.1-0.2,0.1-0.4,0.2 s-0.3,0.1-0.5,0.1s-0.4,0.1-0.6,0.1s-0.4,0-0.6,0c-0.3,0-0.6,0-0.9-0.1s-0.5-0.2-0.7-0.4c-0.2-0.2-0.4-0.5-0.5-0.8 s-0.2-0.7-0.2-1.2v-4h-1.9v-1h1.9v-1.8H485.9z"></path> <path class="st1" d="M499.1,101.1v-10h3c0.4,0,0.8,0.1,1.2,0.2s0.7,0.3,1,0.5s0.5,0.5,0.7,0.8s0.3,0.7,0.3,1.2c0,0.3,0,0.5-0.1,0.7 c-0.1,0.2-0.2,0.4-0.3,0.6c-0.1,0.2-0.3,0.3-0.5,0.4s-0.4,0.2-0.6,0.3c0.3,0.1,0.5,0.2,0.7,0.3c0.2,0.1,0.4,0.3,0.6,0.5 s0.3,0.4,0.4,0.7c0.1,0.3,0.1,0.5,0.1,0.8c0,0.5-0.1,0.9-0.3,1.2s-0.4,0.7-0.7,0.9s-0.7,0.4-1.1,0.6c-0.4,0.1-0.8,0.2-1.2,0.2 H499.1z M500.4,95.4h1.8c0.2,0,0.5,0,0.7-0.1s0.4-0.2,0.6-0.3s0.3-0.3,0.4-0.5s0.2-0.4,0.2-0.7c0-0.3-0.1-0.5-0.2-0.7 c-0.1-0.2-0.3-0.4-0.4-0.5c-0.2-0.1-0.4-0.2-0.6-0.3c-0.2-0.1-0.5-0.1-0.7-0.1h-1.7V95.4z M500.4,96.5v3.6h1.9c0.3,0,0.5,0,0.8-0.1 s0.4-0.2,0.6-0.4s0.3-0.3,0.4-0.6c0.1-0.2,0.2-0.5,0.2-0.7c0-0.3,0-0.5-0.1-0.8c-0.1-0.2-0.2-0.4-0.4-0.6s-0.4-0.3-0.6-0.4 s-0.5-0.1-0.8-0.1H500.4z"></path> <path class="st1" d="M509.8,94.3c0-0.1,0-0.3,0.1-0.4s0.1-0.2,0.2-0.3s0.2-0.2,0.3-0.2s0.3-0.1,0.4-0.1s0.3,0,0.4,0.1 s0.2,0.1,0.3,0.2s0.1,0.2,0.2,0.3s0.1,0.2,0.1,0.4c0,0.1,0,0.3-0.1,0.4s-0.1,0.2-0.2,0.3s-0.2,0.2-0.3,0.2s-0.3,0.1-0.4,0.1 s-0.3,0-0.4-0.1s-0.2-0.1-0.3-0.2s-0.1-0.2-0.2-0.3S509.8,94.4,509.8,94.3z M509.8,100.3c0-0.1,0-0.3,0.1-0.4s0.1-0.2,0.2-0.3 s0.2-0.2,0.3-0.2s0.3-0.1,0.4-0.1s0.3,0,0.4,0.1s0.2,0.1,0.3,0.2s0.1,0.2,0.2,0.3s0.1,0.2,0.1,0.4c0,0.1,0,0.3-0.1,0.4 s-0.1,0.2-0.2,0.3s-0.2,0.2-0.3,0.2s-0.3,0.1-0.4,0.1s-0.3,0-0.4-0.1s-0.2-0.1-0.3-0.2s-0.1-0.2-0.2-0.3S509.8,100.4,509.8,100.3z"></path> <path class="st1" d="M530.2,92.3h-3.1v8.9h-1.2v-8.9h-3.1v-1.1h7.4V92.3z"></path> <path class="st1" d="M531.2,97.4c0-0.5,0.1-1,0.2-1.5c0.2-0.5,0.4-0.9,0.7-1.2s0.6-0.6,1.1-0.8c0.4-0.2,0.9-0.3,1.4-0.3 c0.5,0,1,0.1,1.4,0.3s0.8,0.5,1.1,0.8s0.5,0.7,0.7,1.2c0.2,0.5,0.2,1,0.2,1.5v0.2c0,0.5-0.1,1-0.2,1.5c-0.2,0.5-0.4,0.9-0.7,1.2 s-0.6,0.6-1.1,0.8c-0.4,0.2-0.9,0.3-1.4,0.3c-0.5,0-1-0.1-1.4-0.3s-0.8-0.5-1.1-0.8s-0.5-0.7-0.7-1.2c-0.2-0.5-0.2-1-0.2-1.5V97.4z M532.5,97.5c0,0.4,0,0.7,0.1,1c0.1,0.3,0.2,0.6,0.4,0.9s0.4,0.4,0.7,0.6c0.3,0.1,0.6,0.2,0.9,0.2c0.3,0,0.7-0.1,0.9-0.2 s0.5-0.3,0.7-0.6s0.3-0.5,0.4-0.9c0.1-0.3,0.1-0.7,0.1-1v-0.2c0-0.4,0-0.7-0.1-1s-0.2-0.6-0.4-0.9s-0.4-0.5-0.7-0.6 s-0.6-0.2-0.9-0.2c-0.4,0-0.7,0.1-0.9,0.2s-0.5,0.3-0.7,0.6s-0.3,0.5-0.4,0.9c-0.1,0.3-0.1,0.7-0.1,1V97.5z"></path> <path class="st1" d="M546,97.5c0,0.5-0.1,1-0.2,1.5c-0.1,0.5-0.3,0.9-0.6,1.2s-0.5,0.6-0.9,0.8s-0.8,0.3-1.2,0.3 c-0.5,0-0.8-0.1-1.2-0.2s-0.6-0.4-0.9-0.6v3.6h-1.3V93.7h1.2l0.1,0.8c0.2-0.3,0.5-0.5,0.9-0.7s0.8-0.2,1.2-0.2 c0.5,0,0.9,0.1,1.3,0.3c0.4,0.2,0.7,0.4,0.9,0.8s0.4,0.7,0.6,1.2c0.1,0.5,0.2,1,0.2,1.5V97.5z M544.7,97.4c0-0.4,0-0.7-0.1-1 s-0.2-0.6-0.4-0.9s-0.4-0.4-0.6-0.6c-0.3-0.1-0.6-0.2-0.9-0.2c-0.4,0-0.7,0.1-1,0.3s-0.5,0.4-0.7,0.7v3.6c0.2,0.3,0.4,0.5,0.7,0.7 s0.6,0.3,1,0.3c0.4,0,0.7-0.1,0.9-0.2c0.3-0.1,0.5-0.3,0.6-0.6s0.3-0.5,0.4-0.9s0.1-0.7,0.1-1V97.4z"></path> <path class="st1" d="M547.5,97.4c0-0.5,0.1-1,0.2-1.5s0.4-0.9,0.7-1.2c0.3-0.3,0.6-0.6,1.1-0.8s0.9-0.3,1.4-0.3 c0.5,0,1,0.1,1.4,0.3c0.4,0.2,0.8,0.5,1.1,0.8c0.3,0.3,0.5,0.7,0.7,1.2s0.2,1,0.2,1.5v0.2c0,0.5-0.1,1-0.2,1.5s-0.4,0.9-0.7,1.2 c-0.3,0.3-0.6,0.6-1.1,0.8s-0.9,0.3-1.4,0.3c-0.5,0-1-0.1-1.4-0.3c-0.4-0.2-0.8-0.5-1.1-0.8c-0.3-0.3-0.5-0.7-0.7-1.2 s-0.2-1-0.2-1.5V97.4z M548.7,97.5c0,0.4,0,0.7,0.1,1s0.2,0.6,0.4,0.9c0.2,0.3,0.4,0.4,0.7,0.6s0.6,0.2,0.9,0.2 c0.3,0,0.7-0.1,0.9-0.2c0.3-0.1,0.5-0.3,0.7-0.6c0.2-0.3,0.3-0.5,0.4-0.9s0.1-0.7,0.1-1v-0.2c0-0.4,0-0.7-0.1-1 c-0.1-0.3-0.2-0.6-0.4-0.9c-0.2-0.3-0.4-0.5-0.7-0.6c-0.3-0.1-0.6-0.2-0.9-0.2s-0.7,0.1-0.9,0.2s-0.5,0.3-0.7,0.6 c-0.2,0.3-0.3,0.5-0.4,0.9s-0.1,0.7-0.1,1V97.5z"></path> <path class="st1" d="M555.7,97.4c0-0.6,0.1-1.1,0.2-1.5c0.1-0.5,0.3-0.9,0.6-1.2s0.6-0.6,0.9-0.8s0.8-0.3,1.2-0.3 c0.5,0,0.9,0.1,1.2,0.2c0.3,0.2,0.6,0.4,0.9,0.7l0.1-0.8h1.1v7.2c0,0.5-0.1,0.9-0.2,1.3c-0.2,0.4-0.4,0.7-0.6,1 c-0.3,0.3-0.6,0.5-1,0.6s-0.8,0.2-1.3,0.2c-0.2,0-0.4,0-0.7-0.1s-0.5-0.1-0.7-0.2c-0.3-0.1-0.5-0.2-0.7-0.4 c-0.2-0.2-0.4-0.4-0.6-0.6l0.7-0.8c0.2,0.2,0.3,0.3,0.5,0.5s0.3,0.2,0.5,0.3s0.3,0.1,0.5,0.2s0.3,0.1,0.5,0.1c0.3,0,0.6,0,0.8-0.1 s0.4-0.2,0.6-0.4c0.2-0.2,0.3-0.4,0.4-0.6s0.1-0.5,0.1-0.8v-0.6c-0.2,0.3-0.5,0.5-0.9,0.6c-0.3,0.1-0.7,0.2-1.2,0.2 c-0.5,0-0.9-0.1-1.2-0.3s-0.7-0.5-0.9-0.8c-0.3-0.3-0.4-0.7-0.6-1.2s-0.2-1-0.2-1.5V97.4z M557,97.5c0,0.4,0,0.7,0.1,1 c0.1,0.3,0.2,0.6,0.4,0.9c0.2,0.2,0.4,0.4,0.6,0.6s0.6,0.2,0.9,0.2c0.2,0,0.4,0,0.6-0.1c0.2-0.1,0.3-0.1,0.5-0.2 c0.1-0.1,0.3-0.2,0.4-0.3s0.2-0.3,0.3-0.4v-3.4c-0.1-0.2-0.2-0.3-0.3-0.4s-0.2-0.2-0.4-0.3s-0.3-0.2-0.5-0.2s-0.4-0.1-0.6-0.1 c-0.4,0-0.7,0.1-0.9,0.2c-0.3,0.1-0.5,0.3-0.6,0.6c-0.2,0.2-0.3,0.5-0.4,0.9c-0.1,0.3-0.1,0.7-0.1,1V97.5z"></path> <path class="st1" d="M568.9,93.6c0.1,0,0.2,0,0.4,0c0.1,0,0.2,0,0.4,0s0.2,0,0.3,0.1s0.2,0,0.2,0.1l-0.2,1.2 c-0.2-0.1-0.5-0.1-0.7-0.1s-0.5,0-0.7,0c-0.6,0-1.1,0.1-1.4,0.4s-0.6,0.6-0.8,1.1v4.7h-1.3v-7.4h1.2l0.1,1.2c0.3-0.4,0.7-0.7,1.1-1 S568.4,93.6,568.9,93.6z"></path> <path class="st1" d="M577.1,101.1c-0.1-0.1-0.1-0.2-0.1-0.4s-0.1-0.3-0.1-0.4c-0.1,0.1-0.3,0.2-0.4,0.4s-0.3,0.2-0.5,0.3 s-0.4,0.2-0.6,0.2c-0.2,0.1-0.4,0.1-0.7,0.1c-0.4,0-0.7-0.1-1.1-0.2s-0.6-0.3-0.8-0.5s-0.4-0.4-0.5-0.7s-0.2-0.6-0.2-0.9 c0-0.4,0.1-0.8,0.2-1.1s0.4-0.6,0.7-0.8c0.3-0.2,0.7-0.4,1.1-0.5s0.9-0.2,1.4-0.2h1.4v-0.6c0-0.2,0-0.4-0.1-0.6s-0.2-0.3-0.3-0.5 s-0.3-0.2-0.5-0.3s-0.5-0.1-0.7-0.1c-0.3,0-0.5,0-0.7,0.1s-0.4,0.1-0.5,0.3s-0.2,0.2-0.3,0.4s-0.1,0.3-0.1,0.4h-1.3 c0-0.3,0.1-0.5,0.2-0.8s0.3-0.5,0.6-0.7s0.6-0.4,0.9-0.5s0.8-0.2,1.2-0.2c0.4,0,0.8,0.1,1.2,0.2c0.4,0.1,0.7,0.3,0.9,0.5 s0.5,0.5,0.6,0.8s0.2,0.7,0.2,1.1v3.4c0,0.2,0,0.5,0.1,0.8c0,0.3,0.1,0.5,0.2,0.7v0.1H577.1z M574.8,100.2c0.2,0,0.5,0,0.7-0.1 c0.2-0.1,0.4-0.1,0.6-0.3s0.3-0.2,0.5-0.4c0.1-0.1,0.2-0.3,0.3-0.4v-1.5h-1.2c-0.7,0-1.3,0.1-1.7,0.3s-0.6,0.6-0.6,1 c0,0.2,0,0.4,0.1,0.5s0.2,0.3,0.3,0.4s0.3,0.2,0.5,0.3C574.4,100.1,574.6,100.2,574.8,100.2z"></path> <path class="st1" d="M586.6,97.5c0,0.5-0.1,1-0.2,1.5s-0.3,0.9-0.6,1.2s-0.6,0.6-0.9,0.8c-0.4,0.2-0.8,0.3-1.2,0.3 c-0.5,0-0.8-0.1-1.2-0.2c-0.3-0.1-0.6-0.4-0.9-0.6v3.6h-1.3V93.7h1.2l0.1,0.8c0.2-0.3,0.5-0.5,0.9-0.7c0.3-0.2,0.8-0.2,1.2-0.2 c0.5,0,0.9,0.1,1.3,0.3s0.7,0.4,0.9,0.8s0.4,0.7,0.6,1.2s0.2,1,0.2,1.5V97.5z M585.3,97.4c0-0.4,0-0.7-0.1-1 c-0.1-0.3-0.2-0.6-0.4-0.9c-0.2-0.2-0.4-0.4-0.6-0.6s-0.6-0.2-0.9-0.2c-0.4,0-0.7,0.1-1,0.3c-0.3,0.2-0.5,0.4-0.7,0.7v3.6 c0.2,0.3,0.4,0.5,0.7,0.7s0.6,0.3,1,0.3c0.4,0,0.7-0.1,0.9-0.2s0.5-0.3,0.6-0.6s0.3-0.5,0.4-0.9c0.1-0.3,0.1-0.7,0.1-1V97.4z"></path> <path class="st1" d="M589.7,94.8c0.3-0.4,0.6-0.7,1-0.9c0.4-0.2,0.8-0.3,1.3-0.3c0.4,0,0.7,0.1,1.1,0.2s0.6,0.3,0.8,0.5 c0.2,0.2,0.4,0.5,0.5,0.9s0.2,0.8,0.2,1.3v4.7h-1.3v-4.7c0-0.6-0.1-1.1-0.4-1.4s-0.7-0.4-1.2-0.4c-0.4,0-0.8,0.1-1.1,0.3 s-0.6,0.5-0.8,0.8v5.4h-1.3V90.6h1.3V94.8z"></path> <path class="st1" d="M599.3,98.5l0.3,0.9l2.3-5.7h1.4l-3.8,8.5c-0.1,0.2-0.2,0.4-0.3,0.6s-0.3,0.4-0.5,0.6s-0.4,0.3-0.7,0.5 c-0.3,0.1-0.5,0.2-0.9,0.2c-0.1,0-0.1,0-0.2,0c-0.1,0-0.1,0-0.2,0c-0.1,0-0.1,0-0.2,0c-0.1,0-0.1,0-0.2,0l0.2-1c0,0,0.1,0,0.1,0 s0.1,0,0.2,0c0.1,0,0.1,0,0.2,0s0.1,0,0.1,0c0.2,0,0.3,0,0.5-0.1s0.3-0.2,0.4-0.3s0.2-0.3,0.3-0.4s0.1-0.3,0.2-0.3l0.5-1l-3.2-7 h1.4L599.3,98.5z"></path> <path class="st1" d="M455.5,116.8c0,0.4-0.1,0.8-0.3,1.1s-0.5,0.6-0.9,0.8c0.2,0.1,0.4,0.2,0.6,0.3s0.3,0.3,0.5,0.5 s0.2,0.4,0.3,0.6s0.1,0.4,0.1,0.7c0,0.4-0.1,0.7-0.2,1s-0.3,0.6-0.6,0.8s-0.5,0.4-0.9,0.5s-0.7,0.2-1.1,0.2c-0.4,0-0.7-0.1-1.1-0.2 s-0.6-0.3-0.9-0.5s-0.4-0.5-0.6-0.8s-0.2-0.6-0.2-1c0-0.2,0-0.5,0.1-0.7s0.2-0.4,0.3-0.6s0.3-0.3,0.5-0.5s0.4-0.3,0.6-0.4 c-0.2-0.1-0.4-0.2-0.5-0.3s-0.3-0.3-0.4-0.4s-0.2-0.3-0.2-0.5s-0.1-0.4-0.1-0.6c0-0.4,0.1-0.7,0.2-1s0.3-0.5,0.5-0.7 s0.5-0.4,0.8-0.5s0.6-0.2,1-0.2c0.4,0,0.7,0.1,1,0.2s0.6,0.3,0.8,0.5s0.4,0.4,0.5,0.7S455.5,116.4,455.5,116.8z M454.6,120.8 c0-0.2,0-0.5-0.1-0.7s-0.2-0.4-0.3-0.5s-0.3-0.3-0.5-0.3s-0.4-0.1-0.7-0.1c-0.2,0-0.5,0-0.7,0.1s-0.4,0.2-0.5,0.3s-0.2,0.3-0.3,0.5 s-0.1,0.4-0.1,0.7c0,0.2,0,0.5,0.1,0.7s0.2,0.4,0.3,0.5s0.3,0.2,0.5,0.3s0.4,0.1,0.7,0.1c0.2,0,0.5,0,0.7-0.1s0.4-0.2,0.5-0.3 s0.3-0.3,0.3-0.5S454.6,121,454.6,120.8z M454.4,116.8c0-0.2,0-0.4-0.1-0.6s-0.2-0.3-0.3-0.5s-0.3-0.2-0.5-0.3s-0.4-0.1-0.6-0.1 s-0.4,0-0.6,0.1s-0.3,0.2-0.4,0.3s-0.2,0.3-0.3,0.5s-0.1,0.4-0.1,0.6s0,0.4,0.1,0.6s0.2,0.3,0.3,0.5s0.3,0.2,0.5,0.3 s0.4,0.1,0.6,0.1c0.2,0,0.4,0,0.6-0.1s0.3-0.2,0.5-0.3s0.2-0.3,0.3-0.5S454.4,117.1,454.4,116.8z"></path> <path class="st1" d="M462.5,119.9c0,0.5-0.1,1-0.2,1.4s-0.3,0.8-0.5,1.1s-0.5,0.5-0.9,0.7s-0.7,0.2-1.2,0.2c-0.4,0-0.8-0.1-1.2-0.2 s-0.6-0.4-0.9-0.7s-0.4-0.6-0.5-1.1s-0.2-0.9-0.2-1.4v-2c0-0.5,0.1-1,0.2-1.4s0.3-0.8,0.5-1.1s0.5-0.5,0.9-0.7s0.7-0.2,1.2-0.2 c0.4,0,0.8,0.1,1.2,0.2s0.6,0.4,0.9,0.7s0.4,0.6,0.5,1.1s0.2,0.9,0.2,1.4V119.9z M458.1,119.6l3.3-2.5c-0.1-0.6-0.2-1-0.5-1.3 s-0.7-0.4-1.2-0.4c-0.6,0-1,0.2-1.3,0.6s-0.4,0.9-0.4,1.7V119.6z M461.4,118.1l-3.3,2.5c0.1,0.6,0.2,1,0.5,1.3s0.7,0.4,1.1,0.4 c0.6,0,1-0.2,1.3-0.6s0.4-1,0.4-1.7V118.1z"></path> <path class="st1" d="M471,123.1v-8.5h2c0.6,0,1.1,0.1,1.6,0.3s0.9,0.5,1.2,0.8s0.6,0.8,0.7,1.2s0.3,1,0.3,1.6v0.6 c0,0.6-0.1,1.1-0.3,1.6s-0.4,0.9-0.7,1.2s-0.7,0.6-1.2,0.8s-1,0.3-1.6,0.3H471z M472.1,115.5v6.8h0.9c0.5,0,0.9-0.1,1.2-0.2 s0.6-0.4,0.8-0.6s0.4-0.6,0.5-1s0.2-0.8,0.2-1.2v-0.6c0-0.4-0.1-0.8-0.2-1.2s-0.3-0.7-0.5-1s-0.5-0.5-0.8-0.6s-0.7-0.2-1.2-0.2 H472.1z"></path> <path class="st1" d="M482.2,123.1c0-0.1-0.1-0.2-0.1-0.3s0-0.3-0.1-0.4c-0.1,0.1-0.2,0.2-0.4,0.3s-0.3,0.2-0.4,0.3 s-0.3,0.1-0.5,0.2s-0.4,0.1-0.6,0.1c-0.3,0-0.6,0-0.9-0.1s-0.5-0.2-0.7-0.4s-0.3-0.4-0.4-0.6s-0.2-0.5-0.2-0.7 c0-0.3,0.1-0.7,0.2-0.9s0.3-0.5,0.6-0.7s0.6-0.3,0.9-0.4s0.8-0.1,1.2-0.1h1.2v-0.5c0-0.2,0-0.4-0.1-0.5s-0.2-0.3-0.3-0.4 s-0.3-0.2-0.5-0.2s-0.4-0.1-0.6-0.1c-0.2,0-0.4,0-0.6,0.1s-0.3,0.1-0.4,0.2s-0.2,0.2-0.3,0.3s-0.1,0.3-0.1,0.4h-1.1 c0-0.2,0.1-0.5,0.2-0.7s0.3-0.4,0.5-0.6s0.5-0.3,0.8-0.4s0.7-0.2,1.1-0.2c0.4,0,0.7,0,1,0.1s0.6,0.2,0.8,0.4s0.4,0.4,0.5,0.7 s0.2,0.6,0.2,0.9v2.9c0,0.2,0,0.4,0.1,0.7s0.1,0.4,0.2,0.6v0.1H482.2z M480.3,122.3c0.2,0,0.4,0,0.6-0.1s0.3-0.1,0.5-0.2 s0.3-0.2,0.4-0.3s0.2-0.2,0.3-0.4V120h-1c-0.6,0-1.1,0.1-1.5,0.3s-0.5,0.5-0.5,0.9c0,0.2,0,0.3,0.1,0.4s0.1,0.2,0.2,0.3 s0.2,0.2,0.4,0.2S480.1,122.3,480.3,122.3z"></path> <path class="st1" d="M487.4,120.9l0.3,0.8l1.9-4.9h1.2l-3.2,7.3c-0.1,0.2-0.2,0.3-0.3,0.5s-0.3,0.4-0.4,0.5s-0.4,0.3-0.6,0.4 s-0.5,0.2-0.8,0.2c-0.1,0-0.1,0-0.2,0s-0.1,0-0.2,0s-0.1,0-0.2,0s-0.1,0-0.1,0l0.2-0.9c0,0,0.1,0,0.1,0s0.1,0,0.1,0s0.1,0,0.1,0 s0.1,0,0.1,0c0.1,0,0.3,0,0.4-0.1s0.2-0.2,0.3-0.3s0.2-0.2,0.2-0.4s0.1-0.2,0.2-0.3l0.4-0.8l-2.7-6h1.2L487.4,120.9z"></path> <path class="st1" d="M496.2,121.4c0-0.1,0-0.2-0.1-0.3s-0.1-0.2-0.3-0.3s-0.3-0.2-0.5-0.2s-0.4-0.1-0.7-0.2c-0.4-0.1-0.7-0.2-1-0.3 s-0.6-0.2-0.8-0.4s-0.4-0.3-0.5-0.5s-0.2-0.4-0.2-0.7c0-0.3,0.1-0.5,0.2-0.7s0.3-0.4,0.5-0.6s0.5-0.3,0.8-0.4s0.6-0.1,1-0.1 c0.4,0,0.7,0.1,1.1,0.2s0.6,0.2,0.8,0.4s0.4,0.4,0.5,0.6s0.2,0.5,0.2,0.8h-1.1c0-0.1,0-0.3-0.1-0.4s-0.2-0.2-0.3-0.3 s-0.3-0.2-0.5-0.2s-0.4-0.1-0.6-0.1c-0.2,0-0.4,0-0.6,0.1s-0.3,0.1-0.4,0.2s-0.2,0.2-0.3,0.3s-0.1,0.2-0.1,0.4c0,0.1,0,0.2,0.1,0.3 s0.1,0.2,0.2,0.3s0.3,0.1,0.5,0.2s0.4,0.1,0.7,0.2c0.4,0.1,0.7,0.2,1,0.3s0.6,0.2,0.8,0.4s0.4,0.3,0.5,0.5s0.2,0.4,0.2,0.7 c0,0.3-0.1,0.5-0.2,0.8s-0.3,0.4-0.5,0.6s-0.5,0.3-0.8,0.4s-0.7,0.1-1,0.1c-0.4,0-0.8-0.1-1.1-0.2s-0.6-0.3-0.9-0.5 s-0.4-0.4-0.5-0.7s-0.2-0.5-0.2-0.8h1.1c0,0.2,0.1,0.4,0.2,0.6s0.2,0.3,0.4,0.4s0.3,0.2,0.5,0.2s0.4,0.1,0.6,0.1 c0.5,0,0.8-0.1,1.1-0.3S496.2,121.7,496.2,121.4z"></path> <path class="st1" d="M507,119.7c0-0.6,0-1.1,0.1-1.6s0.2-0.9,0.4-1.4s0.3-0.8,0.5-1.2s0.4-0.7,0.6-0.9s0.4-0.5,0.6-0.7 s0.4-0.3,0.6-0.5l0.2,0.7c-0.2,0.2-0.5,0.4-0.7,0.8s-0.5,0.7-0.6,1.2s-0.3,1-0.5,1.6s-0.2,1.2-0.2,2v0.1c0,0.7,0.1,1.4,0.2,2 s0.3,1.1,0.5,1.6s0.4,0.8,0.6,1.2s0.5,0.6,0.7,0.8l-0.2,0.7c-0.2-0.1-0.4-0.3-0.6-0.4s-0.4-0.4-0.6-0.7s-0.4-0.6-0.6-0.9 s-0.4-0.7-0.5-1.1s-0.3-0.9-0.4-1.4S507,120.3,507,119.7L507,119.7z"></path> <path class="st1" d="M516.4,123.1h-1.1V116l-2.2,0.8v-1l3.2-1.2h0.1V123.1z"></path> <path class="st1" d="M523.8,114.6v1h-0.1c-0.4,0-0.7,0-1,0.1s-0.5,0.2-0.7,0.3s-0.4,0.3-0.6,0.5s-0.3,0.4-0.4,0.6s-0.2,0.4-0.2,0.7 s-0.1,0.5-0.1,0.7c0.1-0.1,0.2-0.2,0.4-0.3s0.3-0.2,0.4-0.3s0.3-0.1,0.5-0.2s0.4-0.1,0.6-0.1c0.4,0,0.8,0.1,1.1,0.2 s0.6,0.4,0.8,0.6s0.3,0.6,0.4,0.9s0.1,0.7,0.1,1c0,0.4-0.1,0.8-0.2,1.1s-0.3,0.7-0.5,0.9s-0.5,0.5-0.8,0.6s-0.7,0.2-1.1,0.2 c-0.3,0-0.6,0-0.8-0.1s-0.5-0.2-0.7-0.4s-0.4-0.3-0.5-0.5s-0.3-0.4-0.4-0.7s-0.2-0.5-0.2-0.8s-0.1-0.5-0.1-0.8v-0.5 c0-0.4,0-0.8,0.1-1.2s0.1-0.8,0.2-1.1s0.3-0.7,0.5-1s0.5-0.6,0.8-0.8s0.7-0.4,1.1-0.5S523.2,114.6,523.8,114.6L523.8,114.6z M522.4,118.4c-0.2,0-0.4,0-0.5,0.1s-0.3,0.1-0.5,0.2s-0.3,0.2-0.4,0.4s-0.2,0.3-0.3,0.5v0.4c0,0.4,0,0.7,0.1,1s0.2,0.5,0.4,0.7 s0.3,0.4,0.5,0.5s0.4,0.2,0.6,0.2c0.3,0,0.5,0,0.7-0.1s0.4-0.2,0.5-0.4s0.2-0.4,0.3-0.6s0.1-0.5,0.1-0.8c0-0.2,0-0.5-0.1-0.7 s-0.2-0.4-0.3-0.6s-0.3-0.3-0.5-0.4S522.7,118.4,522.4,118.4z"></path> <path class="st1" d="M528,122.2c0.4,0,0.7,0,1-0.1s0.5-0.2,0.8-0.3s0.4-0.3,0.5-0.4s0.3-0.4,0.4-0.6s0.2-0.4,0.2-0.7 s0.1-0.5,0.1-0.7c-0.1,0.1-0.2,0.2-0.3,0.3s-0.3,0.2-0.4,0.3s-0.3,0.1-0.5,0.2s-0.4,0.1-0.6,0.1c-0.4,0-0.8-0.1-1.1-0.2 s-0.6-0.4-0.8-0.7s-0.3-0.6-0.4-0.9s-0.1-0.7-0.1-1c0-0.4,0.1-0.8,0.2-1.1s0.3-0.7,0.5-0.9s0.5-0.5,0.8-0.6s0.7-0.2,1.2-0.2 c0.3,0,0.6,0,0.9,0.1s0.5,0.2,0.7,0.4s0.4,0.4,0.5,0.6s0.3,0.5,0.4,0.7s0.2,0.5,0.2,0.8s0.1,0.6,0.1,0.8v0.4c0,0.4,0,0.7-0.1,1.1 s-0.1,0.7-0.2,1.1s-0.2,0.7-0.4,1s-0.4,0.6-0.7,0.8s-0.7,0.4-1.1,0.6s-0.9,0.2-1.5,0.2h-0.1v-1H528z M529.2,119.4 c0.2,0,0.4,0,0.5-0.1s0.3-0.1,0.5-0.3s0.3-0.2,0.4-0.4s0.2-0.3,0.3-0.5v-0.4c0-0.4,0-0.7-0.1-1s-0.2-0.5-0.4-0.8s-0.3-0.4-0.5-0.5 s-0.4-0.2-0.6-0.2c-0.3,0-0.5,0.1-0.7,0.2s-0.4,0.2-0.5,0.4s-0.2,0.4-0.3,0.6s-0.1,0.5-0.1,0.8c0,0.2,0,0.5,0.1,0.7 s0.2,0.5,0.3,0.6s0.3,0.3,0.5,0.5S529,119.4,529.2,119.4z"></path> <path class="st1" d="M546.3,119.4c0,0.3,0,0.6-0.1,0.9s-0.1,0.6-0.2,0.9s-0.2,0.6-0.4,0.8s-0.3,0.5-0.6,0.7s-0.5,0.3-0.8,0.4 s-0.6,0.2-1,0.2s-0.7-0.1-1-0.2s-0.5-0.3-0.8-0.4s-0.4-0.4-0.6-0.7s-0.3-0.5-0.4-0.8s-0.2-0.6-0.2-0.9s-0.1-0.6-0.1-0.9v-1 c0-0.3,0-0.6,0.1-0.9s0.1-0.6,0.2-0.9s0.2-0.6,0.4-0.8s0.3-0.5,0.6-0.7s0.5-0.3,0.8-0.4s0.6-0.2,1-0.2s0.7,0.1,1,0.2 s0.5,0.3,0.8,0.4s0.4,0.4,0.6,0.7s0.3,0.5,0.4,0.8s0.2,0.6,0.2,0.9s0.1,0.6,0.1,0.9V119.4z M545.2,118.4c0-0.2,0-0.4,0-0.6 s-0.1-0.4-0.1-0.7s-0.1-0.4-0.2-0.6s-0.2-0.4-0.4-0.5s-0.3-0.3-0.5-0.4s-0.4-0.1-0.7-0.1c-0.2,0-0.5,0-0.7,0.1s-0.4,0.2-0.5,0.4 s-0.3,0.3-0.4,0.5s-0.2,0.4-0.2,0.6s-0.1,0.4-0.1,0.7s0,0.4,0,0.6v1c0,0.2,0,0.4,0,0.6s0.1,0.4,0.1,0.7s0.1,0.4,0.2,0.6 s0.2,0.4,0.4,0.5s0.3,0.3,0.5,0.4s0.4,0.1,0.7,0.1s0.5,0,0.7-0.1s0.4-0.2,0.5-0.4s0.3-0.3,0.3-0.5s0.2-0.4,0.2-0.6s0.1-0.4,0.1-0.7 s0-0.4,0-0.6V118.4z"></path> <path class="st1" d="M551.8,116.7c0.1,0,0.2,0,0.3,0s0.2,0,0.3,0s0.2,0,0.3,0s0.2,0,0.2,0.1l-0.1,1.1c-0.2,0-0.4-0.1-0.6-0.1 s-0.4,0-0.6,0c-0.5,0-0.9,0.1-1.2,0.3s-0.5,0.6-0.7,1v4.1h-1.1v-6.3h1l0.1,1c0.3-0.3,0.6-0.6,0.9-0.8S551.4,116.7,551.8,116.7z"></path> <path class="st1" d="M560,120c0,0.5-0.1,0.9-0.2,1.3s-0.3,0.7-0.5,1s-0.5,0.5-0.8,0.7s-0.7,0.2-1.1,0.2c-0.4,0-0.8-0.1-1.1-0.2 s-0.6-0.4-0.8-0.6l-0.1,0.7h-1v-9h1.1v3.3c0.2-0.3,0.5-0.5,0.8-0.6s0.6-0.2,1-0.2c0.4,0,0.8,0.1,1.1,0.2s0.6,0.4,0.8,0.7 s0.4,0.6,0.5,1s0.2,0.8,0.2,1.3V120z M558.9,119.9c0-0.3,0-0.6-0.1-0.9s-0.2-0.5-0.3-0.7s-0.3-0.4-0.5-0.5s-0.5-0.2-0.8-0.2 c-0.2,0-0.4,0-0.5,0.1s-0.3,0.1-0.4,0.2s-0.2,0.2-0.3,0.3s-0.2,0.2-0.2,0.4v2.8c0.1,0.1,0.2,0.3,0.2,0.4s0.2,0.2,0.3,0.3 s0.3,0.2,0.4,0.2s0.3,0.1,0.5,0.1c0.3,0,0.6-0.1,0.8-0.2s0.4-0.3,0.5-0.5s0.2-0.5,0.3-0.7s0.1-0.6,0.1-0.9V119.9z"></path> <path class="st1" d="M561.8,116.8h3.2v5.4h2.1v0.9h-5.3v-0.9h2.2v-4.5h-2.2V116.8z M563.8,115.1c0-0.2,0.1-0.3,0.2-0.5 s0.3-0.2,0.5-0.2c0.2,0,0.4,0.1,0.5,0.2s0.2,0.3,0.2,0.5c0,0.2-0.1,0.3-0.2,0.4s-0.3,0.2-0.5,0.2c-0.2,0-0.4-0.1-0.5-0.2 S563.8,115.3,563.8,115.1z"></path> <path class="st1" d="M571.1,115.3v1.5h2.4v0.8h-2.4v3.4c0,0.2,0,0.4,0.1,0.6s0.1,0.3,0.3,0.4s0.2,0.2,0.4,0.2s0.3,0.1,0.5,0.1 c0.1,0,0.2,0,0.4,0s0.2,0,0.4,0s0.2,0,0.3-0.1s0.2,0,0.3-0.1l0.2,0.8c-0.1,0.1-0.2,0.1-0.3,0.1s-0.3,0.1-0.4,0.1s-0.3,0.1-0.5,0.1 s-0.3,0-0.5,0c-0.3,0-0.5,0-0.8-0.1s-0.5-0.2-0.6-0.4s-0.3-0.4-0.4-0.7s-0.2-0.6-0.2-1v-3.4h-1.7v-0.8h1.7v-1.5H571.1z"></path> <path class="st1" d="M579.7,121.4c0-0.1,0-0.2-0.1-0.3s-0.1-0.2-0.3-0.3s-0.3-0.2-0.5-0.2s-0.4-0.1-0.7-0.2c-0.4-0.1-0.7-0.2-1-0.3 s-0.6-0.2-0.8-0.4s-0.4-0.3-0.5-0.5s-0.2-0.4-0.2-0.7c0-0.3,0.1-0.5,0.2-0.7s0.3-0.4,0.5-0.6s0.5-0.3,0.8-0.4s0.6-0.1,1-0.1 c0.4,0,0.7,0.1,1.1,0.2s0.6,0.2,0.8,0.4s0.4,0.4,0.5,0.6s0.2,0.5,0.2,0.8h-1.1c0-0.1,0-0.3-0.1-0.4s-0.2-0.2-0.3-0.3 s-0.3-0.2-0.5-0.2s-0.4-0.1-0.6-0.1c-0.2,0-0.4,0-0.6,0.1s-0.3,0.1-0.4,0.2s-0.2,0.2-0.3,0.3s-0.1,0.2-0.1,0.4c0,0.1,0,0.2,0.1,0.3 s0.1,0.2,0.2,0.3s0.3,0.1,0.5,0.2s0.4,0.1,0.7,0.2c0.4,0.1,0.7,0.2,1,0.3s0.6,0.2,0.8,0.4s0.4,0.3,0.5,0.5s0.2,0.4,0.2,0.7 c0,0.3-0.1,0.5-0.2,0.8s-0.3,0.4-0.5,0.6s-0.5,0.3-0.8,0.4s-0.7,0.1-1,0.1c-0.4,0-0.8-0.1-1.1-0.2s-0.6-0.3-0.9-0.5 s-0.4-0.4-0.5-0.7s-0.2-0.5-0.2-0.8h1.1c0,0.2,0.1,0.4,0.2,0.6s0.2,0.3,0.4,0.4s0.3,0.2,0.5,0.2s0.4,0.1,0.6,0.1 c0.5,0,0.8-0.1,1.1-0.3S579.7,121.7,579.7,121.4z"></path> <path class="st1" d="M586.4,119.7c0,0.6,0,1.1-0.1,1.6s-0.2,0.9-0.4,1.4s-0.3,0.8-0.5,1.1s-0.4,0.7-0.6,0.9s-0.4,0.5-0.6,0.7 s-0.4,0.3-0.6,0.4l-0.2-0.7c0.2-0.2,0.5-0.4,0.7-0.8s0.5-0.7,0.6-1.2s0.3-1,0.5-1.6s0.2-1.3,0.2-2v-0.1c0-0.7-0.1-1.4-0.2-2 s-0.3-1.1-0.5-1.6s-0.4-0.8-0.7-1.2s-0.5-0.6-0.7-0.8l0.2-0.7c0.2,0.1,0.4,0.3,0.6,0.5s0.4,0.4,0.6,0.7s0.4,0.6,0.6,0.9 s0.4,0.7,0.5,1.2s0.3,0.9,0.4,1.4S586.4,119.1,586.4,119.7L586.4,119.7z"></path> </g> <g> <path class="st0" d="M316.5,275c-0.4,0-0.7-0.2-0.9-0.5c-0.3-0.5-0.1-1.1,0.4-1.4l152.8-81c0.1-0.1,0.3-0.1,0.5-0.1h23.2 c0.6,0,1,0.4,1,1s-0.4,1-1,1h-23L317,274.9C316.8,275,316.7,275,316.5,275z"></path> </g> <g> <path class="st1" d="M509.9,187.7c0,0.4,0,0.7-0.1,1.1s-0.1,0.7-0.3,1c-0.1,0.3-0.3,0.7-0.5,0.9s-0.4,0.5-0.7,0.8 c-0.3,0.2-0.5,0.4-0.9,0.5s-0.7,0.2-1.1,0.2s-0.8-0.1-1.1-0.2s-0.6-0.3-0.9-0.5c-0.3-0.2-0.5-0.5-0.7-0.8c-0.2-0.3-0.3-0.6-0.5-0.9 s-0.2-0.7-0.3-1c-0.1-0.4-0.1-0.7-0.1-1.1v-1.1c0-0.4,0-0.7,0.1-1.1s0.1-0.7,0.3-1s0.3-0.7,0.5-0.9s0.4-0.6,0.7-0.8 c0.3-0.2,0.5-0.4,0.9-0.5s0.7-0.2,1.1-0.2s0.8,0.1,1.1,0.2c0.3,0.1,0.6,0.3,0.9,0.5c0.3,0.2,0.5,0.5,0.7,0.8s0.3,0.6,0.5,0.9 s0.2,0.7,0.3,1.1s0.1,0.7,0.1,1.1V187.7z M508.6,186.6c0-0.2,0-0.5,0-0.7s-0.1-0.5-0.1-0.8s-0.2-0.5-0.3-0.7s-0.2-0.4-0.4-0.6 s-0.4-0.3-0.6-0.4c-0.2-0.1-0.5-0.2-0.8-0.2c-0.3,0-0.5,0.1-0.8,0.2c-0.2,0.1-0.4,0.2-0.6,0.4s-0.3,0.4-0.4,0.6s-0.2,0.5-0.3,0.7 s-0.1,0.5-0.1,0.8s0,0.5-0.1,0.7v1.1c0,0.2,0,0.5,0.1,0.7s0.1,0.5,0.1,0.8s0.2,0.5,0.3,0.7s0.2,0.4,0.4,0.6s0.4,0.3,0.6,0.4 c0.2,0.1,0.5,0.2,0.8,0.2c0.3,0,0.6-0.1,0.8-0.2s0.4-0.2,0.6-0.4s0.3-0.4,0.4-0.6s0.2-0.5,0.3-0.7s0.1-0.5,0.1-0.8s0-0.5,0-0.7 V186.6z"></path> <path class="st1" d="M516.4,184.6c0.1,0,0.2,0,0.4,0s0.2,0,0.4,0c0.1,0,0.2,0,0.3,0.1c0.1,0,0.2,0,0.2,0.1l-0.2,1.2 c-0.2-0.1-0.5-0.1-0.7-0.1c-0.2,0-0.5,0-0.7,0c-0.6,0-1.1,0.1-1.4,0.4c-0.4,0.3-0.6,0.6-0.8,1.1v4.7h-1.3v-7.4h1.2l0.1,1.2 c0.3-0.4,0.7-0.7,1.1-1C515.3,184.7,515.8,184.6,516.4,184.6z"></path> <path class="st1" d="M525.9,188.5c0,0.5-0.1,1-0.2,1.5s-0.3,0.9-0.6,1.2s-0.6,0.6-0.9,0.8c-0.4,0.2-0.8,0.3-1.2,0.3 c-0.5,0-0.9-0.1-1.2-0.3c-0.3-0.2-0.6-0.4-0.9-0.7l-0.1,0.8h-1.2v-10.5h1.3v3.9c0.2-0.3,0.5-0.5,0.9-0.7s0.7-0.2,1.2-0.2 c0.5,0,0.9,0.1,1.3,0.3s0.7,0.4,0.9,0.8s0.4,0.7,0.6,1.2s0.2,1,0.2,1.5V188.5z M524.6,188.4c0-0.4,0-0.7-0.1-1 c-0.1-0.3-0.2-0.6-0.3-0.9s-0.4-0.4-0.6-0.6s-0.6-0.2-0.9-0.2c-0.2,0-0.4,0-0.6,0.1s-0.3,0.1-0.5,0.2c-0.1,0.1-0.3,0.2-0.4,0.4 c-0.1,0.1-0.2,0.3-0.3,0.5v3.2c0.1,0.2,0.2,0.3,0.3,0.5c0.1,0.1,0.2,0.3,0.4,0.4s0.3,0.2,0.5,0.2s0.4,0.1,0.6,0.1 c0.3,0,0.6-0.1,0.9-0.2c0.2-0.1,0.5-0.3,0.6-0.6c0.2-0.2,0.3-0.5,0.3-0.9c0.1-0.3,0.1-0.7,0.1-1V188.4z"></path> <path class="st1" d="M527.9,184.7h3.8v6.3h2.4v1.1h-6.2V191h2.5v-5.2h-2.5V184.7z M530.3,182.8c0-0.2,0.1-0.4,0.2-0.5 s0.3-0.2,0.6-0.2c0.2,0,0.4,0.1,0.6,0.2c0.1,0.1,0.2,0.3,0.2,0.5c0,0.2-0.1,0.4-0.2,0.5c-0.1,0.1-0.3,0.2-0.6,0.2 c-0.3,0-0.4-0.1-0.6-0.2S530.3,183,530.3,182.8z"></path> <path class="st1" d="M538.9,182.9v1.8h2.8v1h-2.8v4c0,0.3,0,0.5,0.1,0.7c0.1,0.2,0.2,0.3,0.3,0.4c0.1,0.1,0.3,0.2,0.4,0.2 s0.3,0.1,0.5,0.1c0.1,0,0.3,0,0.4,0c0.1,0,0.3,0,0.4-0.1s0.3,0,0.4-0.1s0.2,0,0.3-0.1l0.2,0.9c-0.1,0.1-0.2,0.1-0.4,0.2 s-0.3,0.1-0.5,0.1s-0.4,0.1-0.6,0.1s-0.4,0-0.6,0c-0.3,0-0.6,0-0.9-0.1s-0.5-0.2-0.7-0.4c-0.2-0.2-0.4-0.5-0.5-0.8 s-0.2-0.7-0.2-1.2v-4h-1.9v-1h1.9v-1.8H538.9z"></path> <path class="st1" d="M558.6,189.1c-0.1,0.5-0.2,0.9-0.4,1.3s-0.4,0.7-0.7,1c-0.3,0.3-0.6,0.5-1,0.6c-0.4,0.2-0.8,0.2-1.3,0.2 c-0.4,0-0.8-0.1-1.1-0.2c-0.3-0.1-0.6-0.3-0.9-0.5c-0.3-0.2-0.5-0.4-0.7-0.7c-0.2-0.3-0.3-0.6-0.5-0.9c-0.1-0.3-0.2-0.7-0.3-1 c-0.1-0.4-0.1-0.7-0.1-1.1v-1.4c0-0.4,0-0.7,0.1-1.1c0.1-0.4,0.2-0.7,0.3-1c0.1-0.3,0.3-0.6,0.5-0.9c0.2-0.3,0.4-0.5,0.7-0.7 c0.3-0.2,0.6-0.4,0.9-0.5s0.7-0.2,1.1-0.2c0.5,0,0.9,0.1,1.3,0.2s0.7,0.4,1,0.6s0.5,0.6,0.7,1c0.2,0.4,0.3,0.8,0.3,1.3h-1.3 c0-0.3-0.1-0.6-0.2-0.8s-0.2-0.5-0.4-0.7s-0.4-0.3-0.6-0.5c-0.2-0.1-0.5-0.2-0.9-0.2c-0.3,0-0.6,0-0.8,0.1 c-0.2,0.1-0.4,0.2-0.6,0.4c-0.2,0.2-0.3,0.4-0.4,0.6c-0.1,0.2-0.2,0.5-0.3,0.7s-0.1,0.5-0.1,0.8c0,0.3,0,0.5,0,0.8v1.4 c0,0.2,0,0.5,0,0.8c0,0.3,0.1,0.5,0.1,0.8s0.2,0.5,0.3,0.7s0.2,0.4,0.4,0.6s0.4,0.3,0.6,0.4s0.5,0.1,0.8,0.1c0.3,0,0.6-0.1,0.9-0.2 c0.2-0.1,0.5-0.3,0.6-0.4s0.3-0.4,0.4-0.7s0.2-0.5,0.2-0.8H558.6z"></path> <path class="st1" d="M562.8,185.3c0-0.1,0-0.3,0.1-0.4s0.1-0.2,0.2-0.3s0.2-0.2,0.3-0.2s0.3-0.1,0.4-0.1s0.3,0,0.4,0.1 s0.2,0.1,0.3,0.2s0.1,0.2,0.2,0.3s0.1,0.2,0.1,0.4c0,0.1,0,0.3-0.1,0.4s-0.1,0.2-0.2,0.3s-0.2,0.2-0.3,0.2s-0.3,0.1-0.4,0.1 s-0.3,0-0.4-0.1s-0.2-0.1-0.3-0.2s-0.1-0.2-0.2-0.3S562.8,185.4,562.8,185.3z M562.8,191.3c0-0.1,0-0.3,0.1-0.4s0.1-0.2,0.2-0.3 s0.2-0.2,0.3-0.2s0.3-0.1,0.4-0.1s0.3,0,0.4,0.1s0.2,0.1,0.3,0.2s0.1,0.2,0.2,0.3s0.1,0.2,0.1,0.4c0,0.1,0,0.3-0.1,0.4 s-0.1,0.2-0.2,0.3s-0.2,0.2-0.3,0.2s-0.3,0.1-0.4,0.1s-0.3,0-0.4-0.1s-0.2-0.1-0.3-0.2s-0.1-0.2-0.2-0.3S562.8,191.4,562.8,191.3z"></path> <path class="st1" d="M582.9,190.8c-0.4,0.5-0.9,0.9-1.4,1.1s-1.1,0.4-1.8,0.3c-0.4,0-0.8-0.1-1.1-0.2c-0.3-0.1-0.7-0.3-0.9-0.5 s-0.5-0.5-0.7-0.7s-0.4-0.6-0.5-0.9c-0.1-0.3-0.2-0.7-0.3-1.1c-0.1-0.4-0.1-0.7-0.1-1.1v-1.2c0-0.4,0-0.7,0.1-1.1 c0.1-0.4,0.2-0.7,0.3-1.1s0.3-0.7,0.5-0.9s0.4-0.5,0.7-0.8c0.3-0.2,0.6-0.4,0.9-0.5s0.7-0.2,1.1-0.2c0.5,0,0.9,0.1,1.3,0.2 s0.7,0.3,1,0.6s0.5,0.6,0.7,1s0.3,0.8,0.3,1.3h-1.3c-0.1-0.3-0.1-0.6-0.2-0.8s-0.2-0.5-0.4-0.6c-0.2-0.2-0.4-0.3-0.6-0.4 s-0.5-0.1-0.8-0.1c-0.3,0-0.6,0.1-0.8,0.2s-0.4,0.2-0.6,0.4s-0.3,0.4-0.4,0.6s-0.2,0.5-0.3,0.7s-0.1,0.5-0.2,0.8s0,0.5,0,0.8v1.2 c0,0.3,0,0.5,0.1,0.8c0,0.3,0.1,0.5,0.2,0.8s0.2,0.5,0.3,0.7s0.3,0.4,0.5,0.6c0.2,0.2,0.4,0.3,0.6,0.4s0.5,0.2,0.8,0.2 c0.2,0,0.4,0,0.5,0c0.2,0,0.4-0.1,0.6-0.1s0.3-0.1,0.5-0.2s0.3-0.2,0.4-0.4l0-2.2h-2v-1.1h3.2L582.9,190.8z"></path> <path class="st1" d="M589.4,184.6c0.1,0,0.2,0,0.4,0c0.1,0,0.2,0,0.4,0s0.2,0,0.3,0.1s0.2,0,0.2,0.1l-0.2,1.2 c-0.2-0.1-0.5-0.1-0.7-0.1s-0.5,0-0.7,0c-0.6,0-1.1,0.1-1.4,0.4s-0.6,0.6-0.8,1.1v4.7h-1.3v-7.4h1.2l0.1,1.2c0.3-0.4,0.7-0.7,1.1-1 S588.9,184.6,589.4,184.6z"></path> <path class="st1" d="M597.6,192.1c0-0.1-0.1-0.2-0.1-0.4s-0.1-0.3-0.1-0.4c-0.1,0.1-0.3,0.2-0.4,0.4s-0.3,0.2-0.5,0.3 s-0.4,0.2-0.6,0.2c-0.2,0.1-0.4,0.1-0.7,0.1c-0.4,0-0.7-0.1-1.1-0.2s-0.6-0.3-0.8-0.5s-0.4-0.4-0.5-0.7s-0.2-0.6-0.2-0.9 c0-0.4,0.1-0.8,0.2-1.1s0.4-0.6,0.7-0.8c0.3-0.2,0.7-0.4,1.1-0.5s0.9-0.2,1.4-0.2h1.4v-0.6c0-0.2,0-0.4-0.1-0.6s-0.2-0.3-0.3-0.5 s-0.3-0.2-0.6-0.3s-0.5-0.1-0.7-0.1c-0.2,0-0.5,0-0.7,0.1s-0.4,0.1-0.5,0.3s-0.2,0.2-0.3,0.4s-0.1,0.3-0.1,0.4h-1.3 c0-0.3,0.1-0.5,0.2-0.8s0.3-0.5,0.6-0.7s0.6-0.4,0.9-0.5s0.8-0.2,1.2-0.2c0.4,0,0.8,0.1,1.2,0.2c0.4,0.1,0.7,0.3,0.9,0.5 s0.5,0.5,0.6,0.8s0.2,0.7,0.2,1.1v3.4c0,0.2,0,0.5,0.1,0.8c0,0.3,0.1,0.5,0.2,0.7v0.1H597.6z M595.3,191.2c0.2,0,0.5,0,0.7-0.1 c0.2-0.1,0.4-0.1,0.6-0.3s0.3-0.2,0.5-0.4c0.1-0.1,0.2-0.3,0.3-0.4v-1.5h-1.2c-0.7,0-1.3,0.1-1.7,0.3s-0.6,0.6-0.6,1 c0,0.2,0,0.4,0.1,0.5s0.2,0.3,0.3,0.4s0.3,0.2,0.5,0.3C594.9,191.1,595.1,191.2,595.3,191.2z"></path> <path class="st1" d="M603.7,190.3l0.1,0.5l0.1-0.5l2.1-5.6h1.3l-3,7.4h-1l-3-7.4h1.3L603.7,190.3z"></path> <path class="st1" d="M609.2,184.7h3.8v6.3h2.4v1.1h-6.2V191h2.5v-5.2h-2.5V184.7z M611.5,182.8c0-0.2,0.1-0.4,0.2-0.5 c0.1-0.1,0.3-0.2,0.6-0.2c0.2,0,0.4,0.1,0.6,0.2s0.2,0.3,0.2,0.5c0,0.2-0.1,0.4-0.2,0.5s-0.3,0.2-0.6,0.2c-0.3,0-0.4-0.1-0.6-0.2 C611.6,183.2,611.5,183,611.5,182.8z"></path> <path class="st1" d="M620.1,182.9v1.8h2.8v1h-2.8v4c0,0.3,0,0.5,0.1,0.7c0.1,0.2,0.2,0.3,0.3,0.4c0.1,0.1,0.3,0.2,0.4,0.2 s0.3,0.1,0.5,0.1c0.1,0,0.3,0,0.4,0c0.1,0,0.3,0,0.4-0.1s0.3,0,0.4-0.1s0.2,0,0.3-0.1l0.2,0.9c-0.1,0.1-0.2,0.1-0.4,0.2 s-0.3,0.1-0.5,0.1s-0.4,0.1-0.6,0.1s-0.4,0-0.6,0c-0.3,0-0.6,0-0.9-0.1s-0.5-0.2-0.7-0.4c-0.2-0.2-0.4-0.5-0.5-0.8 s-0.2-0.7-0.2-1.2v-4h-1.9v-1h1.9v-1.8H620.1z"></path> <path class="st1" d="M627.9,189.5l0.3,0.9l2.3-5.7h1.4l-3.8,8.5c-0.1,0.2-0.2,0.4-0.3,0.6s-0.3,0.4-0.5,0.6s-0.4,0.3-0.7,0.5 c-0.3,0.1-0.5,0.2-0.9,0.2c-0.1,0-0.1,0-0.2,0c-0.1,0-0.1,0-0.2,0c-0.1,0-0.1,0-0.2,0c-0.1,0-0.1,0-0.2,0l0.2-1c0,0,0.1,0,0.1,0 s0.1,0,0.2,0c0.1,0,0.1,0,0.2,0s0.1,0,0.1,0c0.2,0,0.3,0,0.5-0.1s0.3-0.2,0.4-0.3s0.2-0.3,0.3-0.4s0.1-0.3,0.2-0.3l0.5-1l-3.2-7 h1.4L627.9,189.5z"></path> <path class="st1" d="M646.7,189.6c0-0.3-0.1-0.6-0.2-0.8s-0.3-0.4-0.5-0.5s-0.5-0.3-0.7-0.4s-0.5-0.2-0.8-0.3 c-0.4-0.1-0.7-0.3-1.1-0.4s-0.7-0.4-1-0.6s-0.5-0.5-0.7-0.8s-0.3-0.7-0.3-1.1s0.1-0.8,0.3-1.1s0.4-0.6,0.7-0.9 c0.3-0.2,0.7-0.4,1-0.5c0.4-0.1,0.8-0.2,1.2-0.2c0.4,0,0.8,0.1,1.2,0.2c0.4,0.1,0.8,0.3,1.1,0.6c0.3,0.3,0.6,0.6,0.7,0.9 c0.2,0.4,0.3,0.8,0.3,1.2h-1.3c0-0.3-0.1-0.5-0.2-0.8c-0.1-0.2-0.2-0.4-0.4-0.6c-0.2-0.2-0.4-0.3-0.6-0.4s-0.5-0.1-0.8-0.1 c-0.2,0-0.5,0-0.7,0.1s-0.4,0.2-0.6,0.3s-0.3,0.3-0.4,0.5s-0.2,0.4-0.2,0.7c0,0.3,0.1,0.5,0.2,0.7c0.1,0.2,0.3,0.4,0.5,0.5 s0.5,0.3,0.7,0.3s0.5,0.2,0.7,0.2c0.2,0.1,0.5,0.2,0.7,0.3c0.3,0.1,0.5,0.2,0.7,0.3s0.4,0.3,0.7,0.4c0.2,0.2,0.4,0.3,0.5,0.5 s0.3,0.4,0.4,0.7s0.1,0.5,0.1,0.8c0,0.4-0.1,0.8-0.3,1.2s-0.5,0.6-0.8,0.8s-0.7,0.4-1.1,0.5s-0.8,0.2-1.2,0.2 c-0.4,0-0.9-0.1-1.3-0.2s-0.8-0.3-1.1-0.6s-0.6-0.6-0.8-0.9c-0.2-0.4-0.3-0.8-0.3-1.3h1.3c0,0.3,0.1,0.6,0.3,0.8 c0.1,0.2,0.3,0.4,0.5,0.6c0.2,0.2,0.4,0.3,0.7,0.4s0.5,0.1,0.9,0.1c0.2,0,0.5,0,0.7-0.1s0.5-0.2,0.6-0.3c0.2-0.1,0.3-0.3,0.5-0.5 C646.6,190.1,646.7,189.9,646.7,189.6z"></path> <path class="st1" d="M652.7,191.2c0.2,0,0.5,0,0.7-0.1s0.4-0.2,0.6-0.3c0.2-0.1,0.3-0.3,0.4-0.5s0.2-0.4,0.2-0.6h1.2 c0,0.3-0.1,0.6-0.3,0.9s-0.4,0.6-0.7,0.8c-0.3,0.2-0.6,0.4-1,0.5c-0.4,0.1-0.7,0.2-1.1,0.2c-0.6,0-1-0.1-1.5-0.3 c-0.4-0.2-0.8-0.5-1-0.8s-0.5-0.7-0.6-1.2c-0.1-0.4-0.2-0.9-0.2-1.4v-0.3c0-0.5,0.1-1,0.2-1.4c0.1-0.4,0.4-0.8,0.6-1.2 s0.6-0.6,1-0.8c0.4-0.2,0.9-0.3,1.5-0.3c0.4,0,0.8,0.1,1.2,0.2s0.7,0.3,1,0.6s0.5,0.5,0.6,0.9s0.2,0.7,0.2,1.1h-1.2 c0-0.2-0.1-0.4-0.1-0.6s-0.2-0.4-0.4-0.5c-0.2-0.2-0.3-0.3-0.6-0.4s-0.5-0.1-0.7-0.1c-0.4,0-0.7,0.1-1,0.2s-0.5,0.4-0.6,0.6 s-0.3,0.5-0.4,0.9s-0.1,0.6-0.1,1v0.3c0,0.3,0,0.6,0.1,1s0.2,0.6,0.3,0.9s0.4,0.5,0.6,0.6S652.3,191.2,652.7,191.2z"></path> <path class="st1" d="M657.9,184.7h3.8v6.3h2.4v1.1h-6.2V191h2.5v-5.2h-2.5V184.7z M660.2,182.8c0-0.2,0.1-0.4,0.2-0.5 c0.1-0.1,0.3-0.2,0.6-0.2c0.2,0,0.4,0.1,0.6,0.2s0.2,0.3,0.2,0.5c0,0.2-0.1,0.4-0.2,0.5s-0.3,0.2-0.6,0.2c-0.3,0-0.4-0.1-0.6-0.2 C660.3,183.2,660.2,183,660.2,182.8z"></path> <path class="st1" d="M669.1,192.3c-0.5,0-1-0.1-1.4-0.3c-0.4-0.2-0.8-0.4-1.1-0.7s-0.6-0.7-0.7-1.1s-0.3-0.9-0.3-1.4v-0.3 c0-0.6,0.1-1.1,0.3-1.6s0.4-0.9,0.8-1.2c0.3-0.3,0.7-0.6,1.1-0.7c0.4-0.2,0.8-0.3,1.2-0.3c0.5,0,1,0.1,1.4,0.3 c0.4,0.2,0.7,0.4,1,0.8s0.5,0.7,0.6,1.2c0.1,0.4,0.2,0.9,0.2,1.4v0.6h-5.3c0,0.3,0.1,0.7,0.2,1c0.1,0.3,0.3,0.6,0.5,0.8 c0.2,0.2,0.4,0.4,0.7,0.5s0.6,0.2,0.9,0.2c0.5,0,0.9-0.1,1.2-0.3s0.6-0.4,0.9-0.7l0.8,0.6c-0.1,0.2-0.3,0.4-0.5,0.5 c-0.2,0.2-0.4,0.3-0.6,0.5s-0.5,0.2-0.8,0.3S669.4,192.3,669.1,192.3z M668.9,185.6c-0.3,0-0.5,0-0.7,0.1s-0.4,0.2-0.6,0.4 s-0.3,0.4-0.5,0.7c-0.1,0.3-0.2,0.6-0.3,0.9h4v-0.1c0-0.2-0.1-0.5-0.1-0.7c-0.1-0.2-0.2-0.5-0.4-0.6s-0.3-0.3-0.6-0.5 C669.5,185.7,669.2,185.6,668.9,185.6z"></path> <path class="st1" d="M675.1,184.7l0.1,1.1c0.3-0.4,0.6-0.7,1-0.9c0.4-0.2,0.8-0.3,1.3-0.3c0.4,0,0.7,0.1,1.1,0.2s0.6,0.3,0.8,0.5 c0.2,0.2,0.4,0.5,0.5,0.9s0.2,0.8,0.2,1.3v4.7h-1.3v-4.7c0-0.3,0-0.6-0.1-0.8c-0.1-0.2-0.2-0.4-0.3-0.6s-0.3-0.2-0.5-0.3 s-0.4-0.1-0.7-0.1c-0.4,0-0.8,0.1-1.1,0.3s-0.6,0.5-0.8,0.8v5.3h-1.3v-7.4H675.1z"></path> <path class="st1" d="M685.2,191.2c0.2,0,0.4,0,0.7-0.1s0.4-0.2,0.6-0.3c0.2-0.1,0.3-0.3,0.4-0.5s0.2-0.4,0.2-0.6h1.2 c0,0.3-0.1,0.6-0.3,0.9s-0.4,0.6-0.7,0.8c-0.3,0.2-0.6,0.4-1,0.5c-0.4,0.1-0.7,0.2-1.1,0.2c-0.6,0-1.1-0.1-1.5-0.3 c-0.4-0.2-0.8-0.5-1-0.8s-0.5-0.7-0.6-1.2c-0.1-0.4-0.2-0.9-0.2-1.4v-0.3c0-0.5,0.1-1,0.2-1.4c0.1-0.4,0.4-0.8,0.6-1.2 s0.6-0.6,1-0.8c0.4-0.2,0.9-0.3,1.5-0.3c0.4,0,0.8,0.1,1.2,0.2s0.7,0.3,1,0.6s0.5,0.5,0.6,0.9s0.2,0.7,0.2,1.1H687 c0-0.2-0.1-0.4-0.1-0.6s-0.2-0.4-0.4-0.5c-0.2-0.2-0.3-0.3-0.6-0.4s-0.5-0.1-0.7-0.1c-0.4,0-0.7,0.1-1,0.2s-0.5,0.4-0.6,0.6 s-0.3,0.5-0.4,0.9s-0.1,0.6-0.1,1v0.3c0,0.3,0,0.6,0.1,1s0.2,0.6,0.3,0.9s0.4,0.5,0.6,0.6S684.8,191.2,685.2,191.2z"></path> <path class="st1" d="M693.4,192.3c-0.5,0-1-0.1-1.4-0.3c-0.4-0.2-0.8-0.4-1.1-0.7s-0.6-0.7-0.7-1.1s-0.3-0.9-0.3-1.4v-0.3 c0-0.6,0.1-1.1,0.3-1.6s0.4-0.9,0.8-1.2c0.3-0.3,0.7-0.6,1.1-0.7c0.4-0.2,0.8-0.3,1.2-0.3c0.5,0,1,0.1,1.4,0.3 c0.4,0.2,0.7,0.4,1,0.8s0.5,0.7,0.6,1.2c0.1,0.4,0.2,0.9,0.2,1.4v0.6h-5.3c0,0.3,0.1,0.7,0.2,1c0.1,0.3,0.3,0.6,0.5,0.8 c0.2,0.2,0.4,0.4,0.7,0.5s0.6,0.2,0.9,0.2c0.5,0,0.9-0.1,1.2-0.3s0.6-0.4,0.9-0.7l0.8,0.6c-0.1,0.2-0.3,0.4-0.5,0.5 c-0.2,0.2-0.4,0.3-0.6,0.5s-0.5,0.2-0.8,0.3S693.8,192.3,693.4,192.3z M693.3,185.6c-0.3,0-0.5,0-0.7,0.1s-0.4,0.2-0.6,0.4 s-0.3,0.4-0.5,0.7c-0.1,0.3-0.2,0.6-0.3,0.9h4v-0.1c0-0.2-0.1-0.5-0.1-0.7c-0.1-0.2-0.2-0.5-0.4-0.6s-0.3-0.3-0.6-0.5 C693.9,185.7,693.6,185.6,693.3,185.6z"></path> <path class="st1" d="M506.7,214.1h-1.1V207l-2.2,0.8v-1l3.2-1.2h0.1V214.1z"></path> <path class="st1" d="M515.5,210.9c0,0.5-0.1,1-0.2,1.4s-0.3,0.8-0.5,1.1s-0.5,0.5-0.9,0.7s-0.7,0.2-1.2,0.2c-0.4,0-0.8-0.1-1.2-0.2 s-0.6-0.4-0.9-0.7s-0.4-0.6-0.5-1.1s-0.2-0.9-0.2-1.4v-2c0-0.5,0.1-1,0.2-1.4s0.3-0.8,0.5-1.1s0.5-0.5,0.9-0.7s0.7-0.2,1.2-0.2 c0.4,0,0.8,0.1,1.2,0.2s0.6,0.4,0.9,0.7s0.4,0.6,0.5,1.1s0.2,0.9,0.2,1.4V210.9z M511.1,210.6l3.3-2.5c-0.1-0.6-0.2-1-0.5-1.3 s-0.7-0.4-1.2-0.4c-0.6,0-1,0.2-1.3,0.6s-0.4,0.9-0.4,1.7V210.6z M514.4,209.1l-3.3,2.5c0.1,0.6,0.2,1,0.5,1.3s0.7,0.4,1.1,0.4 c0.6,0,1-0.2,1.3-0.6s0.4-1,0.4-1.7V209.1z"></path> <path class="st1" d="M522.5,210.9c0,0.5-0.1,1-0.2,1.4s-0.3,0.8-0.5,1.1s-0.5,0.5-0.9,0.7s-0.7,0.2-1.2,0.2c-0.4,0-0.8-0.1-1.2-0.2 s-0.6-0.4-0.9-0.7s-0.4-0.6-0.5-1.1s-0.2-0.9-0.2-1.4v-2c0-0.5,0.1-1,0.2-1.4s0.3-0.8,0.5-1.1s0.5-0.5,0.9-0.7s0.7-0.2,1.2-0.2 c0.4,0,0.8,0.1,1.2,0.2s0.6,0.4,0.9,0.7s0.4,0.6,0.5,1.1s0.2,0.9,0.2,1.4V210.9z M518.1,210.6l3.3-2.5c-0.1-0.6-0.2-1-0.5-1.3 s-0.7-0.4-1.2-0.4c-0.6,0-1,0.2-1.3,0.6s-0.4,0.9-0.4,1.7V210.6z M521.4,209.1l-3.3,2.5c0.1,0.6,0.2,1,0.5,1.3s0.7,0.4,1.1,0.4 c0.6,0,1-0.2,1.3-0.6s0.4-1,0.4-1.7V209.1z"></path> <path class="st1" d="M530.9,214.1v-8.5h2c0.6,0,1.1,0.1,1.6,0.3s0.9,0.5,1.2,0.8s0.6,0.8,0.7,1.2s0.3,1,0.3,1.6v0.6 c0,0.6-0.1,1.1-0.3,1.6s-0.4,0.9-0.7,1.2s-0.7,0.6-1.2,0.8s-1,0.3-1.6,0.3H530.9z M532,206.5v6.8h0.9c0.5,0,0.9-0.1,1.2-0.2 s0.6-0.4,0.8-0.6s0.4-0.6,0.5-1s0.2-0.8,0.2-1.2v-0.6c0-0.4-0.1-0.8-0.2-1.2s-0.3-0.7-0.5-1s-0.5-0.5-0.8-0.6s-0.7-0.2-1.2-0.2H532 z"></path> <path class="st1" d="M542.2,214.1c0-0.1-0.1-0.2-0.1-0.3s0-0.3-0.1-0.4c-0.1,0.1-0.2,0.2-0.4,0.3s-0.3,0.2-0.4,0.3 s-0.3,0.1-0.5,0.2s-0.4,0.1-0.6,0.1c-0.3,0-0.6,0-0.9-0.1s-0.5-0.2-0.7-0.4s-0.3-0.4-0.4-0.6s-0.2-0.5-0.2-0.7 c0-0.3,0.1-0.7,0.2-0.9s0.3-0.5,0.6-0.7s0.6-0.3,0.9-0.4s0.8-0.1,1.2-0.1h1.2v-0.5c0-0.2,0-0.4-0.1-0.5s-0.2-0.3-0.3-0.4 s-0.3-0.2-0.5-0.2s-0.4-0.1-0.6-0.1c-0.2,0-0.4,0-0.6,0.1s-0.3,0.1-0.4,0.2s-0.2,0.2-0.3,0.3s-0.1,0.3-0.1,0.4H538 c0-0.2,0.1-0.5,0.2-0.7s0.3-0.4,0.5-0.6s0.5-0.3,0.8-0.4s0.7-0.2,1.1-0.2c0.4,0,0.7,0,1,0.1s0.6,0.2,0.8,0.4s0.4,0.4,0.5,0.7 s0.2,0.6,0.2,0.9v2.9c0,0.2,0,0.4,0.1,0.7s0.1,0.4,0.2,0.6v0.1H542.2z M540.3,213.3c0.2,0,0.4,0,0.6-0.1s0.3-0.1,0.5-0.2 s0.3-0.2,0.4-0.3s0.2-0.2,0.3-0.4V211h-1c-0.6,0-1.1,0.1-1.5,0.3s-0.5,0.5-0.5,0.9c0,0.2,0,0.3,0.1,0.4s0.1,0.2,0.2,0.3 s0.2,0.2,0.4,0.2S540.1,213.3,540.3,213.3z"></path> <path class="st1" d="M547.3,211.9l0.3,0.8l1.9-4.9h1.2l-3.2,7.3c-0.1,0.2-0.2,0.3-0.3,0.5s-0.3,0.4-0.4,0.5s-0.4,0.3-0.6,0.4 s-0.5,0.2-0.8,0.2c-0.1,0-0.1,0-0.2,0s-0.1,0-0.2,0s-0.1,0-0.2,0s-0.1,0-0.1,0l0.2-0.9c0,0,0.1,0,0.1,0s0.1,0,0.1,0s0.1,0,0.1,0 s0.1,0,0.1,0c0.1,0,0.3,0,0.4-0.1s0.2-0.2,0.3-0.3s0.2-0.2,0.2-0.4s0.1-0.2,0.2-0.3l0.4-0.8l-2.7-6h1.2L547.3,211.9z"></path> <path class="st1" d="M556.2,212.4c0-0.1,0-0.2-0.1-0.3s-0.1-0.2-0.3-0.3s-0.3-0.2-0.5-0.2s-0.4-0.1-0.7-0.2c-0.4-0.1-0.7-0.2-1-0.3 s-0.6-0.2-0.8-0.4s-0.4-0.3-0.5-0.5s-0.2-0.4-0.2-0.7c0-0.3,0.1-0.5,0.2-0.7s0.3-0.4,0.5-0.6s0.5-0.3,0.8-0.4s0.6-0.1,1-0.1 c0.4,0,0.7,0.1,1.1,0.2s0.6,0.2,0.8,0.4s0.4,0.4,0.5,0.6s0.2,0.5,0.2,0.8h-1.1c0-0.1,0-0.3-0.1-0.4s-0.2-0.2-0.3-0.3 s-0.3-0.2-0.5-0.2s-0.4-0.1-0.6-0.1c-0.2,0-0.4,0-0.6,0.1s-0.3,0.1-0.4,0.2s-0.2,0.2-0.3,0.3s-0.1,0.2-0.1,0.4c0,0.1,0,0.2,0.1,0.3 s0.1,0.2,0.2,0.3s0.3,0.1,0.5,0.2s0.4,0.1,0.7,0.2c0.4,0.1,0.7,0.2,1,0.3s0.6,0.2,0.8,0.4s0.4,0.3,0.5,0.5s0.2,0.4,0.2,0.7 c0,0.3-0.1,0.5-0.2,0.8s-0.3,0.4-0.5,0.6s-0.5,0.3-0.8,0.4s-0.7,0.1-1,0.1c-0.4,0-0.8-0.1-1.1-0.2s-0.6-0.3-0.9-0.5 s-0.4-0.4-0.5-0.7s-0.2-0.5-0.2-0.8h1.1c0,0.2,0.1,0.4,0.2,0.6s0.2,0.3,0.4,0.4s0.3,0.2,0.5,0.2s0.4,0.1,0.6,0.1 c0.5,0,0.8-0.1,1.1-0.3S556.2,212.7,556.2,212.4z"></path> <path class="st1" d="M566.9,210.7c0-0.6,0-1.1,0.1-1.6s0.2-0.9,0.4-1.4s0.3-0.8,0.5-1.2s0.4-0.7,0.6-0.9s0.4-0.5,0.6-0.7 s0.4-0.3,0.6-0.5l0.2,0.7c-0.2,0.2-0.5,0.4-0.7,0.8s-0.5,0.7-0.6,1.2s-0.3,1-0.5,1.6s-0.2,1.2-0.2,2v0.1c0,0.7,0.1,1.4,0.2,2 s0.3,1.1,0.5,1.6s0.4,0.8,0.6,1.2s0.5,0.6,0.7,0.8l-0.2,0.7c-0.2-0.1-0.4-0.3-0.6-0.4s-0.4-0.4-0.6-0.7s-0.4-0.6-0.6-0.9 s-0.4-0.7-0.5-1.1s-0.3-0.9-0.4-1.4S566.9,211.3,566.9,210.7L566.9,210.7z"></path> <path class="st1" d="M574.1,209.3h0.8c0.3,0,0.5,0,0.7-0.1s0.4-0.2,0.5-0.3s0.3-0.3,0.3-0.5s0.1-0.4,0.1-0.6c0-0.5-0.1-0.9-0.4-1.1 s-0.6-0.4-1.1-0.4c-0.2,0-0.4,0-0.6,0.1s-0.4,0.2-0.5,0.3s-0.2,0.3-0.3,0.5s-0.1,0.4-0.1,0.6h-1.1c0-0.3,0.1-0.6,0.2-0.9 s0.3-0.5,0.5-0.8s0.5-0.4,0.8-0.5s0.7-0.2,1.1-0.2c0.4,0,0.7,0.1,1,0.2s0.6,0.3,0.8,0.5s0.4,0.5,0.5,0.8s0.2,0.6,0.2,1 c0,0.2,0,0.3-0.1,0.5s-0.1,0.3-0.2,0.5s-0.2,0.3-0.4,0.5s-0.4,0.3-0.6,0.4c0.3,0.1,0.5,0.2,0.7,0.4s0.3,0.3,0.4,0.5 s0.2,0.4,0.2,0.6s0.1,0.4,0.1,0.6c0,0.4-0.1,0.8-0.2,1.1s-0.3,0.6-0.6,0.8s-0.5,0.4-0.9,0.5s-0.7,0.2-1.1,0.2 c-0.4,0-0.7-0.1-1.1-0.2s-0.6-0.3-0.9-0.5s-0.4-0.5-0.6-0.7s-0.2-0.6-0.2-1h1.1c0,0.2,0,0.4,0.1,0.6s0.2,0.3,0.3,0.5 s0.3,0.2,0.5,0.3s0.4,0.1,0.7,0.1s0.5,0,0.7-0.1s0.4-0.2,0.5-0.3s0.2-0.3,0.3-0.5s0.1-0.4,0.1-0.7c0-0.3,0-0.5-0.1-0.7 s-0.2-0.4-0.4-0.5s-0.3-0.2-0.6-0.3s-0.5-0.1-0.7-0.1h-0.8V209.3z"></path> <path class="st1" d="M583.8,205.6v1h-0.1c-0.4,0-0.7,0-1,0.1s-0.5,0.2-0.7,0.3s-0.4,0.3-0.6,0.5s-0.3,0.4-0.4,0.6s-0.2,0.4-0.2,0.7 s-0.1,0.5-0.1,0.7c0.1-0.1,0.2-0.2,0.4-0.3s0.3-0.2,0.4-0.3s0.3-0.1,0.5-0.2s0.4-0.1,0.6-0.1c0.4,0,0.8,0.1,1.1,0.2 s0.6,0.4,0.8,0.6s0.3,0.6,0.4,0.9s0.1,0.7,0.1,1c0,0.4-0.1,0.8-0.2,1.1s-0.3,0.7-0.5,0.9s-0.5,0.5-0.8,0.6s-0.7,0.2-1.1,0.2 c-0.3,0-0.6,0-0.8-0.1s-0.5-0.2-0.7-0.4s-0.4-0.3-0.5-0.5s-0.3-0.4-0.4-0.7s-0.2-0.5-0.2-0.8s-0.1-0.5-0.1-0.8v-0.5 c0-0.4,0-0.8,0.1-1.2s0.1-0.8,0.2-1.1s0.3-0.7,0.5-1s0.5-0.6,0.8-0.8s0.7-0.4,1.1-0.5S583.1,205.6,583.8,205.6L583.8,205.6z M582.4,209.4c-0.2,0-0.4,0-0.5,0.1s-0.3,0.1-0.5,0.2s-0.3,0.2-0.4,0.4s-0.2,0.3-0.3,0.5v0.4c0,0.4,0,0.7,0.1,1s0.2,0.5,0.4,0.7 s0.3,0.4,0.5,0.5s0.4,0.2,0.6,0.2c0.3,0,0.5,0,0.7-0.1s0.4-0.2,0.5-0.4s0.2-0.4,0.3-0.6s0.1-0.5,0.1-0.8c0-0.2,0-0.5-0.1-0.7 s-0.2-0.4-0.3-0.6s-0.3-0.3-0.5-0.4S582.6,209.4,582.4,209.4z"></path> <path class="st1" d="M592,214.1h-5.6v-0.8l2.8-3.1c0.2-0.3,0.5-0.5,0.6-0.7s0.3-0.4,0.4-0.6s0.2-0.4,0.2-0.5s0.1-0.3,0.1-0.5 c0-0.2,0-0.4-0.1-0.6s-0.2-0.3-0.3-0.5s-0.3-0.2-0.5-0.3s-0.4-0.1-0.6-0.1c-0.3,0-0.5,0-0.7,0.1s-0.4,0.2-0.5,0.3s-0.2,0.3-0.3,0.5 s-0.1,0.5-0.1,0.7h-1.1c0-0.4,0.1-0.7,0.2-1s0.3-0.6,0.5-0.8s0.5-0.4,0.9-0.6s0.7-0.2,1.2-0.2c0.4,0,0.8,0.1,1.1,0.2 s0.6,0.3,0.8,0.5s0.4,0.5,0.5,0.8s0.2,0.6,0.2,0.9c0,0.3,0,0.5-0.1,0.8s-0.2,0.5-0.3,0.7s-0.3,0.5-0.5,0.7s-0.4,0.5-0.6,0.7 l-2.3,2.5h4.3V214.1z"></path> <path class="st1" d="M606.2,210.4c0,0.3,0,0.6-0.1,0.9s-0.1,0.6-0.2,0.9s-0.2,0.6-0.4,0.8s-0.3,0.5-0.6,0.7s-0.5,0.3-0.8,0.4 s-0.6,0.2-1,0.2s-0.7-0.1-1-0.2s-0.5-0.3-0.8-0.4s-0.4-0.4-0.6-0.7s-0.3-0.5-0.4-0.8s-0.2-0.6-0.2-0.9s-0.1-0.6-0.1-0.9v-1 c0-0.3,0-0.6,0.1-0.9s0.1-0.6,0.2-0.9s0.2-0.6,0.4-0.8s0.3-0.5,0.6-0.7s0.5-0.3,0.8-0.4s0.6-0.2,1-0.2s0.7,0.1,1,0.2 s0.5,0.3,0.8,0.4s0.4,0.4,0.6,0.7s0.3,0.5,0.4,0.8s0.2,0.6,0.2,0.9s0.1,0.6,0.1,0.9V210.4z M605.1,209.4c0-0.2,0-0.4,0-0.6 s-0.1-0.4-0.1-0.7s-0.1-0.4-0.2-0.6s-0.2-0.4-0.4-0.5s-0.3-0.3-0.5-0.4s-0.4-0.1-0.7-0.1c-0.2,0-0.5,0-0.7,0.1s-0.4,0.2-0.5,0.4 s-0.3,0.3-0.4,0.5s-0.2,0.4-0.2,0.6s-0.1,0.4-0.1,0.7s0,0.4,0,0.6v1c0,0.2,0,0.4,0,0.6s0.1,0.4,0.1,0.7s0.1,0.4,0.2,0.6 s0.2,0.4,0.4,0.5s0.3,0.3,0.5,0.4s0.4,0.1,0.7,0.1s0.5,0,0.7-0.1s0.4-0.2,0.5-0.4s0.3-0.3,0.3-0.5s0.2-0.4,0.2-0.6s0.1-0.4,0.1-0.7 s0-0.4,0-0.6V209.4z"></path> <path class="st1" d="M611.8,207.7c0.1,0,0.2,0,0.3,0s0.2,0,0.3,0s0.2,0,0.3,0s0.2,0,0.2,0.1l-0.1,1.1c-0.2,0-0.4-0.1-0.6-0.1 s-0.4,0-0.6,0c-0.5,0-0.9,0.1-1.2,0.3s-0.5,0.6-0.7,1v4.1h-1.1v-6.3h1l0.1,1c0.3-0.3,0.6-0.6,0.9-0.8S611.3,207.7,611.8,207.7z"></path> <path class="st1" d="M620,211c0,0.5-0.1,0.9-0.2,1.3s-0.3,0.7-0.5,1s-0.5,0.5-0.8,0.7s-0.7,0.2-1.1,0.2c-0.4,0-0.8-0.1-1.1-0.2 s-0.6-0.4-0.8-0.6l-0.1,0.7h-1v-9h1.1v3.3c0.2-0.3,0.5-0.5,0.8-0.6s0.6-0.2,1-0.2c0.4,0,0.8,0.1,1.1,0.2s0.6,0.4,0.8,0.7 s0.4,0.6,0.5,1s0.2,0.8,0.2,1.3V211z M618.9,210.9c0-0.3,0-0.6-0.1-0.9s-0.2-0.5-0.3-0.7s-0.3-0.4-0.5-0.5s-0.5-0.2-0.8-0.2 c-0.2,0-0.4,0-0.5,0.1s-0.3,0.1-0.4,0.2s-0.2,0.2-0.3,0.3s-0.2,0.2-0.2,0.4v2.8c0.1,0.1,0.2,0.3,0.2,0.4s0.2,0.2,0.3,0.3 s0.3,0.2,0.4,0.2s0.3,0.1,0.5,0.1c0.3,0,0.6-0.1,0.8-0.2s0.4-0.3,0.5-0.5s0.2-0.5,0.3-0.7s0.1-0.6,0.1-0.9V210.9z"></path> <path class="st1" d="M621.7,207.8h3.2v5.4h2.1v0.9h-5.3v-0.9h2.2v-4.5h-2.2V207.8z M623.7,206.1c0-0.2,0.1-0.3,0.2-0.5 s0.3-0.2,0.5-0.2c0.2,0,0.4,0.1,0.5,0.2s0.2,0.3,0.2,0.5c0,0.2-0.1,0.3-0.2,0.4s-0.3,0.2-0.5,0.2c-0.2,0-0.4-0.1-0.5-0.2 S623.7,206.3,623.7,206.1z"></path> <path class="st1" d="M631.1,206.3v1.5h2.4v0.8h-2.4v3.4c0,0.2,0,0.4,0.1,0.6s0.1,0.3,0.3,0.4s0.2,0.2,0.4,0.2s0.3,0.1,0.5,0.1 c0.1,0,0.2,0,0.4,0s0.2,0,0.4,0s0.2,0,0.3-0.1s0.2,0,0.3-0.1l0.2,0.8c-0.1,0.1-0.2,0.1-0.3,0.1s-0.3,0.1-0.4,0.1s-0.3,0.1-0.5,0.1 s-0.3,0-0.5,0c-0.3,0-0.5,0-0.8-0.1s-0.5-0.2-0.6-0.4s-0.3-0.4-0.4-0.7s-0.2-0.6-0.2-1v-3.4h-1.7v-0.8h1.7v-1.5H631.1z"></path> <path class="st1" d="M639.7,212.4c0-0.1,0-0.2-0.1-0.3s-0.1-0.2-0.3-0.3s-0.3-0.2-0.5-0.2s-0.4-0.1-0.7-0.2c-0.4-0.1-0.7-0.2-1-0.3 s-0.6-0.2-0.8-0.4s-0.4-0.3-0.5-0.5s-0.2-0.4-0.2-0.7c0-0.3,0.1-0.5,0.2-0.7s0.3-0.4,0.5-0.6s0.5-0.3,0.8-0.4s0.6-0.1,1-0.1 c0.4,0,0.7,0.1,1.1,0.2s0.6,0.2,0.8,0.4s0.4,0.4,0.5,0.6s0.2,0.5,0.2,0.8h-1.1c0-0.1,0-0.3-0.1-0.4s-0.2-0.2-0.3-0.3 s-0.3-0.2-0.5-0.2s-0.4-0.1-0.6-0.1c-0.2,0-0.4,0-0.6,0.1s-0.3,0.1-0.4,0.2s-0.2,0.2-0.3,0.3s-0.1,0.2-0.1,0.4c0,0.1,0,0.2,0.1,0.3 s0.1,0.2,0.2,0.3s0.3,0.1,0.5,0.2s0.4,0.1,0.7,0.2c0.4,0.1,0.7,0.2,1,0.3s0.6,0.2,0.8,0.4s0.4,0.3,0.5,0.5s0.2,0.4,0.2,0.7 c0,0.3-0.1,0.5-0.2,0.8s-0.3,0.4-0.5,0.6s-0.5,0.3-0.8,0.4s-0.7,0.1-1,0.1c-0.4,0-0.8-0.1-1.1-0.2s-0.6-0.3-0.9-0.5 s-0.4-0.4-0.5-0.7s-0.2-0.5-0.2-0.8h1.1c0,0.2,0.1,0.4,0.2,0.6s0.2,0.3,0.4,0.4s0.3,0.2,0.5,0.2s0.4,0.1,0.6,0.1 c0.5,0,0.8-0.1,1.1-0.3S639.7,212.7,639.7,212.4z"></path> <path class="st1" d="M646.4,210.7c0,0.6,0,1.1-0.1,1.6s-0.2,0.9-0.4,1.4s-0.3,0.8-0.5,1.1s-0.4,0.7-0.6,0.9s-0.4,0.5-0.6,0.7 s-0.4,0.3-0.6,0.4l-0.2-0.7c0.2-0.2,0.5-0.4,0.7-0.8s0.5-0.7,0.6-1.2s0.3-1,0.5-1.6s0.2-1.3,0.2-2v-0.1c0-0.7-0.1-1.4-0.2-2 s-0.3-1.1-0.5-1.6s-0.4-0.8-0.7-1.2s-0.5-0.6-0.7-0.8l0.2-0.7c0.2,0.1,0.4,0.3,0.6,0.5s0.4,0.4,0.6,0.7s0.4,0.6,0.6,0.9 s0.4,0.7,0.5,1.2s0.3,0.9,0.4,1.4S646.4,210.1,646.4,210.7L646.4,210.7z"></path> </g> <g> <path class="st0" d="M283.5,333c-0.5,0-0.9-0.3-1-0.8c-0.1-0.5,0.3-1.1,0.8-1.2l186.8-31c0.1,0,0.1,0,0.2,0h23.2c0.6,0,1,0.4,1,1 s-0.4,1-1,1h-23.1l-186.7,31C283.6,333,283.6,333,283.5,333z"></path> </g> <g> <path class="st1" d="M510.9,295.7c0,0.4,0,0.7-0.1,1.1s-0.1,0.7-0.3,1c-0.1,0.3-0.3,0.7-0.5,0.9c-0.2,0.3-0.4,0.5-0.7,0.8 c-0.3,0.2-0.5,0.4-0.9,0.5s-0.7,0.2-1.1,0.2s-0.8-0.1-1.1-0.2s-0.6-0.3-0.9-0.5c-0.3-0.2-0.5-0.5-0.7-0.8c-0.2-0.3-0.3-0.6-0.5-0.9 c-0.1-0.3-0.2-0.7-0.3-1c-0.1-0.4-0.1-0.7-0.1-1.1v-1.1c0-0.4,0-0.7,0.1-1.1s0.1-0.7,0.3-1c0.1-0.3,0.3-0.7,0.5-0.9 s0.4-0.6,0.7-0.8c0.3-0.2,0.5-0.4,0.9-0.5s0.7-0.2,1.1-0.2s0.8,0.1,1.1,0.2c0.3,0.1,0.6,0.3,0.9,0.5c0.3,0.2,0.5,0.5,0.7,0.8 s0.3,0.6,0.5,0.9c0.1,0.3,0.2,0.7,0.3,1.1c0.1,0.4,0.1,0.7,0.1,1.1V295.7z M509.6,294.6c0-0.2,0-0.5,0-0.7s-0.1-0.5-0.1-0.8 s-0.2-0.5-0.3-0.7s-0.2-0.4-0.4-0.6s-0.4-0.3-0.6-0.4c-0.2-0.1-0.5-0.2-0.8-0.2c-0.3,0-0.5,0.1-0.8,0.2c-0.2,0.1-0.4,0.2-0.6,0.4 s-0.3,0.4-0.4,0.6s-0.2,0.5-0.3,0.7s-0.1,0.5-0.1,0.8s0,0.5-0.1,0.7v1.1c0,0.2,0,0.5,0.1,0.7s0.1,0.5,0.1,0.8s0.2,0.5,0.3,0.7 s0.2,0.4,0.4,0.6s0.4,0.3,0.6,0.4c0.2,0.1,0.5,0.2,0.8,0.2c0.3,0,0.6-0.1,0.8-0.2c0.2-0.1,0.4-0.2,0.6-0.4s0.3-0.4,0.4-0.6 s0.2-0.5,0.3-0.7s0.1-0.5,0.1-0.8s0-0.5,0-0.7V294.6z"></path> <path class="st1" d="M517.4,292.6c0.1,0,0.2,0,0.4,0s0.2,0,0.4,0c0.1,0,0.2,0,0.3,0.1c0.1,0,0.2,0,0.2,0.1l-0.2,1.2 c-0.2-0.1-0.5-0.1-0.7-0.1c-0.2,0-0.5,0-0.7,0c-0.6,0-1.1,0.1-1.4,0.4c-0.4,0.3-0.6,0.6-0.8,1.1v4.7h-1.3v-7.4h1.2l0.1,1.2 c0.3-0.4,0.7-0.7,1.1-1C516.3,292.7,516.8,292.6,517.4,292.6z"></path> <path class="st1" d="M526.9,296.5c0,0.5-0.1,1-0.2,1.5s-0.3,0.9-0.6,1.2c-0.2,0.3-0.6,0.6-0.9,0.8c-0.4,0.2-0.8,0.3-1.2,0.3 c-0.5,0-0.9-0.1-1.2-0.3c-0.3-0.2-0.6-0.4-0.9-0.7l-0.1,0.8h-1.2v-10.5h1.3v3.9c0.2-0.3,0.5-0.5,0.9-0.7c0.3-0.2,0.7-0.2,1.2-0.2 c0.5,0,0.9,0.1,1.3,0.3c0.4,0.2,0.7,0.4,0.9,0.8c0.2,0.3,0.4,0.7,0.6,1.2s0.2,1,0.2,1.5V296.5z M525.6,296.4c0-0.4,0-0.7-0.1-1 c-0.1-0.3-0.2-0.6-0.3-0.9s-0.4-0.4-0.6-0.6c-0.3-0.1-0.6-0.2-0.9-0.2c-0.2,0-0.4,0-0.6,0.1s-0.3,0.1-0.5,0.2 c-0.1,0.1-0.3,0.2-0.4,0.4c-0.1,0.1-0.2,0.3-0.3,0.5v3.2c0.1,0.2,0.2,0.3,0.3,0.5c0.1,0.1,0.2,0.3,0.4,0.4c0.1,0.1,0.3,0.2,0.5,0.2 s0.4,0.1,0.6,0.1c0.3,0,0.6-0.1,0.9-0.2c0.2-0.1,0.5-0.3,0.6-0.6c0.2-0.2,0.3-0.5,0.3-0.9c0.1-0.3,0.1-0.7,0.1-1V296.4z"></path> <path class="st1" d="M528.9,292.7h3.8v6.3h2.4v1.1h-6.2V299h2.5v-5.2h-2.5V292.7z M531.3,290.8c0-0.2,0.1-0.4,0.2-0.5 s0.3-0.2,0.6-0.2c0.2,0,0.4,0.1,0.6,0.2c0.1,0.1,0.2,0.3,0.2,0.5c0,0.2-0.1,0.4-0.2,0.5c-0.1,0.1-0.3,0.2-0.6,0.2 c-0.3,0-0.4-0.1-0.6-0.2S531.3,291,531.3,290.8z"></path> <path class="st1" d="M539.9,290.9v1.8h2.8v1h-2.8v4c0,0.3,0,0.5,0.1,0.7c0.1,0.2,0.2,0.3,0.3,0.4c0.1,0.1,0.3,0.2,0.4,0.2 c0.2,0,0.3,0.1,0.5,0.1c0.1,0,0.3,0,0.4,0c0.1,0,0.3,0,0.4-0.1c0.1,0,0.3,0,0.4-0.1s0.2,0,0.3-0.1l0.2,0.9 c-0.1,0.1-0.2,0.1-0.4,0.2s-0.3,0.1-0.5,0.1s-0.4,0.1-0.6,0.1c-0.2,0-0.4,0-0.6,0c-0.3,0-0.6,0-0.9-0.1s-0.5-0.2-0.7-0.4 c-0.2-0.2-0.4-0.5-0.5-0.8s-0.2-0.7-0.2-1.2v-4h-1.9v-1h1.9v-1.8H539.9z"></path> <path class="st1" d="M553,300.1v-10h2.3c0.7,0,1.3,0.1,1.9,0.4c0.5,0.2,1,0.5,1.4,0.9c0.4,0.4,0.7,0.9,0.9,1.4 c0.2,0.6,0.3,1.2,0.3,1.9v0.7c0,0.7-0.1,1.3-0.3,1.9c-0.2,0.6-0.5,1-0.9,1.4c-0.4,0.4-0.8,0.7-1.4,0.9c-0.5,0.2-1.2,0.3-1.9,0.3 H553z M554.3,291.2v7.9h1c0.5,0,1-0.1,1.4-0.3s0.7-0.4,1-0.8c0.3-0.3,0.4-0.7,0.6-1.1c0.1-0.4,0.2-0.9,0.2-1.4v-0.7 c0-0.5-0.1-1-0.2-1.4s-0.3-0.8-0.6-1.1s-0.6-0.6-1-0.7c-0.4-0.2-0.9-0.3-1.4-0.3H554.3z"></path> <path class="st1" d="M563.8,293.3c0-0.1,0-0.3,0.1-0.4c0-0.1,0.1-0.2,0.2-0.3s0.2-0.2,0.3-0.2c0.1,0,0.3-0.1,0.4-0.1s0.3,0,0.4,0.1 c0.1,0.1,0.2,0.1,0.3,0.2s0.1,0.2,0.2,0.3c0,0.1,0.1,0.2,0.1,0.4c0,0.1,0,0.3-0.1,0.4s-0.1,0.2-0.2,0.3c-0.1,0.1-0.2,0.2-0.3,0.2 s-0.3,0.1-0.4,0.1s-0.3,0-0.4-0.1s-0.2-0.1-0.3-0.2c-0.1-0.1-0.1-0.2-0.2-0.3S563.8,293.4,563.8,293.3z M563.8,299.3 c0-0.1,0-0.3,0.1-0.4c0-0.1,0.1-0.2,0.2-0.3s0.2-0.2,0.3-0.2c0.1,0,0.3-0.1,0.4-0.1s0.3,0,0.4,0.1c0.1,0.1,0.2,0.1,0.3,0.2 s0.1,0.2,0.2,0.3c0,0.1,0.1,0.2,0.1,0.4c0,0.1,0,0.3-0.1,0.4s-0.1,0.2-0.2,0.3c-0.1,0.1-0.2,0.2-0.3,0.2s-0.3,0.1-0.4,0.1 s-0.3,0-0.4-0.1s-0.2-0.1-0.3-0.2c-0.1-0.1-0.1-0.2-0.2-0.3S563.8,299.4,563.8,299.3z"></path> <path class="st1" d="M583,295.5h-4.2v3.5h4.8v1.1h-6.1v-10h6v1.1h-4.8v3.2h4.2V295.5z"></path> <path class="st1" d="M585.8,289.6h3.8v9.4h2.4v1.1h-6.2V299h2.5v-8.3h-2.5V289.6z"></path> <path class="st1" d="M597,300.3c-0.5,0-1-0.1-1.4-0.3s-0.8-0.4-1.1-0.7c-0.3-0.3-0.6-0.7-0.7-1.1c-0.2-0.4-0.3-0.9-0.3-1.4v-0.3 c0-0.6,0.1-1.1,0.3-1.6s0.4-0.9,0.8-1.2s0.7-0.6,1.1-0.7c0.4-0.2,0.8-0.3,1.2-0.3c0.5,0,1,0.1,1.4,0.3s0.7,0.4,1,0.8 c0.3,0.3,0.5,0.7,0.6,1.2c0.1,0.4,0.2,0.9,0.2,1.4v0.6h-5.3c0,0.3,0.1,0.7,0.2,1c0.1,0.3,0.3,0.6,0.5,0.8s0.4,0.4,0.7,0.5 c0.3,0.1,0.6,0.2,0.9,0.2c0.5,0,0.9-0.1,1.2-0.3c0.4-0.2,0.6-0.4,0.9-0.7l0.8,0.6c-0.1,0.2-0.3,0.4-0.5,0.5s-0.4,0.3-0.6,0.5 c-0.2,0.1-0.5,0.2-0.8,0.3C597.7,300.2,597.3,300.3,597,300.3z M596.8,293.6c-0.3,0-0.5,0-0.7,0.1c-0.2,0.1-0.4,0.2-0.6,0.4 c-0.2,0.2-0.3,0.4-0.5,0.7s-0.2,0.6-0.3,0.9h4v-0.1c0-0.2-0.1-0.5-0.1-0.7c-0.1-0.2-0.2-0.5-0.4-0.7c-0.2-0.2-0.3-0.3-0.6-0.5 C597.4,293.7,597.1,293.6,596.8,293.6z"></path> <path class="st1" d="M602.4,292.7l0,0.7c0.2-0.3,0.3-0.5,0.6-0.6c0.2-0.1,0.5-0.2,0.9-0.2c0.7,0,1.1,0.3,1.4,0.8 c0.1-0.2,0.3-0.4,0.6-0.6c0.2-0.1,0.5-0.2,0.9-0.2c0.5,0,1,0.2,1.3,0.5c0.3,0.3,0.4,0.8,0.4,1.5v5.5h-1.2v-5.5 c0-0.6-0.3-0.9-0.9-0.9c-0.2,0-0.3,0-0.4,0.1s-0.2,0.1-0.3,0.2s-0.1,0.2-0.2,0.2s-0.1,0.2-0.1,0.3v5.7h-1.2v-5.5 c0-0.3-0.1-0.5-0.2-0.7c-0.1-0.2-0.3-0.2-0.6-0.2c-0.3,0-0.5,0.1-0.6,0.2c-0.1,0.1-0.3,0.2-0.3,0.4v5.9h-1.2v-7.4H602.4z"></path> <path class="st1" d="M613.2,300.3c-0.5,0-1-0.1-1.4-0.3c-0.4-0.2-0.8-0.4-1.1-0.7c-0.3-0.3-0.6-0.7-0.7-1.1s-0.3-0.9-0.3-1.4v-0.3 c0-0.6,0.1-1.1,0.3-1.6s0.4-0.9,0.8-1.2c0.3-0.3,0.7-0.6,1.1-0.7c0.4-0.2,0.8-0.3,1.2-0.3c0.5,0,1,0.1,1.4,0.3 c0.4,0.2,0.7,0.4,1,0.8s0.5,0.7,0.6,1.2c0.1,0.4,0.2,0.9,0.2,1.4v0.6H611c0,0.3,0.1,0.7,0.2,1c0.1,0.3,0.3,0.6,0.5,0.8 c0.2,0.2,0.4,0.4,0.7,0.5c0.3,0.1,0.6,0.2,0.9,0.2c0.5,0,0.9-0.1,1.2-0.3c0.4-0.2,0.6-0.4,0.9-0.7l0.8,0.6 c-0.1,0.2-0.3,0.4-0.5,0.5c-0.2,0.2-0.4,0.3-0.6,0.5c-0.2,0.1-0.5,0.2-0.8,0.3S613.6,300.3,613.2,300.3z M613.1,293.6 c-0.3,0-0.5,0-0.7,0.1s-0.4,0.2-0.6,0.4s-0.3,0.4-0.5,0.7c-0.1,0.3-0.2,0.6-0.3,0.9h4v-0.1c0-0.2-0.1-0.5-0.1-0.7 c-0.1-0.2-0.2-0.5-0.4-0.7s-0.3-0.3-0.6-0.5C613.7,293.7,613.4,293.6,613.1,293.6z"></path> <path class="st1" d="M619.2,292.7l0.1,1.1c0.3-0.4,0.6-0.7,1-0.9c0.4-0.2,0.8-0.3,1.3-0.3c0.4,0,0.7,0.1,1.1,0.2s0.6,0.3,0.8,0.5 c0.2,0.2,0.4,0.5,0.5,0.9s0.2,0.8,0.2,1.3v4.7h-1.3v-4.7c0-0.3,0-0.6-0.1-0.8c-0.1-0.2-0.2-0.4-0.3-0.6c-0.1-0.1-0.3-0.2-0.5-0.3 c-0.2-0.1-0.4-0.1-0.7-0.1c-0.4,0-0.8,0.1-1.1,0.3s-0.6,0.5-0.8,0.8v5.3h-1.3v-7.4H619.2z"></path> <path class="st1" d="M629.2,290.9v1.8h2.8v1h-2.8v4c0,0.3,0,0.5,0.1,0.7c0.1,0.2,0.2,0.3,0.3,0.4c0.1,0.1,0.3,0.2,0.4,0.2 c0.2,0,0.3,0.1,0.5,0.1c0.1,0,0.3,0,0.4,0c0.1,0,0.3,0,0.4-0.1c0.1,0,0.3,0,0.4-0.1s0.2,0,0.3-0.1l0.2,0.9 c-0.1,0.1-0.2,0.1-0.4,0.2s-0.3,0.1-0.5,0.1s-0.4,0.1-0.6,0.1c-0.2,0-0.4,0-0.6,0c-0.3,0-0.6,0-0.9-0.1s-0.5-0.2-0.7-0.4 c-0.2-0.2-0.4-0.5-0.5-0.8s-0.2-0.7-0.2-1.2v-4H626v-1h1.9v-1.8H629.2z"></path> <path class="st1" d="M639.2,300.1c-0.1-0.1-0.1-0.2-0.1-0.4c0-0.1-0.1-0.3-0.1-0.4c-0.1,0.1-0.3,0.2-0.4,0.4 c-0.2,0.1-0.3,0.2-0.5,0.3c-0.2,0.1-0.4,0.2-0.6,0.2c-0.2,0-0.4,0.1-0.7,0.1c-0.4,0-0.7-0.1-1.1-0.2c-0.3-0.1-0.6-0.3-0.8-0.5 c-0.2-0.2-0.4-0.4-0.5-0.7c-0.1-0.3-0.2-0.6-0.2-0.9c0-0.4,0.1-0.8,0.2-1.1c0.2-0.3,0.4-0.6,0.7-0.8s0.7-0.4,1.1-0.5 c0.4-0.1,0.9-0.2,1.4-0.2h1.4v-0.6c0-0.2,0-0.4-0.1-0.6s-0.2-0.3-0.3-0.5s-0.3-0.2-0.5-0.3c-0.2-0.1-0.5-0.1-0.7-0.1 c-0.2,0-0.5,0-0.7,0.1c-0.2,0.1-0.4,0.1-0.5,0.3c-0.1,0.1-0.2,0.2-0.3,0.4c-0.1,0.1-0.1,0.3-0.1,0.4h-1.3c0-0.3,0.1-0.5,0.2-0.8 c0.1-0.3,0.3-0.5,0.6-0.7c0.3-0.2,0.6-0.4,0.9-0.5c0.4-0.1,0.8-0.2,1.2-0.2c0.4,0,0.8,0.1,1.2,0.2s0.7,0.3,0.9,0.5 c0.3,0.2,0.5,0.5,0.6,0.8c0.2,0.3,0.2,0.7,0.2,1.1v3.4c0,0.2,0,0.5,0.1,0.8s0.1,0.5,0.2,0.7v0.1H639.2z M637,299.2 c0.2,0,0.5,0,0.7-0.1c0.2-0.1,0.4-0.1,0.6-0.3c0.2-0.1,0.3-0.2,0.5-0.4s0.2-0.3,0.3-0.4v-1.5h-1.2c-0.7,0-1.3,0.1-1.7,0.3 s-0.6,0.6-0.6,1c0,0.2,0,0.4,0.1,0.5c0.1,0.2,0.2,0.3,0.3,0.4s0.3,0.2,0.5,0.3C636.5,299.1,636.7,299.2,637,299.2z"></path> <path class="st1" d="M642.6,289.6h3.8v9.4h2.4v1.1h-6.2V299h2.5v-8.3h-2.5V289.6z"></path> <path class="st1" d="M660.1,290.2l1.6,5l1.8-5h1.6v10h-1.2v-4l0.1-4.2l-1.8,5.4h-0.7l-1.7-5.2l0.1,4v4h-1.2v-10H660.1z"></path> <path class="st1" d="M671.7,300.1c0-0.1-0.1-0.2-0.1-0.4c0-0.1-0.1-0.3-0.1-0.4c-0.1,0.1-0.3,0.2-0.4,0.4c-0.2,0.1-0.3,0.2-0.5,0.3 c-0.2,0.1-0.4,0.2-0.6,0.2c-0.2,0-0.4,0.1-0.7,0.1c-0.4,0-0.7-0.1-1.1-0.2c-0.3-0.1-0.6-0.3-0.8-0.5c-0.2-0.2-0.4-0.4-0.5-0.7 c-0.1-0.3-0.2-0.6-0.2-0.9c0-0.4,0.1-0.8,0.2-1.1c0.2-0.3,0.4-0.6,0.7-0.8s0.7-0.4,1.1-0.5c0.4-0.1,0.9-0.2,1.4-0.2h1.4v-0.6 c0-0.2,0-0.4-0.1-0.6s-0.2-0.3-0.3-0.5s-0.3-0.2-0.6-0.3c-0.2-0.1-0.5-0.1-0.7-0.1c-0.3,0-0.5,0-0.7,0.1c-0.2,0.1-0.4,0.1-0.5,0.3 c-0.1,0.1-0.2,0.2-0.3,0.4c-0.1,0.1-0.1,0.3-0.1,0.4h-1.3c0-0.3,0.1-0.5,0.2-0.8c0.1-0.3,0.3-0.5,0.6-0.7c0.3-0.2,0.6-0.4,0.9-0.5 c0.4-0.1,0.8-0.2,1.2-0.2c0.4,0,0.8,0.1,1.2,0.2s0.7,0.3,0.9,0.5c0.3,0.2,0.5,0.5,0.6,0.8c0.2,0.3,0.2,0.7,0.2,1.1v3.4 c0,0.2,0,0.5,0.1,0.8s0.1,0.5,0.2,0.7v0.1H671.7z M669.4,299.2c0.2,0,0.5,0,0.7-0.1c0.2-0.1,0.4-0.1,0.6-0.3 c0.2-0.1,0.3-0.2,0.5-0.4s0.2-0.3,0.3-0.4v-1.5h-1.2c-0.7,0-1.3,0.1-1.7,0.3s-0.6,0.6-0.6,1c0,0.2,0,0.4,0.1,0.5 c0.1,0.2,0.2,0.3,0.3,0.4s0.3,0.2,0.5,0.3C669,299.1,669.2,299.2,669.4,299.2z"></path> <path class="st1" d="M681.2,296.5c0,0.5-0.1,1-0.2,1.5c-0.1,0.5-0.3,0.9-0.6,1.2c-0.2,0.3-0.6,0.6-0.9,0.8s-0.8,0.3-1.2,0.3 c-0.5,0-0.8-0.1-1.2-0.2c-0.3-0.1-0.6-0.4-0.9-0.6v3.6h-1.3v-10.2h1.2l0.1,0.8c0.2-0.3,0.5-0.5,0.9-0.7s0.8-0.2,1.2-0.2 c0.5,0,0.9,0.1,1.3,0.3c0.4,0.2,0.7,0.4,0.9,0.8c0.2,0.3,0.4,0.7,0.6,1.2c0.1,0.5,0.2,1,0.2,1.5V296.5z M679.9,296.4 c0-0.4,0-0.7-0.1-1s-0.2-0.6-0.4-0.9s-0.4-0.4-0.6-0.6c-0.3-0.1-0.6-0.2-0.9-0.2c-0.4,0-0.7,0.1-1,0.3s-0.5,0.4-0.7,0.7v3.6 c0.2,0.3,0.4,0.5,0.7,0.7s0.6,0.3,1,0.3c0.4,0,0.7-0.1,0.9-0.2c0.3-0.1,0.5-0.3,0.6-0.6c0.2-0.3,0.3-0.5,0.4-0.9s0.1-0.7,0.1-1 V296.4z"></path> <path class="st1" d="M689.3,296.5c0,0.5-0.1,1-0.2,1.5c-0.1,0.5-0.3,0.9-0.6,1.2c-0.2,0.3-0.6,0.6-0.9,0.8s-0.8,0.3-1.2,0.3 c-0.5,0-0.8-0.1-1.2-0.2c-0.3-0.1-0.6-0.4-0.9-0.6v3.6H683v-10.2h1.2l0.1,0.8c0.2-0.3,0.5-0.5,0.9-0.7s0.8-0.2,1.2-0.2 c0.5,0,0.9,0.1,1.3,0.3c0.4,0.2,0.7,0.4,0.9,0.8c0.2,0.3,0.4,0.7,0.6,1.2c0.1,0.5,0.2,1,0.2,1.5V296.5z M688,296.4 c0-0.4,0-0.7-0.1-1s-0.2-0.6-0.4-0.9s-0.4-0.4-0.6-0.6c-0.3-0.1-0.6-0.2-0.9-0.2c-0.4,0-0.7,0.1-1,0.3s-0.5,0.4-0.7,0.7v3.6 c0.2,0.3,0.4,0.5,0.7,0.7s0.6,0.3,1,0.3c0.4,0,0.7-0.1,0.9-0.2c0.3-0.1,0.5-0.3,0.6-0.6c0.2-0.3,0.3-0.5,0.4-0.9s0.1-0.7,0.1-1 V296.4z"></path> <path class="st1" d="M691.4,292.7h3.8v6.3h2.4v1.1h-6.2V299h2.5v-5.2h-2.5V292.7z M693.7,290.8c0-0.2,0.1-0.4,0.2-0.5 c0.1-0.1,0.3-0.2,0.6-0.2c0.3,0,0.4,0.1,0.6,0.2s0.2,0.3,0.2,0.5c0,0.2-0.1,0.4-0.2,0.5s-0.3,0.2-0.6,0.2c-0.3,0-0.4-0.1-0.6-0.2 C693.8,291.2,693.7,291,693.7,290.8z"></path> <path class="st1" d="M700.4,292.7l0.1,1.1c0.3-0.4,0.6-0.7,1-0.9s0.8-0.3,1.3-0.3c0.4,0,0.7,0.1,1.1,0.2c0.3,0.1,0.6,0.3,0.8,0.5 s0.4,0.5,0.5,0.9c0.1,0.4,0.2,0.8,0.2,1.3v4.7h-1.3v-4.7c0-0.3,0-0.6-0.1-0.8c-0.1-0.2-0.2-0.4-0.3-0.6c-0.1-0.1-0.3-0.2-0.5-0.3 c-0.2-0.1-0.4-0.1-0.7-0.1c-0.4,0-0.8,0.1-1.1,0.3c-0.3,0.2-0.6,0.5-0.8,0.8v5.3h-1.3v-7.4H700.4z"></path> <path class="st1" d="M707.2,296.4c0-0.6,0.1-1.1,0.2-1.5s0.3-0.9,0.6-1.2c0.3-0.3,0.6-0.6,0.9-0.8c0.4-0.2,0.8-0.3,1.2-0.3 c0.5,0,0.9,0.1,1.2,0.2s0.6,0.4,0.9,0.7l0.1-0.8h1.1v7.2c0,0.5-0.1,0.9-0.2,1.3c-0.2,0.4-0.4,0.7-0.6,1c-0.3,0.3-0.6,0.5-1,0.6 s-0.8,0.2-1.3,0.2c-0.2,0-0.4,0-0.7-0.1s-0.5-0.1-0.7-0.2s-0.5-0.2-0.7-0.4s-0.4-0.4-0.6-0.6l0.7-0.8c0.2,0.2,0.3,0.3,0.5,0.5 s0.3,0.2,0.5,0.3c0.2,0.1,0.3,0.1,0.5,0.2c0.2,0,0.3,0.1,0.5,0.1c0.3,0,0.6,0,0.8-0.1c0.2-0.1,0.4-0.2,0.6-0.4s0.3-0.4,0.4-0.6 c0.1-0.2,0.1-0.5,0.1-0.8v-0.6c-0.2,0.3-0.5,0.5-0.9,0.6s-0.7,0.2-1.2,0.2c-0.5,0-0.9-0.1-1.2-0.3c-0.4-0.2-0.7-0.5-0.9-0.8 c-0.3-0.3-0.4-0.7-0.6-1.2s-0.2-1-0.2-1.5V296.4z M708.4,296.5c0,0.4,0,0.7,0.1,1c0.1,0.3,0.2,0.6,0.4,0.9s0.4,0.4,0.6,0.6 c0.2,0.1,0.6,0.2,0.9,0.2c0.2,0,0.4,0,0.6-0.1s0.3-0.1,0.5-0.2s0.3-0.2,0.4-0.3c0.1-0.1,0.2-0.3,0.3-0.4v-3.4 c-0.1-0.2-0.2-0.3-0.3-0.4c-0.1-0.1-0.2-0.2-0.4-0.3c-0.1-0.1-0.3-0.2-0.5-0.2c-0.2-0.1-0.4-0.1-0.6-0.1c-0.4,0-0.7,0.1-0.9,0.2 c-0.3,0.1-0.5,0.3-0.6,0.6s-0.3,0.5-0.4,0.9s-0.1,0.7-0.1,1V296.5z"></path> <path class="st1" d="M507.7,322.1h-1.1V315l-2.2,0.8v-1l3.2-1.2h0.1V322.1z"></path> <path class="st1" d="M516.5,318.9c0,0.5-0.1,1-0.2,1.4s-0.3,0.8-0.5,1.1s-0.5,0.5-0.9,0.7s-0.7,0.2-1.2,0.2c-0.4,0-0.8-0.1-1.2-0.2 s-0.6-0.4-0.9-0.7s-0.4-0.6-0.5-1.1s-0.2-0.9-0.2-1.4v-2c0-0.5,0.1-1,0.2-1.4s0.3-0.8,0.5-1.1s0.5-0.5,0.9-0.7s0.7-0.2,1.2-0.2 c0.4,0,0.8,0.1,1.2,0.2s0.6,0.4,0.9,0.7s0.4,0.6,0.5,1.1s0.2,0.9,0.2,1.4V318.9z M512.1,318.6l3.3-2.5c-0.1-0.6-0.2-1-0.5-1.3 s-0.7-0.4-1.2-0.4c-0.6,0-1,0.2-1.3,0.6s-0.4,0.9-0.4,1.7V318.6z M515.4,317.1l-3.3,2.5c0.1,0.6,0.2,1,0.5,1.3s0.7,0.4,1.1,0.4 c0.6,0,1-0.2,1.3-0.6s0.4-1,0.4-1.7V317.1z"></path> <path class="st1" d="M523.5,318.9c0,0.5-0.1,1-0.2,1.4s-0.3,0.8-0.5,1.1s-0.5,0.5-0.9,0.7s-0.7,0.2-1.2,0.2c-0.4,0-0.8-0.1-1.2-0.2 s-0.6-0.4-0.9-0.7s-0.4-0.6-0.5-1.1s-0.2-0.9-0.2-1.4v-2c0-0.5,0.1-1,0.2-1.4s0.3-0.8,0.5-1.1s0.5-0.5,0.9-0.7s0.7-0.2,1.2-0.2 c0.4,0,0.8,0.1,1.2,0.2s0.6,0.4,0.9,0.7s0.4,0.6,0.5,1.1s0.2,0.9,0.2,1.4V318.9z M519.1,318.6l3.3-2.5c-0.1-0.6-0.2-1-0.5-1.3 s-0.7-0.4-1.2-0.4c-0.6,0-1,0.2-1.3,0.6s-0.4,0.9-0.4,1.7V318.6z M522.4,317.1l-3.3,2.5c0.1,0.6,0.2,1,0.5,1.3s0.7,0.4,1.1,0.4 c0.6,0,1-0.2,1.3-0.6s0.4-1,0.4-1.7V317.1z"></path> <path class="st1" d="M531.9,322.1v-8.5h2c0.6,0,1.1,0.1,1.6,0.3s0.9,0.5,1.2,0.8s0.6,0.8,0.7,1.2s0.3,1,0.3,1.6v0.6 c0,0.6-0.1,1.1-0.3,1.6s-0.4,0.9-0.7,1.2s-0.7,0.6-1.2,0.8s-1,0.3-1.6,0.3H531.9z M533,314.5v6.8h0.9c0.5,0,0.9-0.1,1.2-0.2 s0.6-0.4,0.8-0.6s0.4-0.6,0.5-1s0.2-0.8,0.2-1.2v-0.6c0-0.4-0.1-0.8-0.2-1.2s-0.3-0.7-0.5-1s-0.5-0.5-0.8-0.6s-0.7-0.2-1.2-0.2H533 z"></path> <path class="st1" d="M543.2,322.1c0-0.1-0.1-0.2-0.1-0.3s0-0.3-0.1-0.4c-0.1,0.1-0.2,0.2-0.4,0.3s-0.3,0.2-0.4,0.3 s-0.3,0.1-0.5,0.2s-0.4,0.1-0.6,0.1c-0.3,0-0.6,0-0.9-0.1s-0.5-0.2-0.7-0.4s-0.3-0.4-0.4-0.6s-0.2-0.5-0.2-0.7 c0-0.3,0.1-0.7,0.2-0.9s0.3-0.5,0.6-0.7s0.6-0.3,0.9-0.4s0.8-0.1,1.2-0.1h1.2v-0.5c0-0.2,0-0.4-0.1-0.5s-0.2-0.3-0.3-0.4 s-0.3-0.2-0.5-0.2s-0.4-0.1-0.6-0.1c-0.2,0-0.4,0-0.6,0.1s-0.3,0.1-0.4,0.2s-0.2,0.2-0.3,0.3s-0.1,0.2-0.1,0.4H539 c0-0.2,0.1-0.5,0.2-0.7s0.3-0.4,0.5-0.6s0.5-0.3,0.8-0.4s0.7-0.2,1.1-0.2c0.4,0,0.7,0,1,0.1s0.6,0.2,0.8,0.4s0.4,0.4,0.5,0.7 s0.2,0.6,0.2,0.9v2.9c0,0.2,0,0.4,0.1,0.7s0.1,0.4,0.2,0.6v0.1H543.2z M541.3,321.3c0.2,0,0.4,0,0.6-0.1s0.3-0.1,0.5-0.2 s0.3-0.2,0.4-0.3s0.2-0.2,0.3-0.4V319h-1c-0.6,0-1.1,0.1-1.5,0.3s-0.5,0.5-0.5,0.9c0,0.2,0,0.3,0.1,0.4s0.1,0.2,0.2,0.3 s0.2,0.2,0.4,0.2S541.1,321.3,541.3,321.3z"></path> <path class="st1" d="M548.3,319.9l0.3,0.8l1.9-4.9h1.2l-3.2,7.3c-0.1,0.2-0.2,0.3-0.3,0.5s-0.3,0.4-0.4,0.5s-0.4,0.3-0.6,0.4 s-0.5,0.2-0.8,0.2c-0.1,0-0.1,0-0.2,0s-0.1,0-0.2,0s-0.1,0-0.2,0s-0.1,0-0.1,0l0.2-0.9c0,0,0.1,0,0.1,0s0.1,0,0.1,0s0.1,0,0.1,0 s0.1,0,0.1,0c0.1,0,0.3,0,0.4-0.1s0.2-0.2,0.3-0.3s0.2-0.2,0.2-0.4s0.1-0.2,0.2-0.3l0.4-0.8l-2.7-6h1.2L548.3,319.9z"></path> <path class="st1" d="M557.2,320.4c0-0.1,0-0.2-0.1-0.3s-0.1-0.2-0.3-0.3s-0.3-0.2-0.5-0.2s-0.4-0.1-0.7-0.2c-0.4-0.1-0.7-0.2-1-0.3 s-0.6-0.2-0.8-0.4s-0.4-0.3-0.5-0.5s-0.2-0.4-0.2-0.7c0-0.3,0.1-0.5,0.2-0.7s0.3-0.4,0.5-0.6s0.5-0.3,0.8-0.4s0.6-0.1,1-0.1 c0.4,0,0.7,0.1,1.1,0.2s0.6,0.2,0.8,0.4s0.4,0.4,0.5,0.6s0.2,0.5,0.2,0.8h-1.1c0-0.1,0-0.3-0.1-0.4s-0.2-0.2-0.3-0.3 s-0.3-0.2-0.5-0.2s-0.4-0.1-0.6-0.1c-0.2,0-0.4,0-0.6,0.1s-0.3,0.1-0.4,0.2s-0.2,0.2-0.3,0.3s-0.1,0.2-0.1,0.4c0,0.1,0,0.2,0.1,0.3 s0.1,0.2,0.2,0.3s0.3,0.1,0.5,0.2s0.4,0.1,0.7,0.2c0.4,0.1,0.7,0.2,1,0.3s0.6,0.2,0.8,0.4s0.4,0.3,0.5,0.5s0.2,0.4,0.2,0.7 c0,0.3-0.1,0.5-0.2,0.8s-0.3,0.4-0.5,0.6s-0.5,0.3-0.8,0.4s-0.7,0.1-1,0.1c-0.4,0-0.8-0.1-1.1-0.2s-0.6-0.3-0.9-0.5 s-0.4-0.4-0.5-0.7s-0.2-0.5-0.2-0.8h1.1c0,0.2,0.1,0.4,0.2,0.6s0.2,0.3,0.4,0.4s0.3,0.2,0.5,0.2s0.4,0.1,0.6,0.1 c0.5,0,0.8-0.1,1.1-0.3S557.2,320.7,557.2,320.4z"></path> <path class="st1" d="M567.9,318.7c0-0.6,0-1.1,0.1-1.6s0.2-0.9,0.4-1.4s0.3-0.8,0.5-1.2s0.4-0.7,0.6-0.9s0.4-0.5,0.6-0.7 s0.4-0.3,0.6-0.5l0.2,0.7c-0.2,0.2-0.5,0.4-0.7,0.8s-0.5,0.7-0.6,1.2s-0.3,1-0.5,1.6s-0.2,1.2-0.2,2v0.1c0,0.7,0.1,1.4,0.2,2 s0.3,1.1,0.5,1.6s0.4,0.8,0.6,1.2s0.5,0.6,0.7,0.8l-0.2,0.7c-0.2-0.1-0.4-0.3-0.6-0.4s-0.4-0.4-0.6-0.7s-0.4-0.6-0.6-0.9 s-0.4-0.7-0.5-1.1s-0.3-0.9-0.4-1.4S567.9,319.3,567.9,318.7L567.9,318.7z"></path> <path class="st1" d="M577.8,313.6v1h-0.1c-0.4,0-0.7,0-1,0.1s-0.5,0.2-0.7,0.3s-0.4,0.3-0.6,0.5s-0.3,0.4-0.4,0.6s-0.2,0.4-0.2,0.7 s-0.1,0.5-0.1,0.7c0.1-0.1,0.2-0.2,0.4-0.3s0.3-0.2,0.4-0.3s0.3-0.1,0.5-0.2s0.4-0.1,0.6-0.1c0.4,0,0.8,0.1,1.1,0.2 s0.6,0.4,0.8,0.6s0.3,0.6,0.4,0.9s0.1,0.7,0.1,1c0,0.4-0.1,0.8-0.2,1.1s-0.3,0.7-0.5,0.9s-0.5,0.5-0.8,0.6s-0.7,0.2-1.1,0.2 c-0.3,0-0.6,0-0.8-0.1s-0.5-0.2-0.7-0.4s-0.4-0.3-0.5-0.5s-0.3-0.4-0.4-0.7s-0.2-0.5-0.2-0.8s-0.1-0.5-0.1-0.8v-0.5 c0-0.4,0-0.8,0.1-1.2s0.1-0.8,0.2-1.1s0.3-0.7,0.5-1s0.5-0.6,0.8-0.8s0.7-0.4,1.1-0.5S577.2,313.6,577.8,313.6L577.8,313.6z M576.4,317.4c-0.2,0-0.4,0-0.5,0.1s-0.3,0.1-0.5,0.2s-0.3,0.2-0.4,0.4s-0.2,0.3-0.3,0.5v0.4c0,0.4,0,0.7,0.1,1s0.2,0.5,0.4,0.7 s0.3,0.4,0.5,0.5s0.4,0.2,0.6,0.2c0.3,0,0.5,0,0.7-0.1s0.4-0.2,0.5-0.4s0.2-0.4,0.3-0.6s0.1-0.5,0.1-0.8c0-0.2,0-0.5-0.1-0.7 s-0.2-0.4-0.3-0.6s-0.3-0.3-0.5-0.4S576.7,317.4,576.4,317.4z"></path> <path class="st1" d="M586,315.8c0,0.4-0.1,0.8-0.3,1.1s-0.5,0.6-0.9,0.8c0.2,0.1,0.4,0.2,0.6,0.3s0.3,0.3,0.5,0.5s0.2,0.4,0.3,0.6 s0.1,0.4,0.1,0.7c0,0.4-0.1,0.7-0.2,1s-0.3,0.6-0.6,0.8s-0.5,0.4-0.9,0.5s-0.7,0.2-1.1,0.2c-0.4,0-0.7-0.1-1.1-0.2 s-0.6-0.3-0.9-0.5s-0.4-0.5-0.6-0.8s-0.2-0.6-0.2-1c0-0.2,0-0.5,0.1-0.7s0.2-0.4,0.3-0.6s0.3-0.3,0.5-0.5s0.4-0.3,0.6-0.4 c-0.2-0.1-0.4-0.2-0.5-0.3s-0.3-0.3-0.4-0.4s-0.2-0.3-0.2-0.5s-0.1-0.4-0.1-0.6c0-0.4,0.1-0.7,0.2-1s0.3-0.5,0.5-0.7 s0.5-0.4,0.8-0.5s0.6-0.2,1-0.2c0.4,0,0.7,0.1,1,0.2s0.6,0.3,0.8,0.5s0.4,0.4,0.5,0.7S586,315.4,586,315.8z M585.1,319.8 c0-0.2,0-0.5-0.1-0.7s-0.2-0.4-0.3-0.5s-0.3-0.3-0.5-0.3s-0.4-0.1-0.7-0.1c-0.2,0-0.5,0-0.7,0.1s-0.4,0.2-0.5,0.3s-0.2,0.3-0.3,0.5 s-0.1,0.4-0.1,0.7c0,0.2,0,0.5,0.1,0.7s0.2,0.4,0.3,0.5s0.3,0.2,0.5,0.3s0.4,0.1,0.7,0.1c0.2,0,0.5,0,0.7-0.1s0.4-0.2,0.5-0.3 s0.3-0.3,0.3-0.5S585.1,320,585.1,319.8z M584.9,315.8c0-0.2,0-0.4-0.1-0.6s-0.2-0.3-0.3-0.5s-0.3-0.2-0.5-0.3s-0.4-0.1-0.6-0.1 s-0.4,0-0.6,0.1s-0.3,0.2-0.4,0.3s-0.2,0.3-0.3,0.5s-0.1,0.4-0.1,0.6s0,0.4,0.1,0.6s0.2,0.3,0.3,0.5s0.3,0.2,0.5,0.3 s0.4,0.1,0.6,0.1c0.2,0,0.4,0,0.6-0.1s0.3-0.2,0.5-0.3s0.2-0.3,0.3-0.5S584.9,316.1,584.9,315.8z"></path> <path class="st1" d="M592.1,319.3h1.2v0.9h-1.2v2h-1.1v-2h-3.9v-0.6l3.8-5.9h1.2V319.3z M588.4,319.3h2.7V315l-0.2,0.3L588.4,319.3 z"></path> <path class="st1" d="M607.2,318.4c0,0.3,0,0.6-0.1,0.9s-0.1,0.6-0.2,0.9s-0.2,0.6-0.4,0.8s-0.3,0.5-0.6,0.7s-0.5,0.3-0.8,0.4 s-0.6,0.2-1,0.2s-0.7-0.1-1-0.2s-0.5-0.3-0.8-0.4s-0.4-0.4-0.6-0.7s-0.3-0.5-0.4-0.8s-0.2-0.6-0.2-0.9s-0.1-0.6-0.1-0.9v-1 c0-0.3,0-0.6,0.1-0.9s0.1-0.6,0.2-0.9s0.2-0.6,0.4-0.8s0.3-0.5,0.6-0.7s0.5-0.3,0.8-0.4s0.6-0.2,1-0.2s0.7,0.1,1,0.2 s0.5,0.3,0.8,0.4s0.4,0.4,0.6,0.7s0.3,0.5,0.4,0.8s0.2,0.6,0.2,0.9s0.1,0.6,0.1,0.9V318.4z M606.1,317.4c0-0.2,0-0.4,0-0.6 s-0.1-0.4-0.1-0.7s-0.1-0.4-0.2-0.6s-0.2-0.4-0.4-0.5s-0.3-0.3-0.5-0.4s-0.4-0.1-0.7-0.1c-0.2,0-0.5,0-0.7,0.1s-0.4,0.2-0.5,0.4 s-0.3,0.3-0.4,0.5s-0.2,0.4-0.2,0.6s-0.1,0.4-0.1,0.7s0,0.4,0,0.6v1c0,0.2,0,0.4,0,0.6s0.1,0.4,0.1,0.7s0.1,0.4,0.2,0.6 s0.2,0.4,0.4,0.5s0.3,0.3,0.5,0.4s0.4,0.1,0.7,0.1s0.5,0,0.7-0.1s0.4-0.2,0.5-0.4s0.3-0.3,0.3-0.5s0.2-0.4,0.2-0.6s0.1-0.4,0.1-0.7 s0-0.4,0-0.6V317.4z"></path> <path class="st1" d="M612.8,315.7c0.1,0,0.2,0,0.3,0s0.2,0,0.3,0s0.2,0,0.3,0s0.2,0,0.2,0.1l-0.1,1.1c-0.2,0-0.4-0.1-0.6-0.1 s-0.4,0-0.6,0c-0.5,0-0.9,0.1-1.2,0.3s-0.5,0.6-0.7,1v4.1h-1.1v-6.3h1l0.1,1c0.3-0.3,0.6-0.6,0.9-0.8S612.3,315.7,612.8,315.7z"></path> <path class="st1" d="M621,319c0,0.5-0.1,0.9-0.2,1.3s-0.3,0.7-0.5,1s-0.5,0.5-0.8,0.7s-0.7,0.2-1.1,0.2c-0.4,0-0.8-0.1-1.1-0.2 s-0.6-0.4-0.8-0.6l-0.1,0.7h-1v-9h1.1v3.3c0.2-0.3,0.5-0.5,0.8-0.6s0.6-0.2,1-0.2c0.4,0,0.8,0.1,1.1,0.2s0.6,0.4,0.8,0.7 s0.4,0.6,0.5,1s0.2,0.8,0.2,1.3V319z M619.9,318.9c0-0.3,0-0.6-0.1-0.9s-0.2-0.5-0.3-0.7s-0.3-0.4-0.5-0.5s-0.5-0.2-0.8-0.2 c-0.2,0-0.4,0-0.5,0.1s-0.3,0.1-0.4,0.2s-0.2,0.2-0.3,0.3s-0.2,0.2-0.2,0.4v2.8c0.1,0.1,0.2,0.3,0.2,0.4s0.2,0.2,0.3,0.3 s0.3,0.2,0.4,0.2s0.3,0.1,0.5,0.1c0.3,0,0.6-0.1,0.8-0.2s0.4-0.3,0.5-0.5s0.2-0.5,0.3-0.7s0.1-0.6,0.1-0.9V318.9z"></path> <path class="st1" d="M622.7,315.8h3.2v5.4h2.1v0.9h-5.3v-0.9h2.2v-4.5h-2.2V315.8z M624.7,314.1c0-0.2,0.1-0.3,0.2-0.5 s0.3-0.2,0.5-0.2c0.2,0,0.4,0.1,0.5,0.2s0.2,0.3,0.2,0.5c0,0.2-0.1,0.3-0.2,0.4s-0.3,0.2-0.5,0.2c-0.2,0-0.4-0.1-0.5-0.2 S624.7,314.3,624.7,314.1z"></path> <path class="st1" d="M632.1,314.2v1.5h2.4v0.8h-2.4v3.4c0,0.2,0,0.4,0.1,0.6s0.1,0.3,0.3,0.4s0.2,0.2,0.4,0.2s0.3,0.1,0.5,0.1 c0.1,0,0.2,0,0.4,0s0.2,0,0.4-0.1s0.2,0,0.3-0.1s0.2,0,0.3-0.1l0.2,0.8c-0.1,0.1-0.2,0.1-0.3,0.1s-0.3,0.1-0.4,0.1 s-0.3,0.1-0.5,0.1s-0.3,0-0.5,0c-0.3,0-0.5,0-0.8-0.1s-0.5-0.2-0.6-0.4s-0.3-0.4-0.4-0.7s-0.2-0.6-0.2-1v-3.4h-1.7v-0.8h1.7v-1.5 H632.1z"></path> <path class="st1" d="M640.7,320.4c0-0.1,0-0.2-0.1-0.3s-0.1-0.2-0.3-0.3s-0.3-0.2-0.5-0.2s-0.4-0.1-0.7-0.2c-0.4-0.1-0.7-0.2-1-0.3 s-0.6-0.2-0.8-0.4s-0.4-0.3-0.5-0.5s-0.2-0.4-0.2-0.7c0-0.3,0.1-0.5,0.2-0.7s0.3-0.4,0.5-0.6s0.5-0.3,0.8-0.4s0.6-0.1,1-0.1 c0.4,0,0.7,0.1,1.1,0.2s0.6,0.2,0.8,0.4s0.4,0.4,0.5,0.6s0.2,0.5,0.2,0.8h-1.1c0-0.1,0-0.3-0.1-0.4s-0.2-0.2-0.3-0.3 s-0.3-0.2-0.5-0.2s-0.4-0.1-0.6-0.1c-0.2,0-0.4,0-0.6,0.1s-0.3,0.1-0.4,0.2s-0.2,0.2-0.3,0.3s-0.1,0.2-0.1,0.4c0,0.1,0,0.2,0.1,0.3 s0.1,0.2,0.2,0.3s0.3,0.1,0.5,0.2s0.4,0.1,0.7,0.2c0.4,0.1,0.7,0.2,1,0.3s0.6,0.2,0.8,0.4s0.4,0.3,0.5,0.5s0.2,0.4,0.2,0.7 c0,0.3-0.1,0.5-0.2,0.8s-0.3,0.4-0.5,0.6s-0.5,0.3-0.8,0.4s-0.7,0.1-1,0.1c-0.4,0-0.8-0.1-1.1-0.2s-0.6-0.3-0.9-0.5 s-0.4-0.4-0.5-0.7s-0.2-0.5-0.2-0.8h1.1c0,0.2,0.1,0.4,0.2,0.6s0.2,0.3,0.4,0.4s0.3,0.2,0.5,0.2s0.4,0.1,0.6,0.1 c0.5,0,0.8-0.1,1.1-0.3S640.7,320.7,640.7,320.4z"></path> <path class="st1" d="M647.4,318.7c0,0.6,0,1.1-0.1,1.6s-0.2,0.9-0.4,1.4s-0.3,0.8-0.5,1.1s-0.4,0.7-0.6,0.9s-0.4,0.5-0.6,0.7 s-0.4,0.3-0.6,0.4l-0.2-0.7c0.2-0.2,0.5-0.4,0.7-0.8s0.5-0.7,0.6-1.2s0.3-1,0.5-1.6s0.2-1.3,0.2-2v-0.1c0-0.7-0.1-1.4-0.2-2 s-0.3-1.1-0.5-1.6s-0.4-0.8-0.7-1.2s-0.5-0.6-0.7-0.8l0.2-0.7c0.2,0.1,0.4,0.3,0.6,0.5s0.4,0.4,0.6,0.7s0.4,0.6,0.6,0.9 s0.4,0.7,0.5,1.2s0.3,0.9,0.4,1.4S647.4,318.1,647.4,318.7L647.4,318.7z"></path> </g> <g> <path class="st2" d="M240,356.2c-31.3,0-56.8-25.5-56.8-56.8s25.5-56.8,56.8-56.8s56.8,25.5,56.8,56.8S271.3,356.2,240,356.2z M240,245.7c-29.6,0-53.8,24.1-53.8,53.8s24.1,53.8,53.8,53.8s53.8-24.1,53.8-53.8S269.6,245.7,240,245.7z"></path> </g> <g> <path class="st3" d="M239,384.3c-46.3,0-83.9-37.6-83.9-83.9c0-46.3,37.6-83.9,83.9-83.9s83.9,37.6,83.9,83.9 C322.9,346.7,285.3,384.3,239,384.3z M239,219.5c-44.6,0-80.9,36.3-80.9,80.9c0,44.6,36.3,80.9,80.9,80.9s80.9-36.3,80.9-80.9 C319.9,255.8,283.6,219.5,239,219.5z"></path> </g> <g> <path class="st4" d="M240,419.2c-66,0-119.8-53.7-119.8-119.8c0-66,53.7-119.8,119.8-119.8s119.8,53.7,119.8,119.8 C359.7,365.5,306,419.2,240,419.2z M240,182.7c-64.4,0-116.8,52.4-116.8,116.8c0,64.4,52.4,116.8,116.8,116.8 s116.8-52.4,116.8-116.8C356.7,235.1,304.4,182.7,240,182.7z"></path> </g> <g> <path class="st5" d="M239,537.5c-63.8,0-123.9-24.9-169-70c-45.1-45.1-70-105.2-70-169c0-63.8,24.9-123.9,70-169s105.2-70,169-70 s123.9,24.9,169,70c45.1,45.1,70,105.2,70,169c0,63.8-24.9,123.9-70,169C362.9,512.6,302.8,537.5,239,537.5z M239,62.5 c-63,0-122.3,24.5-166.9,69.1C27.5,176.2,3,235.5,3,298.5c0,63,24.5,122.3,69.1,166.9C116.7,510,176,534.5,239,534.5 s122.3-24.5,166.9-69.1c44.6-44.6,69.1-103.8,69.1-166.9s-24.5-122.3-69.1-166.9C361.3,87,302,62.5,239,62.5z"></path> </g> <g> <circle class="st6" cx="147.5" cy="516" r="19"></circle> </g> <g> <g class="st7"> <path class="st8" d="M246.6,277.2c-2.9,0-6.3-1.9-10.8-0.9s-16.1,4-18.7,9.1s-5,11.4-1.8,17.6c3.2,6.2,5.6,13,11.7,16.3 s14,7.6,21.9,2.2c7.9-5.4,16.3-10.7,17.4-16c1.2-5.3-1.1-14.9-6.4-21.4S246.6,277.2,246.6,277.2z"></path> </g> <g> <path class="st8" d="M240.8,325c-5.5,0-10.5-2.8-14.4-4.9c-5.4-3-8.1-8.5-10.7-13.8c-0.5-1-0.9-1.9-1.4-2.9 c-3.4-6.7-0.8-13.4,1.8-18.5c2.7-5.2,13.3-8.2,19.4-9.6c3.1-0.7,5.8-0.1,7.9,0.4c1.2,0.3,2.2,0.5,3.2,0.5l0.1,0 c0.3,0,8.4,0.5,14,7.2c5.6,6.8,7.8,16.8,6.6,22.2c-1.2,5.4-8.6,10.4-16.4,15.6l-1.5,1C246.5,324.2,243.6,325,240.8,325z M238.4,277c-0.8,0-1.6,0.1-2.5,0.3c-3.6,0.8-15.6,3.7-18,8.5c-2.6,5-4.8,10.8-1.8,16.7c0.5,1,1,1.9,1.4,2.9 c2.6,5.3,5,10.3,9.8,12.9c5.7,3.1,13.4,7.4,20.9,2.3l1.5-1c7.1-4.8,14.5-9.8,15.5-14.4c1.1-4.9-1-14.2-6.2-20.5 c-4.8-5.9-12.1-6.5-12.6-6.5c0,0,0,0,0,0c-1.1,0-2.3-0.3-3.6-0.5C241.6,277.3,240.1,277,238.4,277z"></path> </g> <g> <ellipse transform="matrix(1 -7.996209e-03 7.996209e-03 1 -2.3158 1.9727)" class="st8" cx="245.5" cy="290.6" rx="9.3" ry="8.2"></ellipse> </g> <g> <ellipse transform="matrix(0.6537 -0.7568 0.7568 0.6537 -149.5804 277.7126)" class="st8" cx="228.6" cy="302.3" rx="6.6" ry="7.5"></ellipse> </g> <g> <ellipse transform="matrix(1 -7.996209e-03 7.996209e-03 1 -2.4691 1.92)" class="st8" cx="238.9" cy="309.7" rx="1.3" ry="1.2"></ellipse> </g> <g> <ellipse transform="matrix(1 -7.996209e-03 7.996209e-03 1 -2.4327 1.9632)" class="st8" cx="244.3" cy="305.2" rx="1.3" ry="1.2"></ellipse> </g> <g> <ellipse transform="matrix(1 -7.996209e-03 7.996209e-03 1 -2.2436 1.8878)" class="st8" cx="235" cy="281.5" rx="1.3" ry="1.2"></ellipse> </g> <g> <ellipse transform="matrix(1 -7.996209e-03 7.996209e-03 1 -2.4891 1.9651)" class="st8" cx="244.5" cy="312.3" rx="1.3" ry="1.2"></ellipse> </g> <g> <ellipse transform="matrix(1 -7.996209e-03 7.996209e-03 1 -2.4691 2.0291)" class="st8" cx="252.5" cy="309.8" rx="2.6" ry="2.4"></ellipse> </g> <g> <ellipse transform="matrix(1 -7.996209e-03 7.996209e-03 1 -2.3017 1.8577)" class="st8" cx="231.2" cy="288.8" rx="2.6" ry="2.4"></ellipse> </g> </g> <g> <g> <rect x="144.2" y="512" transform="matrix(0.4202 -0.9074 0.9074 0.4202 -382.499 434.3579)" class="st9" width="9" height="9"></rect> <path class="st10" d="M150.8,523.2c-0.1,0-0.2,0-0.3-0.1l-8.1-3.8c-0.4-0.2-0.5-0.6-0.4-1l3.8-8.1c0.1-0.2,0.2-0.3,0.4-0.4 c0.2-0.1,0.4-0.1,0.6,0l8.1,3.8c0.4,0.2,0.5,0.6,0.4,1l-3.8,8.1c-0.1,0.2-0.2,0.3-0.4,0.4C151,523.2,150.9,523.2,150.8,523.2z M143.7,518.3l6.8,3.1l3.1-6.8l-6.8-3.1L143.7,518.3z"></path> </g> <g> <polygon class="st9" points="146.5,510.5 142.7,518.7 139.1,513.9 140.5,510.9 "></polygon> <path class="st10" d="M142.7,519.4c-0.2,0-0.5-0.1-0.6-0.3l-3.6-4.7c-0.2-0.2-0.2-0.5-0.1-0.8l1.4-3.1c0.1-0.3,0.4-0.4,0.6-0.4 l5.9-0.3c0.3,0,0.5,0.1,0.7,0.3c0.1,0.2,0.2,0.5,0.1,0.7l-3.8,8.1C143.3,519.2,143,519.4,142.7,519.4 C142.7,519.4,142.7,519.4,142.7,519.4z M140,513.8l2.6,3.4l2.7-5.9l-4.2,0.2L140,513.8z"></path> </g> <g> <rect x="149.2" y="498.5" transform="matrix(0.4202 -0.9074 0.9074 0.4202 -366.9059 432.5558)" class="st9" width="11.7" height="9.7"></rect> <path class="st10" d="M157,511.5c-0.1,0-0.2,0-0.3-0.1l-8.8-4.1c-0.4-0.2-0.5-0.6-0.4-1l4.9-10.6c0.1-0.2,0.2-0.3,0.4-0.4 s0.4-0.1,0.6,0l8.8,4.1c0.4,0.2,0.5,0.6,0.4,1l-4.9,10.6c-0.1,0.2-0.2,0.3-0.4,0.4C157.1,511.5,157.1,511.5,157,511.5z M149.2,506.3l7.4,3.4l4.3-9.2l-7.4-3.4L149.2,506.3z"></path> </g> <g> <rect x="154.1" y="488" transform="matrix(0.4202 -0.9074 0.9074 0.4202 -354.4521 430.865)" class="st9" width="11.7" height="9.7"></rect> <path class="st10" d="M161.9,500.9c-0.1,0-0.2,0-0.3-0.1l-8.8-4.1c-0.4-0.2-0.5-0.6-0.4-1l4.9-10.6c0.1-0.2,0.2-0.3,0.4-0.4 c0.2-0.1,0.4-0.1,0.6,0l8.8,4.1c0.4,0.2,0.5,0.6,0.4,1l-4.9,10.6c-0.1,0.2-0.2,0.3-0.4,0.4C162,500.9,162,500.9,161.9,500.9z M154.1,495.7l7.4,3.4l4.3-9.2l-7.4-3.4L154.1,495.7z"></path> </g> <g> <rect x="145.3" y="483.9" transform="matrix(0.4202 -0.9074 0.9074 0.4202 -355.8555 420.5284)" class="st9" width="11.7" height="9.7"></rect> <path class="st10" d="M153.1,496.8c-0.1,0-0.2,0-0.3-0.1l-8.8-4.1c-0.2-0.1-0.3-0.2-0.4-0.4c-0.1-0.2-0.1-0.4,0-0.6l4.9-10.6 c0.2-0.4,0.6-0.5,1-0.4l8.8,4.1c0.2,0.1,0.3,0.2,0.4,0.4c0.1,0.2,0.1,0.4,0,0.6l-4.9,10.6C153.6,496.6,153.4,496.8,153.1,496.8z M145.3,491.6l7.4,3.4l4.3-9.2l-7.4-3.4L145.3,491.6z"></path> </g> <g> <rect x="162.9" y="492" transform="matrix(0.4202 -0.9074 0.9074 0.4202 -353.0487 441.2015)" class="st9" width="11.7" height="9.7"></rect> <path class="st10" d="M170.7,504.9c-0.1,0-0.2,0-0.3-0.1l-8.8-4.1c-0.4-0.2-0.5-0.6-0.4-1l4.9-10.6c0.1-0.2,0.2-0.3,0.4-0.4 c0.2-0.1,0.4-0.1,0.6,0l8.8,4.1c0.4,0.2,0.5,0.6,0.4,1l-4.9,10.6c-0.1,0.2-0.2,0.3-0.4,0.4C170.8,504.9,170.8,504.9,170.7,504.9z M162.9,499.8l7.4,3.4l4.3-9.2l-7.4-3.4L162.9,499.8z"></path> </g> <g> <rect x="159" y="477.4" transform="matrix(0.4202 -0.9074 0.9074 0.4202 -341.9983 429.1741)" class="st9" width="11.7" height="9.7"></rect> <path class="st10" d="M166.8,490.3c-0.1,0-0.2,0-0.3-0.1l-8.8-4.1c-0.2-0.1-0.3-0.2-0.4-0.4c-0.1-0.2-0.1-0.4,0-0.6l4.9-10.6 c0.2-0.4,0.6-0.5,1-0.4l8.8,4.1c0.2,0.1,0.3,0.2,0.4,0.4c0.1,0.2,0.1,0.4,0,0.6l-4.9,10.6c-0.1,0.2-0.2,0.3-0.4,0.4 C167,490.3,166.9,490.3,166.8,490.3z M159,485.1l7.4,3.4l4.3-9.2l-7.4-3.4L159,485.1z"></path> </g> <g> <path class="st10" d="M150.6,513.2c-0.3,0-0.6-0.2-0.7-0.5l-2.4-5.8c-0.2-0.4,0-0.8,0.4-1c0.4-0.2,0.8,0,1,0.4l2.1,5.2l5.8-1.5 c0.4-0.1,0.8,0.1,0.9,0.5s-0.1,0.8-0.5,0.9l-6.4,1.7C150.7,513.2,150.6,513.2,150.6,513.2z"></path> </g> <g> <rect x="136.9" y="525" transform="matrix(-0.4202 0.9074 -0.9074 -0.4202 683.5695 622.8927)" class="st9" width="11.7" height="9.7"></rect> <path class="st10" d="M144.7,537.9c-0.1,0-0.2,0-0.3-0.1l-8.8-4.1c-0.4-0.2-0.5-0.6-0.4-1l4.9-10.6c0.1-0.2,0.2-0.3,0.4-0.4 c0.2-0.1,0.4-0.1,0.6,0l8.8,4.1c0.4,0.2,0.5,0.6,0.4,1l-4.9,10.6c-0.1,0.2-0.2,0.3-0.4,0.4C144.9,537.9,144.8,537.9,144.7,537.9z M136.9,532.7l7.4,3.4l4.3-9.2l-7.4-3.4L136.9,532.7z"></path> </g> <g> <rect x="132" y="535.6" transform="matrix(-0.4202 0.9074 -0.9074 -0.4202 686.2156 642.3832)" class="st9" width="11.7" height="9.7"></rect> <path class="st10" d="M139.8,548.5c-0.1,0-0.2,0-0.3-0.1l-8.8-4.1c-0.4-0.2-0.5-0.6-0.4-1l4.9-10.6c0.1-0.2,0.2-0.3,0.4-0.4 c0.2-0.1,0.4-0.1,0.6,0l8.8,4.1c0.4,0.2,0.5,0.6,0.4,1l-4.9,10.6c-0.1,0.2-0.2,0.3-0.4,0.4C140,548.5,139.9,548.5,139.8,548.5z M132,543.3l7.4,3.4l4.3-9.2l-7.4-3.4L132,543.3z"></path> </g> <g> <rect x="140.8" y="539.7" transform="matrix(-0.4202 0.9074 -0.9074 -0.4202 702.3926 640.1869)" class="st9" width="11.7" height="9.7"></rect> <path class="st10" d="M148.6,552.6c-0.1,0-0.2,0-0.3-0.1l-8.8-4.1c-0.4-0.2-0.5-0.6-0.4-1l4.9-10.6c0.1-0.2,0.2-0.3,0.4-0.4 s0.4-0.1,0.6,0l8.8,4.1c0.4,0.2,0.5,0.6,0.4,1l-4.9,10.6c-0.1,0.2-0.2,0.3-0.4,0.4C148.8,552.6,148.7,552.6,148.6,552.6z M140.8,547.4l7.4,3.4l4.3-9.2l-7.4-3.4L140.8,547.4z"></path> </g> <g> <rect x="123.3" y="531.5" transform="matrix(-0.4202 0.9074 -0.9074 -0.4202 670.0386 644.5796)" class="st9" width="11.7" height="9.7"></rect> <path class="st10" d="M131,544.4c-0.1,0-0.2,0-0.3-0.1l-8.8-4.1c-0.4-0.2-0.5-0.6-0.4-1l4.9-10.6c0.1-0.2,0.2-0.3,0.4-0.4 c0.2-0.1,0.4-0.1,0.6,0l8.8,4.1c0.4,0.2,0.5,0.6,0.4,1l-4.9,10.6c-0.1,0.2-0.2,0.3-0.4,0.4C131.2,544.4,131.1,544.4,131,544.4z M123.2,539.3l7.4,3.4l4.3-9.2l-7.4-3.4L123.2,539.3z"></path> </g> <g> <rect x="127.1" y="546.2" transform="matrix(-0.4202 0.9074 -0.9074 -0.4202 688.8619 661.8738)" class="st9" width="11.7" height="9.7"></rect> <path class="st10" d="M134.9,559.1c-0.1,0-0.2,0-0.3-0.1l-8.8-4.1c-0.4-0.2-0.5-0.6-0.4-1l4.9-10.6c0.1-0.2,0.2-0.3,0.4-0.4 c0.2-0.1,0.4-0.1,0.6,0l8.8,4.1c0.4,0.2,0.5,0.6,0.4,1l-4.9,10.6c-0.1,0.2-0.2,0.3-0.4,0.4C135.1,559.1,135,559.1,134.9,559.1z M127.1,553.9l7.4,3.4l4.3-9.2l-7.4-3.4L127.1,553.9z"></path> </g> <g> <path class="st10" d="M149.6,527.3c-0.3,0-0.6-0.2-0.7-0.5l-2.1-5.2l-5.8,1.5c-0.4,0.1-0.8-0.1-0.9-0.5s0.1-0.8,0.5-0.9l6.4-1.7 c0.4-0.1,0.7,0.1,0.9,0.4l2.4,5.8c0.2,0.4,0,0.8-0.4,1C149.8,527.3,149.7,527.3,149.6,527.3z"></path> </g> </g> <g> <circle class="st0" cx="310.5" cy="72" r="4"></circle> </g> <g> <circle class="st0" cx="296.5" cy="195" r="4"></circle> </g> <g> <circle class="st0" cx="316.5" cy="274" r="4"></circle> </g> <g> <circle class="st0" cx="284.5" cy="332" r="4"></circle> </g> </svg> 