<svg id="SvgjsSvg1001" width="288" height="288" xmlns="http://www.w3.org/2000/svg" version="1.1" xmlns:xlink="http://www.w3.org/1999/xlink" xmlns:svgjs="http://svgjs.com/svgjs"><defs id="SvgjsDefs1002"></defs><g id="SvgjsG1008" transform="matrix(0.9167,0,0,0.9167,11.995169494628925,11.995199364471432)"><svg xmlns="http://www.w3.org/2000/svg" enable-background="new 0 0 409.6 409.6" viewBox="0 0 409.6 409.6" width="288" height="288"><path d="M382.321 81.92H27.279C12.24 81.92 0 94.17 0 109.227s12.24 27.307 27.279 27.307h355.041c15.039 0 27.279-12.25 27.279-27.307S397.36 81.92 382.321 81.92zM382.321 122.88H27.279c-7.513 0-13.626-6.124-13.626-13.653 0-7.53 6.113-13.653 13.626-13.653h355.041c7.513 0 13.626 6.124 13.626 13.653C395.947 116.756 389.833 122.88 382.321 122.88zM382.321 177.493H27.279C12.24 177.493 0 189.744 0 204.8s12.24 27.307 27.279 27.307h355.041c15.039 0 27.279-12.25 27.279-27.307S397.36 177.493 382.321 177.493zM382.321 218.453H27.279c-7.513 0-13.626-6.123-13.626-13.653 0-7.53 6.113-13.653 13.626-13.653h355.041c7.513 0 13.626 6.124 13.626 13.653C395.947 212.33 389.833 218.453 382.321 218.453zM382.321 273.067H27.279C12.24 273.067 0 285.317 0 300.373c0 15.056 12.24 27.307 27.279 27.307h355.041c15.039 0 27.279-12.25 27.279-27.307C409.6 285.317 397.36 273.067 382.321 273.067zM382.321 314.027H27.279c-7.513 0-13.626-6.124-13.626-13.653 0-7.53 6.113-13.653 13.626-13.653h355.041c7.513 0 13.626 6.124 13.626 13.653C395.947 307.903 389.833 314.027 382.321 314.027z" fill="#ffffff" class="color000 svgShape"></path></svg></g></svg>